<?xml version="1.0" encoding="UTF-8"?>
<!DOCTYPE svg PUBLIC "-//W3C//DTD SVG 1.1//EN" "http://www.w3.org/Graphics/SVG/1.1/DTD/svg11.dtd">
<!-- Creator: CorelDRAW X7 -->
<svg xmlns="http://www.w3.org/2000/svg" xml:space="preserve" width="12.7mm" height="4.2334mm" version="1.1" style="shape-rendering:geometricPrecision; text-rendering:geometricPrecision; image-rendering:optimizeQuality; fill-rule:evenodd; clip-rule:evenodd"
viewBox="0 0 1270 423"
 xmlns:xlink="http://www.w3.org/1999/xlink">
 <defs>
  <style type="text/css">
   <![CDATA[
    .fil5 {fill:none}
    .fil4 {fill:#24966A}
    .fil3 {fill:#738A8E}
    .fil2 {fill:#9DAEB2}
    .fil1 {fill:#DAE6EA}
    .fil0 {fill:white}
   ]]>
  </style>
 </defs>
 <g id="Layer_x0020_1">
  <metadata id="CorelCorpID_0Corel-Layer"/>
  <g id="_2119522655696">
   <rect class="fil0" x="859" y="148" width="28.3286" height="205.385"/>
   <rect class="fil1" x="1170" y="148" width="28.3286" height="205.385"/>
   <rect class="fil2" x="866" y="148" width="319" height="205"/>
   <g>
    <polygon class="fil3" points="866,148 1184,148 1184,353 "/>
   </g>
   <path class="fil0" d="M1248 133c0,8 -6,15 -14,15l-408 0c-8,0 -14,-7 -14,-15l0 0c0,-7 7,-14 15,-14l407 0c8,0 14,7 14,14l0 0z"/>
   <g>
    <path class="fil1" d="M1248 133l0 0c0,8 -6,15 -14,15l-408 0c-8,0 -14,-7 -14,-15l0 0 436 0zm0 0l0 0 0 0z"/>
   </g>
   <path class="fil0" d="M1220 367c0,8 -7,14 -14,14l-347 0c-8,0 -15,-6 -15,-14l0 0c0,-8 7,-14 15,-14l347 0c7,0 14,6 14,14l0 0z"/>
   <g>
    <path class="fil1" d="M1220 367l0 0c0,8 -7,14 -14,14l-347 0c-8,0 -15,-6 -15,-14l0 0 376 0zm0 0l0 0 0 0z"/>
   </g>
   <path class="fil0" d="M1227 396c0,7 -7,14 -14,14l-376 0c-7,0 -14,-7 -14,-14l0 0c0,-8 7,-15 14,-15l376 0c7,0 14,7 14,15l0 0z"/>
   <g>
    <path class="fil1" d="M1227 396l0 0c0,8 -6,14 -14,14l-376 0c-8,0 -14,-6 -14,-14l0 0 404 0zm0 0l0 0 0 0z"/>
   </g>
   <path class="fil0" d="M1226 119l0 0 -161 -91c-20,-21 -53,-21 -73,0l-161 91 0 0 395 0z"/>
   <g>
    <path class="fil1" d="M1007 119l219 0 0 0 -161 -91c-20,-21 -52,-21 -73,0l15 91zm0 0l0 0 0 0z"/>
   </g>
   <path class="fil4" d="M1021 112l0 -11c-7,0 -11,-2 -14,-4l3 -11c4,2 10,4 16,4 5,0 9,-2 9,-5 0,-4 -3,-6 -10,-9 -10,-3 -18,-8 -18,-17 0,-8 7,-15 14,-17l0 -15 15 0 0 14c7,0 9,2 12,3l-4 11c-2,-1 -7,-4 -13,-4 -7,0 -9,3 -9,5 0,3 4,5 12,8 11,4 17,9 17,18 0,8 -9,15 -16,17l0 13 -14 0z"/>
   <rect class="fil0" x="887" y="162" width="35.4139" height="177.057"/>
   <g>
    <polygon class="fil1" points="887,162 922,162 922,339 "/>
   </g>
   <g>
    <path class="fil0" d="M929 335c0,2 -1,4 -3,4l-43 0c-2,0 -3,-2 -3,-4l0 0c0,-2 1,-3 3,-3l43 0c2,0 3,1 3,3l0 0z"/>
    <rect class="fil0" x="1007" y="162" width="35.4139" height="177.057"/>
   </g>
   <g>
    <polygon class="fil1" points="1014,162 1043,162 1043,339 "/>
   </g>
   <g>
    <path class="fil0" d="M1051 335c0,2 -2,4 -4,4l-44 0c-2,0 -4,-2 -4,-4l0 0c0,-2 2,-3 4,-3l44 0c2,0 4,1 4,3l0 0z"/>
    <rect class="fil0" x="1128" y="162" width="35.4139" height="177.057"/>
   </g>
   <g>
    <polygon class="fil1" points="1128,162 1163,162 1163,339 "/>
   </g>
   <path class="fil0" d="M1170 335c0,2 -1,4 -3,4l-43 0c-2,0 -3,-2 -3,-4l0 0c0,-2 1,-3 3,-3l43 0c2,0 3,1 3,3l0 0z"/>
   <g>
   </g>
   <g>
   </g>
   <g>
   </g>
   <g>
   </g>
   <g>
   </g>
   <g>
   </g>
   <g>
   </g>
   <g>
   </g>
   <g>
   </g>
   <g>
   </g>
   <g>
   </g>
   <g>
   </g>
   <g>
   </g>
   <g>
   </g>
   <g>
   </g>
  </g>
  <rect class="fil5" width="1270" height="423"/>
 </g>
</svg>
