<svg xmlns="http://www.w3.org/2000/svg" xmlns:xlink="http://www.w3.org/1999/xlink" viewBox="0 0 309 53.5" enable-background="new 0 0 309 53.5"><defs><path id="1" d="m3.3 1.8h301.2v50h-301.2z"/><clipPath id="0"><use xlink:href="#1"/></clipPath></defs><path clip-path="url(#0)" fill="#b51f29" d="m265.5 42.1h3.8v-10.8h.1c.8 2.3 2.6 3.3 6.6 3.3h7.2c7.8 0 11-2.5 11-9.7v-4c0-7.7-5-9.5-10.4-9.5h-7.2c-3.3 0-6.4 1.2-7.5 3.9h-.1v-3.6h-3.5v30.4m24.9-16.7c0 5.2-2.6 6.2-7 6.2h-6.7c-4 0-7.3-.9-7.3-6.2v-4.3c0-3.9 1.9-6.5 6.9-6.5h7.5c5.3 0 6.7 2.1 6.7 6.4v4.4zm-35.2 8.9h3.8v-31.8h-3.8v31.8m-34.8-8.8c0 8.3 5.6 9.2 10.6 9.2h6.9c7 0 11.3-1.5 11.3-6.7v-.4h-3.8c-.2 3.4-2.2 4-6.9 4h-5.2c-6.6 0-9.1-1.3-9.1-6.4v-1.4h24.9v-2.5c0-8-4.9-9.7-11.7-9.7h-6.1c-5.4 0-11 .9-11 9.1v4.8zm25-4.8h-21.2c.4-5.1 1.8-6.1 7.7-6.1h5.5c6.2 0 7.9 2.3 7.9 4.6v1.5zm-66.9 13.6h4.3v-14.6h28.8v14.6h4.3v-31.8h-4.3v13.7h-28.8v-13.7h-4.3v31.8"/><g fill="#00305d"><path d="m74.5 34.3h7.1v-13.5h3.7l18 13.5h10.2l-21.5-16.2 21.1-15.6h-11.3l-16.3 12.3h-3.9v-12.3h-7.1z"/><path d="m147.9 42.2c7.6.2 10.4-.4 12.7-5l13.2-25.3h-6.7l-8.3 17-8.4-17h-6.9l10.8 21.5 1.1 2.2c-1.1 2-1.7 2.1-7.5 2.1v4.5"/><path d="m120.2 20.8c0-4.3.9-5 8.1-5 6.5 0 8.1.8 8.1 5h-16.2m-.1 5v-1.4h22.3v-3.2c0-8-4.9-9.7-11.7-9.7h-6.1c-5.4 0-11 .9-11 9.1v4.9c0 8.3 5.6 9.2 10.6 9.2h6.9c7 0 11.3-1.4 11.3-7.3v-.4h-6c0 3.4-1.9 3.7-6.6 3.7h-2.6c-6.6-.1-7.1-1.6-7.1-4.9"/></g><path fill="#b51f29" d="m38.8 43.1c-3.8 0-6.8-3-6.8-6.6 0-3.7 3-6.6 6.8-6.6 3.8 0 6.8 3 6.8 6.6 0 3.7-3.1 6.6-6.8 6.6m12.6-6.6c0-1.9 1.2-3.4 3-4.4-.3-1.1-.8-2.1-1.3-3-2 .5-3.7-.3-5-1.6-1.4-1.3-1.8-2.9-1.3-4.9-1-.5-2-.9-3.1-1.3-1.1 1.8-3 2.9-4.9 2.9-1.9 0-3.9-1.2-4.9-2.9-1.1.3-2.1.7-3.1 1.3.5 2 .1 3.6-1.3 4.9-1.4 1.3-3 2.1-5 1.6-.5 1-1 2-1.3 3 1.8 1 3 2.5 3 4.4s-1.2 3.8-3 4.8c.3 1.1.8 2.1 1.3 3 2-.5 3.7-.1 5 1.2 1.4 1.3 1.8 2.9 1.3 4.9 1 .5 2 .9 3.1 1.3 1.1-1.8 3-2.9 4.9-2.9 1.9 0 3.9 1.2 4.9 2.9 1.1-.3 2.1-.7 3.1-1.3-.5-2-.1-3.6 1.3-4.9s3-2.1 5-1.6c.5-1 1-2 1.3-3-1.8-1-3-2.5-3-4.4"/><g fill="#00305d"><path d="M14.1,45c-8.2,0-8.3-8-8.3-8.3V4.3h32.5c8.2,0,8.3,8,8.3,8.3v3.9h2.5v-3.9c0-3.7-2.3-10.8-10.8-10.8h-35v35
	c0,3.7,2.3,10.8,10.8,10.8h4.3V45H14.1z"/><path d="m299.4 5.9v-1.4h1c.5 0 1 .1 1 .7 0 .7-.5.7-1 .7h-1m-.8 2.8h.8v-2.1h.7l1.2 2.1h.9l-1.3-2.1c.7-.1 1.3-.4 1.3-1.3 0-1-.6-1.4-1.8-1.4h-1.8v4.8m-1.8-2.4c0-1.9 1.5-3.4 3.4-3.4 1.9 0 3.4 1.5 3.4 3.4 0 1.9-1.5 3.4-3.4 3.4-1.8 0-3.4-1.5-3.4-3.4m-.8 0c0 2.3 1.9 4.2 4.2 4.2s4.2-1.9 4.2-4.2c0-2.3-1.9-4.2-4.2-4.2s-4.2 1.8-4.2 4.2"/></g></svg>