<?xml version="1.0" encoding="UTF-8"?>
<!DOCTYPE svg PUBLIC "-//W3C//DTD SVG 1.1//EN" "http://www.w3.org/Graphics/SVG/1.1/DTD/svg11.dtd">
<!-- Creator: CorelDRAW X7 -->
<svg xmlns="http://www.w3.org/2000/svg" xml:space="preserve" width="76.2mm" height="23.7067mm" version="1.1" style="shape-rendering:geometricPrecision; text-rendering:geometricPrecision; image-rendering:optimizeQuality; fill-rule:evenodd; clip-rule:evenodd"
viewBox="0 0 36503 11357"
 xmlns:xlink="http://www.w3.org/1999/xlink">
 <defs>
  <style type="text/css">
   <![CDATA[
    .str0 {stroke:#FEFEFE;stroke-width:191.619}
    .fil0 {fill:none}
    .fil1 {fill:#FEFEFE;fill-rule:nonzero}
   ]]>
  </style>
 </defs>
 <g id="Layer_x0020_1">
  <metadata id="CorelCorpID_0Corel-Layer"/>
  <rect class="fil0" width="36503" height="11357"/>
  <polygon class="fil1" points="5362,10207 5362,9128 5499,9128 5499,10207 "/>
  <path id="1" class="fil1" d="M6424 10207l-133 0 0 -444c0,-85 -13,-147 -39,-186 -26,-38 -65,-57 -118,-57 -27,0 -55,5 -82,16 -27,10 -53,25 -77,43 -25,18 -46,40 -64,65 -18,26 -32,53 -41,84l0 479 -134 0 0 -794 122 0 0 170c31,-55 76,-100 136,-133 59,-34 123,-50 193,-50 46,0 84,8 114,25 31,16 55,40 73,70 19,29 31,65 39,105 8,41 11,85 11,132l0 475z"/>
  <path id="2" class="fil1" d="M7035 10167c-8,4 -18,9 -31,15 -14,5 -29,11 -45,16 -17,6 -35,10 -55,14 -20,3 -40,5 -62,5 -48,0 -90,-13 -126,-40 -35,-27 -53,-69 -53,-125l0 -534 -108 0 0 -105 108 0 0 -264 134 0 0 264 178 0 0 105 -178 0 0 493c2,29 11,50 29,63 17,14 37,20 60,20 27,0 51,-4 73,-13 21,-8 36,-15 45,-20l31 106z"/>
  <path id="3" class="fil1" d="M7500 10222c-59,0 -114,-11 -164,-33 -49,-22 -92,-51 -127,-89 -36,-37 -63,-81 -83,-131 -20,-50 -30,-103 -30,-159 0,-56 10,-108 30,-158 20,-50 47,-93 83,-131 36,-37 79,-67 129,-89 49,-22 104,-32 164,-32 60,0 114,11 163,33 49,22 91,52 126,89 34,37 61,80 79,129 19,49 29,100 29,153 0,11 -1,21 -1,30 -1,9 -1,16 -2,22l-658 0c3,39 12,75 27,107 15,33 35,61 59,84 24,23 52,42 83,55 31,13 64,19 98,19 24,0 48,-3 71,-9 24,-7 46,-16 66,-27 20,-11 38,-25 54,-41 15,-16 27,-35 35,-55l116 32c-13,30 -31,56 -54,81 -23,24 -49,45 -79,63 -30,18 -63,31 -100,42 -36,10 -74,15 -114,15zm272 -465c-3,-38 -12,-72 -28,-104 -15,-32 -35,-59 -59,-82 -24,-22 -51,-39 -83,-52 -31,-13 -65,-19 -100,-19 -35,0 -69,6 -100,19 -32,13 -59,30 -83,53 -24,23 -43,50 -58,81 -15,32 -23,66 -26,104l537 0z"/>
  <path id="4" class="fil1" d="M8051 9097l133 0 0 904c0,30 8,53 24,70 16,16 38,25 66,25 11,0 24,-2 40,-6 15,-3 29,-8 42,-13l21 108c-22,9 -48,17 -79,23 -30,6 -57,9 -80,9 -52,0 -93,-15 -123,-44 -29,-29 -44,-70 -44,-123l0 -953z"/>
  <path id="5" class="fil1" d="M8485 9097l134 0 0 904c0,30 8,53 24,70 15,16 37,25 66,25 11,0 24,-2 39,-6 15,-3 30,-8 43,-13l21 108c-22,9 -49,17 -79,23 -30,6 -57,9 -81,9 -51,0 -92,-15 -122,-44 -30,-29 -45,-70 -45,-123l0 -953z"/>
  <path id="6" class="fil1" d="M8917 10207l0 -794 134 0 0 794 -134 0zm0 -943l0 -167 134 0 0 167 -134 0z"/>
  <path id="7" class="fil1" d="M9583 10216c-54,0 -104,-11 -149,-34 -45,-22 -83,-52 -116,-89 -32,-38 -57,-81 -75,-130 -18,-48 -27,-99 -27,-152 0,-55 9,-108 27,-158 18,-51 43,-94 75,-132 33,-37 71,-67 116,-89 45,-22 95,-32 150,-32 67,0 125,16 173,48 49,33 90,74 123,123l0 -158 119 0 0 784c0,57 -11,107 -32,150 -21,43 -50,79 -87,109 -36,29 -79,51 -128,67 -49,15 -102,22 -157,22 -91,0 -164,-15 -220,-46 -56,-31 -103,-74 -141,-128l78 -69c31,47 72,82 122,105 49,23 103,35 161,35 36,0 71,-5 104,-15 33,-10 61,-25 86,-46 24,-20 43,-45 58,-76 15,-30 22,-66 22,-108l0 -139c-15,24 -33,46 -54,66 -21,19 -43,36 -67,50 -25,14 -51,24 -78,31 -27,7 -55,11 -83,11zm41 -110c28,0 55,-5 82,-15 26,-10 50,-24 73,-40 22,-17 41,-36 56,-57 15,-21 25,-43 30,-66l0 -228c-11,-27 -25,-52 -43,-74 -18,-22 -38,-42 -60,-58 -22,-17 -47,-30 -72,-39 -26,-9 -52,-14 -79,-14 -40,0 -76,9 -108,26 -32,17 -59,40 -82,68 -22,29 -39,61 -51,97 -12,36 -18,72 -18,108 0,40 7,77 21,113 14,35 33,66 58,93 24,26 52,47 85,63 33,15 69,23 108,23z"/>
  <path id="8" class="fil1" d="M10566 10222c-60,0 -115,-11 -164,-33 -50,-22 -93,-51 -128,-89 -35,-37 -63,-81 -83,-131 -20,-50 -29,-103 -29,-159 0,-56 9,-108 29,-158 20,-50 48,-93 84,-131 36,-37 79,-67 128,-89 50,-22 105,-32 164,-32 60,0 115,11 164,33 49,22 91,52 125,89 34,37 61,80 80,129 19,49 28,100 28,153 0,11 0,21 -1,30 0,9 -1,16 -2,22l-658 0c3,39 12,75 27,107 15,33 35,61 60,84 24,23 51,42 82,55 31,13 64,19 98,19 25,0 48,-3 72,-9 23,-7 45,-16 65,-27 20,-11 38,-25 54,-41 16,-16 28,-35 36,-55l115 32c-13,30 -31,56 -54,81 -22,24 -49,45 -79,63 -30,18 -63,31 -99,42 -37,10 -75,15 -114,15zm272 -465c-3,-38 -13,-72 -28,-104 -16,-32 -36,-59 -60,-82 -23,-22 -51,-39 -82,-52 -32,-13 -65,-19 -101,-19 -35,0 -69,6 -100,19 -31,13 -59,30 -83,53 -24,23 -43,50 -58,81 -14,32 -23,66 -26,104l538 0z"/>
  <path id="9" class="fil1" d="M11801 10207l-133 0 0 -444c0,-85 -13,-147 -39,-186 -26,-38 -65,-57 -118,-57 -27,0 -55,5 -82,16 -27,10 -53,25 -78,43 -24,18 -45,40 -63,65 -19,26 -32,53 -41,84l0 479 -134 0 0 -794 121 0 0 170c32,-55 77,-100 137,-133 59,-34 123,-50 193,-50 46,0 84,8 114,25 31,16 55,40 73,70 18,29 31,65 39,105 8,41 11,85 11,132l0 475z"/>
  <path id="10" class="fil1" d="M12412 10167c-8,4 -18,9 -32,15 -13,5 -28,11 -44,16 -17,6 -35,10 -55,14 -20,3 -40,5 -62,5 -48,0 -90,-13 -126,-40 -35,-27 -53,-69 -53,-125l0 -534 -108 0 0 -105 108 0 0 -264 134 0 0 264 177 0 0 105 -177 0 0 493c2,29 11,50 29,63 17,14 37,20 60,20 27,0 51,-4 73,-13 21,-8 36,-15 44,-20l32 106z"/>
  <polygon id="11" class="fil1" points="13285,9134 13414,9134 13557,9509 13701,9134 13830,9134 13643,9603 13829,10049 14193,9128 14342,9128 13891,10207 13772,10207 13558,9697 13342,10207 13224,10207 12774,9128 12921,9128 13288,10049 13472,9603 "/>
  <path id="12" class="fil1" d="M14710 10222c-60,0 -114,-11 -164,-33 -50,-22 -92,-51 -128,-89 -35,-37 -63,-81 -82,-131 -20,-50 -30,-103 -30,-159 0,-56 10,-108 30,-158 19,-50 47,-93 83,-131 36,-37 79,-67 128,-89 50,-22 105,-32 165,-32 59,0 114,11 163,33 49,22 91,52 125,89 35,37 61,80 80,129 19,49 28,100 28,153 0,11 0,21 -1,30 0,9 -1,16 -2,22l-658 0c3,39 12,75 28,107 15,33 35,61 59,84 24,23 52,42 83,55 31,13 63,19 98,19 24,0 48,-3 71,-9 23,-7 45,-16 65,-27 21,-11 39,-25 54,-41 16,-16 28,-35 36,-55l116 32c-14,30 -32,56 -54,81 -23,24 -49,45 -79,63 -30,18 -63,31 -100,42 -36,10 -74,15 -114,15zm272 -465c-3,-38 -12,-72 -28,-104 -16,-32 -35,-59 -59,-82 -24,-22 -52,-39 -83,-52 -31,-13 -65,-19 -100,-19 -36,0 -69,6 -101,19 -31,13 -59,30 -82,53 -24,23 -44,50 -58,81 -15,32 -24,66 -27,104l538 0z"/>
  <path id="13" class="fil1" d="M15664 10222c-61,0 -118,-15 -168,-46 -51,-30 -91,-70 -120,-118l0 149 -119 0 0 -1110 134 0 0 474c33,-51 74,-93 123,-124 49,-32 105,-47 170,-47 55,0 104,11 148,35 43,23 80,53 111,92 31,37 55,82 72,132 17,50 25,101 25,154 0,56 -10,108 -29,158 -19,50 -46,93 -79,130 -33,37 -73,66 -119,88 -46,22 -96,33 -149,33zm-33 -116c40,0 76,-8 110,-24 33,-16 62,-38 86,-65 24,-28 43,-59 56,-94 14,-35 20,-72 20,-110 0,-39 -6,-76 -19,-112 -13,-36 -30,-67 -53,-95 -23,-27 -50,-49 -82,-66 -32,-17 -67,-25 -106,-25 -28,0 -55,5 -80,15 -26,10 -49,24 -71,41 -22,16 -41,36 -58,58 -16,22 -31,46 -43,71l0 230c5,25 16,49 33,70 16,21 36,40 59,55 23,16 47,28 73,38 26,9 51,13 75,13z"/>
  <path id="14" class="fil1" d="M17243 9354c-12,-14 -28,-28 -48,-41 -20,-13 -43,-25 -69,-36 -25,-10 -52,-19 -82,-26 -30,-6 -61,-9 -94,-9 -84,0 -145,15 -184,47 -39,31 -59,74 -59,129 0,29 6,54 17,73 11,19 28,36 52,49 24,14 54,26 89,36 36,10 78,21 126,32 56,12 106,26 151,42 46,15 84,35 116,58 32,23 56,52 73,85 17,34 25,75 25,123 0,52 -10,97 -30,135 -21,38 -48,69 -83,94 -35,25 -77,43 -124,55 -48,11 -99,17 -155,17 -83,0 -162,-13 -236,-39 -75,-25 -143,-63 -203,-113l65 -115c16,17 37,34 63,51 26,18 55,33 88,47 33,13 69,25 107,33 38,9 77,13 119,13 77,0 137,-14 179,-41 43,-27 64,-68 64,-123 0,-30 -7,-56 -20,-77 -14,-21 -34,-39 -60,-54 -27,-15 -60,-28 -99,-40 -39,-12 -83,-24 -132,-36 -55,-13 -103,-27 -145,-42 -41,-15 -76,-34 -104,-55 -28,-21 -49,-47 -63,-77 -14,-31 -21,-67 -21,-110 0,-52 9,-97 29,-137 19,-39 46,-73 80,-100 35,-27 76,-48 123,-62 48,-13 100,-20 155,-20 73,0 139,11 198,33 59,23 111,53 156,90l-64 111z"/>
  <path id="15" class="fil1" d="M17860 10222c-59,0 -114,-11 -163,-34 -49,-22 -91,-52 -126,-89 -35,-38 -62,-81 -81,-131 -20,-50 -29,-102 -29,-157 0,-55 10,-108 29,-158 20,-49 48,-93 83,-130 34,-38 77,-68 126,-90 49,-22 103,-33 161,-33 59,0 113,11 163,33 50,22 92,52 127,90 35,37 62,81 82,130 20,50 30,103 30,158 0,55 -10,107 -29,157 -19,50 -47,93 -82,131 -36,37 -78,67 -127,89 -49,23 -104,34 -164,34zm-262 -409c0,42 6,80 20,115 14,36 33,67 56,93 24,27 52,47 84,62 32,16 66,23 102,23 37,0 71,-7 103,-23 32,-15 60,-36 84,-63 25,-26 44,-58 57,-94 14,-36 21,-75 21,-116 0,-41 -7,-79 -21,-115 -13,-36 -32,-67 -57,-94 -24,-27 -52,-48 -84,-63 -32,-15 -66,-23 -103,-23 -36,0 -70,8 -102,24 -32,15 -60,37 -84,63 -23,27 -42,59 -56,95 -14,36 -20,74 -20,116z"/>
  <path id="16" class="fil1" d="M18427 9097l134 0 0 904c0,30 8,53 24,70 15,16 37,25 66,25 11,0 24,-2 39,-6 15,-3 30,-8 43,-13l21 108c-22,9 -49,17 -79,23 -30,6 -57,9 -80,9 -52,0 -93,-15 -123,-44 -30,-29 -45,-70 -45,-123l0 -953z"/>
  <path id="17" class="fil1" d="M19104 10222c-83,0 -146,-28 -189,-84 -42,-56 -64,-139 -64,-249l0 -476 134 0 0 450c0,162 56,243 169,243 55,0 106,-17 154,-52 48,-35 84,-83 107,-144l0 -497 134 0 0 629c0,32 14,48 42,49l0 116c-15,2 -27,3 -35,3 -9,1 -17,1 -25,1 -27,0 -49,-8 -66,-23 -18,-16 -27,-36 -29,-59l-3 -93c-35,60 -82,106 -139,138 -58,32 -121,48 -190,48z"/>
  <path id="18" class="fil1" d="M20183 10167c-8,4 -19,9 -32,15 -13,5 -28,11 -45,16 -17,6 -35,10 -55,14 -20,3 -40,5 -61,5 -49,0 -91,-13 -126,-40 -36,-27 -54,-69 -54,-125l0 -534 -108 0 0 -105 108 0 0 -264 134 0 0 264 178 0 0 105 -178 0 0 493c2,29 12,50 29,63 17,14 37,20 61,20 26,0 50,-4 72,-13 22,-8 37,-15 45,-20l32 106z"/>
  <path id="19" class="fil1" d="M20307 10207l0 -794 134 0 0 794 -134 0zm0 -943l0 -167 134 0 0 167 -134 0z"/>
  <path id="20" class="fil1" d="M21003 10222c-59,0 -114,-11 -163,-34 -49,-22 -91,-52 -126,-89 -35,-38 -62,-81 -81,-131 -20,-50 -29,-102 -29,-157 0,-55 10,-108 29,-158 20,-49 47,-93 82,-130 35,-38 77,-68 126,-90 50,-22 104,-33 162,-33 59,0 113,11 163,33 50,22 92,52 127,90 35,37 62,81 82,130 20,50 30,103 30,158 0,55 -10,107 -29,157 -20,50 -47,93 -82,131 -36,37 -78,67 -127,89 -49,23 -104,34 -164,34zm-263 -409c0,42 7,80 21,115 14,36 32,67 56,93 24,27 52,47 84,62 32,16 66,23 102,23 37,0 71,-7 103,-23 32,-15 60,-36 84,-63 25,-26 44,-58 57,-94 14,-36 21,-75 21,-116 0,-41 -7,-79 -21,-115 -13,-36 -32,-67 -57,-94 -24,-27 -52,-48 -84,-63 -32,-15 -66,-23 -103,-23 -36,0 -70,8 -102,24 -32,15 -60,37 -84,63 -24,27 -42,59 -56,95 -14,36 -21,74 -21,116z"/>
  <path id="21" class="fil1" d="M22256 10207l-134 0 0 -444c0,-85 -13,-147 -39,-186 -26,-38 -65,-57 -118,-57 -27,0 -54,5 -82,16 -27,10 -53,25 -77,43 -25,18 -46,40 -64,65 -18,26 -32,53 -41,84l0 479 -134 0 0 -794 122 0 0 170c31,-55 76,-100 136,-133 59,-34 124,-50 194,-50 45,0 83,8 114,25 30,16 54,40 72,70 19,29 32,65 39,105 8,41 12,85 12,132l0 475z"/>
  <path id="22" class="fil1" d="M22742 10222c-64,0 -127,-10 -189,-30 -61,-20 -115,-48 -159,-86l58 -89c46,35 93,62 139,79 47,18 96,27 148,27 58,0 103,-11 137,-34 34,-23 51,-55 51,-97 0,-19 -4,-35 -13,-49 -9,-14 -23,-26 -41,-36 -19,-10 -42,-19 -70,-27 -29,-8 -62,-17 -99,-26 -48,-12 -89,-24 -123,-35 -35,-11 -63,-24 -85,-39 -23,-16 -39,-34 -49,-55 -10,-21 -15,-48 -15,-79 0,-40 8,-75 23,-106 16,-31 38,-57 65,-77 27,-21 60,-37 97,-47 37,-11 76,-16 119,-16 60,0 115,9 167,28 52,20 95,45 131,76l-61 81c-34,-29 -71,-51 -113,-66 -41,-15 -84,-22 -127,-22 -49,0 -90,10 -124,31 -34,21 -51,54 -51,100 0,18 3,33 10,45 6,12 17,23 33,32 15,9 34,17 58,24 24,7 52,15 86,23 53,12 98,25 137,37 40,13 72,28 98,45 26,17 45,38 57,61 13,23 20,52 20,85 0,74 -29,133 -86,176 -56,44 -133,66 -229,66z"/>
  <path id="23" class="fil1" d="M23901 9128l116 0 441 1079 -146 0 -128 -317 -453 0 -126 317 -146 0 442 -1079zm253 656l-195 -498 -200 498 395 0z"/>
  <path id="24" class="fil1" d="M24809 10222c-83,0 -146,-28 -189,-84 -42,-56 -64,-139 -64,-249l0 -476 134 0 0 450c0,162 56,243 169,243 55,0 106,-17 154,-52 48,-35 84,-83 107,-144l0 -497 134 0 0 629c0,32 14,48 43,49l0 116c-16,2 -27,3 -36,3 -9,1 -17,1 -25,1 -27,0 -49,-8 -66,-23 -18,-16 -27,-36 -28,-59l-3 -93c-36,60 -83,106 -140,138 -58,32 -121,48 -190,48z"/>
  <path id="25" class="fil1" d="M25888 10167c-8,4 -19,9 -32,15 -13,5 -28,11 -45,16 -17,6 -35,10 -55,14 -19,3 -40,5 -61,5 -49,0 -91,-13 -126,-40 -36,-27 -54,-69 -54,-125l0 -534 -107 0 0 -105 107 0 0 -264 134 0 0 264 178 0 0 105 -178 0 0 493c2,29 12,50 29,63 17,14 37,20 61,20 26,0 50,-4 72,-13 22,-8 37,-15 45,-20l32 106z"/>
  <path id="26" class="fil1" d="M26348 10222c-60,0 -114,-11 -163,-34 -49,-22 -91,-52 -126,-89 -35,-38 -62,-81 -82,-131 -19,-50 -28,-102 -28,-157 0,-55 9,-108 29,-158 20,-49 47,-93 82,-130 35,-38 77,-68 126,-90 50,-22 103,-33 162,-33 59,0 113,11 163,33 49,22 92,52 127,90 35,37 62,81 82,130 20,50 29,103 29,158 0,55 -9,107 -28,157 -20,50 -47,93 -82,131 -36,37 -78,67 -127,89 -50,23 -104,34 -164,34zm-263 -409c0,42 7,80 21,115 14,36 32,67 56,93 24,27 52,47 84,62 32,16 66,23 102,23 37,0 71,-7 103,-23 32,-15 60,-36 84,-63 24,-26 44,-58 57,-94 14,-36 21,-75 21,-116 0,-41 -7,-79 -21,-115 -13,-36 -33,-67 -57,-94 -24,-27 -52,-48 -84,-63 -32,-15 -66,-23 -103,-23 -36,0 -70,8 -102,24 -32,15 -60,37 -84,63 -24,27 -42,59 -56,95 -14,36 -21,74 -21,116z"/>
  <path id="27" class="fil1" d="M28108 10207l-134 0 0 -444c0,-83 -13,-145 -40,-184 -27,-40 -67,-59 -119,-59 -55,0 -104,19 -147,58 -43,39 -74,90 -92,151l0 478 -134 0 0 -444c0,-85 -13,-147 -39,-186 -26,-38 -66,-57 -119,-57 -53,0 -102,19 -145,57 -44,38 -75,88 -93,151l0 479 -134 0 0 -794 122 0 0 170c32,-58 74,-104 126,-136 51,-31 110,-47 175,-47 66,0 119,18 158,54 39,36 63,82 73,139 70,-129 171,-193 302,-193 46,0 84,8 115,25 31,16 55,40 73,70 19,29 32,65 40,105 8,41 12,85 12,132l0 475z"/>
  <path id="28" class="fil1" d="M28520 10222c-38,0 -72,-7 -105,-19 -32,-13 -60,-30 -84,-53 -24,-22 -43,-48 -56,-78 -14,-30 -21,-63 -21,-98 0,-36 8,-70 24,-100 17,-29 40,-55 69,-76 30,-22 66,-38 107,-50 41,-13 86,-19 134,-19 39,0 78,4 117,11 40,7 75,17 105,29l0 -64c0,-65 -18,-116 -54,-153 -37,-37 -89,-55 -155,-55 -81,0 -165,31 -253,93l-44 -87c102,-69 205,-103 309,-103 104,0 185,27 244,83 58,56 87,134 87,236l0 323c0,32 14,48 43,49l0 116c-15,2 -26,3 -35,4 -10,1 -19,2 -29,2 -27,0 -48,-8 -63,-24 -16,-16 -25,-35 -28,-57l-4 -56c-35,47 -80,84 -134,109 -54,24 -112,37 -174,37zm35 -101c48,0 92,-8 133,-26 41,-18 72,-41 93,-71 20,-19 29,-39 29,-59l0 -117c-65,-25 -132,-38 -202,-38 -67,0 -121,14 -163,42 -42,29 -63,66 -63,111 0,23 4,43 13,63 8,19 20,36 36,50 16,14 34,25 55,33 22,8 45,12 69,12z"/>
  <path id="29" class="fil1" d="M29562 10167c-8,4 -18,9 -31,15 -14,5 -29,11 -45,16 -17,6 -35,10 -55,14 -20,3 -40,5 -62,5 -48,0 -90,-13 -126,-40 -35,-27 -53,-69 -53,-125l0 -534 -108 0 0 -105 108 0 0 -264 134 0 0 264 178 0 0 105 -178 0 0 493c2,29 12,50 29,63 17,14 37,20 61,20 26,0 50,-4 72,-13 22,-8 36,-15 45,-20l31 106z"/>
  <path id="30" class="fil1" d="M29687 10207l0 -794 134 0 0 794 -134 0zm0 -943l0 -167 134 0 0 167 -134 0z"/>
  <path id="31" class="fil1" d="M30383 10222c-60,0 -114,-11 -163,-34 -49,-22 -91,-52 -126,-89 -35,-38 -62,-81 -82,-131 -19,-50 -29,-102 -29,-157 0,-55 10,-108 30,-158 20,-49 47,-93 82,-130 35,-38 77,-68 126,-90 49,-22 103,-33 162,-33 59,0 113,11 163,33 49,22 92,52 127,90 35,37 62,81 82,130 19,50 29,103 29,158 0,55 -9,107 -29,157 -19,50 -46,93 -82,131 -35,37 -77,67 -126,89 -50,23 -104,34 -164,34zm-263 -409c0,42 7,80 21,115 13,36 32,67 56,93 24,27 52,47 84,62 31,16 66,23 102,23 37,0 71,-7 103,-23 32,-15 60,-36 84,-63 24,-26 43,-58 57,-94 14,-36 21,-75 21,-116 0,-41 -7,-79 -21,-115 -14,-36 -33,-67 -57,-94 -24,-27 -52,-48 -84,-63 -32,-15 -66,-23 -103,-23 -36,0 -71,8 -102,24 -32,15 -60,37 -84,63 -24,27 -43,59 -56,95 -14,36 -21,74 -21,116z"/>
  <path id="32" class="fil1" d="M31635 10207l-133 0 0 -444c0,-85 -13,-147 -39,-186 -26,-38 -65,-57 -118,-57 -27,0 -55,5 -82,16 -27,10 -53,25 -77,43 -25,18 -46,40 -64,65 -18,26 -32,53 -41,84l0 479 -134 0 0 -794 122 0 0 170c31,-55 76,-100 136,-133 59,-34 123,-50 193,-50 46,0 84,8 114,25 31,16 55,40 73,70 19,29 31,65 39,105 8,41 11,85 11,132l0 475z"/>
  <g id="_2111696544272">
   <path class="fil1 str0" d="M28566 4871l1698 0c155,0 296,-33 423,-101 127,-67 235,-157 325,-269 90,-112 160,-242 210,-389 50,-147 74,-300 74,-460 0,-165 -28,-321 -86,-468 -57,-147 -134,-275 -232,-385 -97,-110 -211,-196 -344,-258 -132,-62 -270,-94 -415,-94l-1653 0 -3 0 -524 0 3 -463 2200 0c229,0 440,48 632,145 192,98 358,225 497,382 140,157 250,335 329,535 80,199 120,401 120,606 0,219 -37,430 -112,632 -75,202 -180,380 -314,535 -135,155 -296,279 -483,374 -187,95 -395,142 -625,142l-1720 0 0 1960 -524 0 0 -2423 524 0 0 -1z"/>
   <path class="fil1 str0" d="M22691 4602c0,-319 56,-637 169,-954 112,-317 275,-600 490,-849 214,-249 478,-453 793,-610 314,-157 671,-235 1070,-235 473,0 879,107 1215,321 337,215 585,494 745,838l-412 255c-85,-175 -188,-322 -310,-442 -123,-119 -253,-217 -393,-292 -140,-74 -284,-128 -434,-160 -150,-33 -297,-49 -441,-49 -320,0 -601,65 -846,195 -244,129 -450,299 -617,508 -167,210 -293,445 -378,707 -85,262 -127,528 -127,797 0,294 51,576 153,845 103,270 242,508 419,715 177,207 387,372 629,494 242,122 505,183 789,183 150,0 303,-19 460,-56 157,-38 309,-97 457,-180 147,-82 283,-184 407,-306 125,-123 230,-271 314,-446l434 225c-84,199 -204,375 -359,527 -154,152 -326,281 -516,386 -189,104 -390,184 -602,239 -212,55 -420,82 -625,82 -364,0 -698,-79 -1002,-239 -305,-160 -567,-368 -786,-625 -219,-257 -390,-548 -512,-875 -123,-327 -184,-660 -184,-999z"/>
   <polygon class="fil1 str0" points="18588,4860 18588,4419 19176,4419 20150,4419 22090,4419 22090,4860 20299,4860 19176,4860 "/>
   <polygon class="fil1 str0" points="18588,2447 18588,1984 22090,1984 22090,2447 19980,2447 19112,2447 "/>
   <polygon class="fil1 str0" points="22157,6832 22157,7295 18588,7295 18588,6832 19112,6832 20112,6832 "/>
   <path class="fil1 str0" d="M17429 2979c-150,-170 -349,-307 -599,-412 -249,-105 -533,-157 -853,-157 -468,0 -810,89 -1025,266 -214,177 -321,417 -321,722 0,159 28,290 86,392 57,103 146,191 265,266 120,75 273,140 460,194 187,55 408,110 663,165 284,60 539,127 766,202 227,75 421,168 580,281 160,112 282,248 367,407 85,160 127,359 127,599 0,244 -47,456 -142,636 -95,179 -227,329 -397,449 -169,119 -371,208 -606,265 -234,58 -491,86 -770,86 -823,0 -1534,-257 -2132,-770l261 -427c95,100 209,195 341,285 132,89 279,168 441,235 162,68 336,120 520,157 185,38 379,56 584,56 424,0 754,-76 991,-228 237,-152 355,-383 355,-692 0,-164 -33,-303 -101,-415 -67,-112 -168,-209 -303,-292 -134,-82 -301,-153 -501,-213 -199,-60 -431,-120 -696,-180 -279,-64 -523,-132 -733,-202 -209,-69 -386,-157 -531,-261 -145,-105 -253,-231 -325,-378 -73,-147 -109,-328 -109,-543 0,-244 46,-462 138,-654 93,-192 224,-352 393,-479 170,-127 369,-224 599,-292 229,-67 484,-101 763,-101 354,0 669,54 946,161 277,107 528,258 752,453l-254 419z"/>
   <polygon class="fil1 str0" points="12602,7295 12602,1984 13125,1984 13125,7295 "/>
   <polygon class="fil1 str0" points="6797,1994 7293,1994 8045,3889 8804,1994 9308,1994 8376,4273 9398,6686 11331,1957 11902,1957 9639,7295 9173,7295 8052,4656 6924,7295 6466,7295 4210,1957 4774,1957 6714,6686 7729,4273 "/>
  </g>
 </g>
</svg>
