<?xml version="1.0" encoding="UTF-8"?>
<!DOCTYPE svg PUBLIC "-//W3C//DTD SVG 1.1//EN" "http://www.w3.org/Graphics/SVG/1.1/DTD/svg11.dtd">
<!-- Creator: CorelDRAW X7 -->
<svg xmlns="http://www.w3.org/2000/svg" xml:space="preserve" width="57.7606mm" height="18.0404mm" version="1.1" style="shape-rendering:geometricPrecision; text-rendering:geometricPrecision; image-rendering:optimizeQuality; fill-rule:evenodd; clip-rule:evenodd"
viewBox="0 0 2077389 648832"
 xmlns:xlink="http://www.w3.org/1999/xlink">
 <defs>
  <style type="text/css">
   <![CDATA[
    .str0 {stroke:#4C6470;stroke-width:8991.38}
    .fil0 {fill:#4C6470;fill-rule:nonzero}
   ]]>
  </style>
 </defs>
 <g id="Layer_x0020_1">
  <metadata id="CorelCorpID_0Corel-Layer"/>
  <g id="_2127589775632">
   <polygon class="fil0" points="12135,621531 12135,534609 18378,534609 18378,621531 "/>
   <path id="1" class="fil0" d="M91342 621531l-6122 0 0 -35502c0,-8243 -1165,-14242 -3488,-17997 -2327,-3755 -6021,-5632 -11081,-5632 -2694,0 -5366,489 -8021,1471 -2650,978 -5118,2366 -7405,4161 -2284,1795 -4283,3899 -5999,6305 -1712,2406 -2978,4999 -3794,7772l0 39422 -6122 0 0 -63659 5755 0 0 15181c1305,-2449 2917,-4676 4834,-6675 1920,-2000 4082,-3712 6488,-5140 2409,-1428 4959,-2532 7653,-3305 2694,-777 5467,-1165 8326,-1165 6934,0 11833,2427 14689,7286 2855,4856 4287,11811 4287,20871l0 36606z"/>
   <path id="2" class="fil0" d="M137615 618470c-327,162 -878,471 -1651,917 -777,450 -1755,878 -2938,1288 -1184,406 -2511,773 -3982,1100 -1467,328 -3060,489 -4772,489 -1716,0 -3327,-244 -4838,-733 -1510,-489 -2834,-1223 -3978,-2205 -1143,-978 -2039,-2162 -2693,-3550 -651,-1388 -979,-3017 -979,-4895l0 -47992 -8937 0 0 -5017 8937 0 0 -21792 6122 0 0 21792 14814 0 0 5017 -14814 0 0 46521c0,2367 816,4144 2449,5327 1629,1183 3467,1773 5506,1773 2532,0 4715,-428 6550,-1284 1837,-856 2960,-1406 3370,-1654l1834 4898z"/>
   <path id="3" class="fil0" d="M173854 622753c-4489,0 -8654,-877 -12488,-2629 -3837,-1755 -7164,-4164 -9976,-7225 -2817,-3061 -5021,-6589 -6614,-10588 -1590,-4000 -2385,-8283 -2385,-12854 0,-4489 795,-8715 2385,-12671 1593,-3960 3776,-7427 6549,-10408 2776,-2978 6060,-5323 9858,-7039 3794,-1712 7894,-2571 12304,-2571 4488,0 8650,877 12487,2632 3834,1755 7139,4122 9916,7100 2773,2981 4938,6448 6488,10408 1550,3956 2323,8139 2323,12549 0,406 0,917 0,1528 0,612 -39,1000 -122,1165l-55822 0c244,3673 1100,7078 2568,10222 1471,3143 3327,5855 5571,8139 2244,2287 4837,4082 7776,5387 2938,1306 6078,1961 9426,1961 2201,0 4366,-306 6488,-918 2122,-615 4100,-1449 5938,-2510 1835,-1061 3467,-2348 4895,-3855 1428,-1511 2550,-3165 3367,-4960l5387 1467c-899,2288 -2222,4388 -3978,6305 -1755,1921 -3794,3571 -6121,4960 -2327,1388 -4877,2467 -7653,3244 -2773,777 -5629,1161 -8567,1161zm24974 -35501c-244,-3755 -1082,-7182 -2510,-10283 -1428,-3103 -3266,-5776 -5510,-8020 -2244,-2244 -4834,-3999 -7772,-5262 -2939,-1266 -6082,-1899 -9427,-1899 -3348,0 -6488,633 -9426,1899 -2939,1263 -5532,3018 -7776,5262 -2244,2244 -4039,4938 -5388,8082 -1345,3139 -2140,6549 -2384,10221l50193 0z"/>
   <path id="4" class="fil0" d="M218659 532164l6244 0 0 76757c0,2367 673,4244 2021,5632 1345,1389 3205,2079 5571,2079 896,0 1979,-101 3244,-306 1263,-201 2428,-507 3489,-917l1223 4899c-1388,568 -3100,1039 -5139,1406 -2043,367 -3798,550 -5266,550 -3427,0 -6182,-1039 -8265,-3121 -2079,-2079 -3122,-4877 -3122,-8384l0 -78595z"/>
   <path id="5" class="fil0" d="M250367 532164l6243 0 0 76757c0,2367 673,4244 2022,5632 1345,1389 3204,2079 5571,2079 895,0 1978,-101 3244,-306 1262,-201 2427,-507 3488,-917l1223 4899c-1388,568 -3100,1039 -5139,1406 -2043,367 -3798,550 -5266,550 -3427,0 -6182,-1039 -8265,-3121 -2078,-2079 -3121,-4877 -3121,-8384l0 -78595z"/>
   <path id="6" class="fil0" d="M281585 621531l0 -63659 6121 0 0 63659 -6121 0zm0 -78107l0 -11260 6121 0 0 11260 -6121 0z"/>
   <path id="7" class="fil0" d="M332634 622509c-4406,0 -8445,-917 -12120,-2755 -3672,-1834 -6834,-4284 -9488,-7344 -2651,-3061 -4733,-6549 -6244,-10466 -1506,-3917 -2262,-7959 -2262,-12121 0,-4326 712,-8487 2140,-12487 1428,-3999 3449,-7527 6060,-10588 2611,-3061 5733,-5492 9366,-7287 3632,-1794 7653,-2693 12059,-2693 5550,0 10387,1449 14509,4348 4121,2895 7610,6427 10465,10588l0 -13832 5633 0 0 64881c0,4327 -817,8122 -2450,11387 -1632,3266 -3816,5978 -6549,8143 -2733,2161 -5916,3794 -9549,4895 -3632,1104 -7448,1654 -11448,1654 -3672,0 -6977,-349 -9915,-1043 -2939,-694 -5528,-1672 -7772,-2938 -2245,-1263 -4244,-2813 -5999,-4651 -1756,-1837 -3288,-3855 -4593,-6060l4165 -2816c2528,4327 5955,7488 10282,9488 4327,1999 8938,2999 13832,2999 3266,0 6348,-449 9244,-1345 2898,-899 5427,-2226 7592,-3981 2161,-1752 3877,-3938 5139,-6550 1266,-2611 1899,-5671 1899,-9182l0 -13954c-2611,4161 -6081,7488 -10404,9977 -4327,2489 -8859,3733 -13592,3733zm1471 -5262c2694,0 5323,-511 7895,-1532 2571,-1021 4898,-2345 6977,-3978 2082,-1633 3798,-3470 5143,-5510 1349,-2039 2183,-4082 2510,-6121l0 -20932c-978,-2449 -2287,-4715 -3916,-6797 -1633,-2079 -3489,-3856 -5571,-5323 -2083,-1471 -4327,-2633 -6733,-3489 -2410,-860 -4837,-1287 -7287,-1287 -3834,0 -7261,816 -10282,2449 -3021,1633 -5571,3755 -7650,6366 -2083,2611 -3672,5571 -4776,8876 -1101,3305 -1651,6632 -1651,9977 0,3672 651,7143 1956,10405 1306,3265 3104,6164 5388,8692 2284,2529 4978,4529 8081,5999 3101,1468 6406,2205 9916,2205z"/>
   <path id="8" class="fil0" d="M408906 622753c-4488,0 -8653,-877 -12487,-2629 -3838,-1755 -7164,-4164 -9977,-7225 -2816,-3061 -5021,-6589 -6614,-10588 -1590,-4000 -2384,-8283 -2384,-12854 0,-4489 794,-8715 2384,-12671 1593,-3960 3776,-7427 6549,-10408 2777,-2978 6061,-5323 9859,-7039 3794,-1712 7894,-2571 12303,-2571 4489,0 8650,877 12488,2632 3834,1755 7139,4122 9915,7100 2773,2981 4938,6448 6488,10408 1551,3956 2324,8139 2324,12549 0,406 0,917 0,1528 0,612 -40,1000 -122,1165l-55823 0c245,3673 1101,7078 2568,10222 1471,3143 3327,5855 5571,8139 2245,2287 4838,4082 7776,5387 2939,1306 6078,1961 9427,1961 2201,0 4366,-306 6488,-918 2122,-615 4100,-1449 5938,-2510 1834,-1061 3467,-2348 4895,-3855 1428,-1511 2550,-3165 3366,-4960l5388 1467c-899,2288 -2223,4388 -3978,6305 -1755,1921 -3794,3571 -6121,4960 -2327,1388 -4877,2467 -7654,3244 -2773,777 -5628,1161 -8567,1161zm24975 -35501c-245,-3755 -1083,-7182 -2511,-10283 -1428,-3103 -3265,-5776 -5510,-8020 -2244,-2244 -4833,-3999 -7772,-5262 -2938,-1266 -6082,-1899 -9426,-1899 -3349,0 -6489,633 -9427,1899 -2938,1263 -5531,3018 -7776,5262 -2244,2244 -4039,4938 -5387,8082 -1345,3139 -2140,6549 -2385,10221l50194 0z"/>
   <path id="9" class="fil0" d="M505254 621531l-6121 0 0 -35502c0,-8243 -1165,-14242 -3489,-17997 -2327,-3755 -6020,-5632 -11081,-5632 -2694,0 -5366,489 -8020,1471 -2651,978 -5118,2366 -7405,4161 -2284,1795 -4284,3899 -5999,6305 -1712,2406 -2978,4999 -3795,7772l0 39422 -6121 0 0 -63659 5754 0 0 15181c1306,-2449 2917,-4676 4834,-6675 1921,-2000 4082,-3712 6488,-5140 2410,-1428 4960,-2532 7654,-3305 2694,-777 5467,-1165 8326,-1165 6934,0 11832,2427 14688,7286 2856,4856 4287,11811 4287,20871l0 36606z"/>
   <path id="10" class="fil0" d="M551527 618470c-327,162 -877,471 -1650,917 -777,450 -1756,878 -2939,1288 -1183,406 -2510,773 -3981,1100 -1468,328 -3061,489 -4773,489 -1715,0 -3327,-244 -4837,-733 -1511,-489 -2834,-1223 -3978,-2205 -1144,-978 -2039,-2162 -2694,-3550 -651,-1388 -978,-3017 -978,-4895l0 -47992 -8937 0 0 -5017 8937 0 0 -21792 6121 0 0 21792 14815 0 0 5017 -14815 0 0 46521c0,2367 817,4144 2450,5327 1629,1183 3467,1773 5506,1773 2532,0 4715,-428 6549,-1284 1838,-856 2960,-1406 3370,-1654l1834 4898z"/>
   <polygon id="11" class="fil0" points="624735,535224 630857,535224 643833,566809 656809,535224 662931,535224 647631,571826 665869,614187 699169,534609 706024,534609 668807,621531 663053,621531 643955,576847 624735,621531 618981,621531 581889,534609 588622,534609 622041,614187 640039,571826 "/>
   <path id="12" class="fil0" d="M736509 622753c-4489,0 -8654,-877 -12487,-2629 -3838,-1755 -7165,-4164 -9977,-7225 -2816,-3061 -5021,-6589 -6614,-10588 -1590,-4000 -2385,-8283 -2385,-12854 0,-4489 795,-8715 2385,-12671 1593,-3960 3776,-7427 6549,-10408 2777,-2978 6060,-5323 9858,-7039 3795,-1712 7895,-2571 12304,-2571 4488,0 8650,877 12487,2632 3834,1755 7139,4122 9916,7100 2773,2981 4938,6448 6488,10408 1550,3956 2323,8139 2323,12549 0,406 0,917 0,1528 0,612 -39,1000 -122,1165l-55822 0c245,3673 1101,7078 2568,10222 1471,3143 3327,5855 5571,8139 2244,2287 4837,4082 7776,5387 2938,1306 6078,1961 9426,1961 2201,0 4367,-306 6489,-918 2121,-615 4100,-1449 5937,-2510 1835,-1061 3468,-2348 4895,-3855 1428,-1511 2550,-3165 3367,-4960l5387 1467c-899,2288 -2222,4388 -3977,6305 -1756,1921 -3795,3571 -6122,4960 -2327,1388 -4877,2467 -7653,3244 -2773,777 -5629,1161 -8567,1161zm24974 -35501c-244,-3755 -1082,-7182 -2510,-10283 -1428,-3103 -3266,-5776 -5510,-8020 -2244,-2244 -4834,-3999 -7772,-5262 -2939,-1266 -6082,-1899 -9427,-1899 -3348,0 -6488,633 -9426,1899 -2939,1263 -5532,3018 -7776,5262 -2244,2244 -4039,4938 -5388,8082 -1345,3139 -2140,6549 -2384,10221l50193 0z"/>
   <path id="13" class="fil0" d="M810576 622753c-4981,0 -9631,-1305 -13958,-3916 -4327,-2611 -7711,-5956 -10160,-10038l0 12732 -5633 0 0 -89367 6122 0 0 39540c3021,-4406 6589,-7999 10710,-10772 4122,-2776 8877,-4164 14264,-4164 4489,0 8549,960 12182,2877 3632,1920 6693,4449 9182,7592 2489,3140 4406,6693 5754,10650 1345,3959 2018,7977 2018,12059 0,4406 -773,8588 -2327,12548 -1550,3960 -3690,7427 -6427,10405 -2733,2981 -5956,5366 -9671,7164 -3712,1795 -7733,2690 -12056,2690zm-1226 -5506c3755,0 7182,-777 10282,-2327 3104,-1550 5776,-3611 8021,-6182 2244,-2572 3999,-5489 5265,-8754 1262,-3266 1895,-6611 1895,-10038 0,-3593 -590,-7039 -1773,-10344 -1183,-3305 -2859,-6244 -5021,-8815 -2161,-2572 -4733,-4632 -7711,-6183 -2981,-1550 -6265,-2326 -9858,-2326 -2690,0 -5222,471 -7588,1409 -2367,939 -4550,2183 -6550,3734 -1999,1550 -3794,3344 -5387,5384 -1590,2042 -2917,4164 -3978,6369l0 21054c244,2367 1144,4593 2694,6672 1550,2082 3406,3877 5571,5388 2161,1510 4506,2715 7038,3610 2529,900 4895,1349 7100,1349z"/>
   <path id="14" class="fil0" d="M939610 549057c-5633,-6284 -13592,-9427 -23874,-9427 -8488,0 -14671,1611 -18548,4834 -3877,3226 -5815,7571 -5815,13041 0,2773 492,5078 1471,6916 978,1834 2510,3406 4589,4712 2082,1305 4715,2409 7898,3305 3183,899 7017,1838 11505,2816 4654,982 8877,2061 12674,3244 3795,1183 7017,2672 9672,4470 2650,1795 4690,4000 6121,6611 1428,2611 2140,5834 2140,9671 0,3834 -755,7182 -2262,10038 -1511,2856 -3633,5244 -6370,7161 -2733,1920 -5995,3366 -9793,4348 -3795,978 -8017,1467 -12671,1467 -13548,0 -25014,-4323 -34401,-12976l3305 -5017c3676,3834 8164,6873 13469,9117 5305,2244 11261,3366 17872,3366 7592,0 13530,-1384 17813,-4161 4284,-2773 6427,-6977 6427,-12609 0,-2856 -571,-5284 -1712,-7283 -1143,-2000 -2837,-3733 -5081,-5204 -2245,-1468 -5082,-2734 -8510,-3795 -3427,-1061 -7427,-2082 -11998,-3061 -4650,-978 -8750,-2021 -12300,-3121 -3554,-1101 -6532,-2489 -8938,-4162 -2409,-1676 -4226,-3693 -5448,-6060 -1223,-2366 -1838,-5348 -1838,-8937 0,-3917 755,-7387 2266,-10405 1510,-3021 3611,-5571 6304,-7653 2694,-2083 5917,-3651 9671,-4712 3755,-1061 7916,-1593 12488,-1593 5632,0 10653,838 15058,2510 4406,1673 8406,4223 11999,7650l-3183 4899z"/>
   <path id="15" class="fil0" d="M987969 622753c-4492,0 -8632,-877 -12426,-2629 -3798,-1755 -7082,-4143 -9858,-7164 -2773,-3017 -4935,-6528 -6489,-10527 -1550,-3999 -2323,-8204 -2323,-12610 0,-4488 795,-8732 2385,-12731 1593,-4000 3776,-7510 6549,-10531 2776,-3018 6060,-5406 9858,-7161 3794,-1755 7894,-2632 12304,-2632 4406,0 8488,877 12239,2632 3755,1755 7042,4143 9858,7161 2813,3021 5017,6531 6610,10531 1590,3999 2385,8243 2385,12731 0,4406 -795,8611 -2385,12610 -1593,3999 -3776,7510 -6549,10527 -2776,3021 -6060,5409 -9858,7164 -3794,1752 -7894,2629 -12300,2629zm-24975 -32685c0,3755 651,7283 1957,10588 1305,3306 3082,6183 5326,8632 2245,2449 4877,4388 7895,5816 3021,1427 6243,2143 9675,2143 3427,0 6650,-716 9671,-2143 3017,-1428 5671,-3406 7955,-5938 2288,-2529 4082,-5449 5388,-8754 1305,-3306 1956,-6877 1956,-10711 0,-3755 -651,-7283 -1956,-10592 -1306,-3305 -3100,-6200 -5388,-8689 -2284,-2489 -4916,-4470 -7894,-5938 -2982,-1471 -6183,-2204 -9610,-2204 -3431,0 -6654,733 -9675,2204 -3017,1468 -5650,3467 -7894,5999 -2245,2529 -4039,5489 -5388,8877 -1345,3384 -2018,6955 -2018,10710z"/>
   <path id="16" class="fil0" d="M1034242 532164l6244 0 0 76757c0,2367 672,4244 2021,5632 1345,1389 3204,2079 5571,2079 895,0 1978,-101 3244,-306 1262,-201 2428,-507 3489,-917l1223 4899c-1389,568 -3101,1039 -5140,1406 -2043,367 -3798,550 -5265,550 -3428,0 -6183,-1039 -8265,-3121 -2079,-2079 -3122,-4877 -3122,-8384l0 -78595z"/>
   <path id="17" class="fil0" d="M1085169 622753c-13548,0 -20320,-9383 -20320,-28157l0 -36724 6121 0 0 35868c0,15670 5344,23507 16037,23507 2694,0 5305,-471 7833,-1410 2532,-938 4899,-2244 7103,-3916 2202,-1673 4140,-3694 5816,-6060 1673,-2367 2996,-4978 3978,-7834l0 -40155 6121 0 0 55088c0,2043 856,3061 2572,3061l0 5510c-410,82 -777,122 -1104,122 -328,0 -572,0 -734,0 -1633,0 -3082,-511 -4345,-1529 -1266,-1021 -1899,-2388 -1899,-4103l0 -9549c-2776,5143 -6589,9142 -11448,11998 -4855,2856 -10099,4283 -15731,4283z"/>
   <path id="18" class="fil0" d="M1165725 618470c-328,162 -878,471 -1651,917 -777,450 -1755,878 -2938,1288 -1184,406 -2511,773 -3982,1100 -1467,328 -3061,489 -4772,489 -1716,0 -3327,-244 -4838,-733 -1510,-489 -2834,-1223 -3978,-2205 -1143,-978 -2039,-2162 -2693,-3550 -651,-1388 -979,-3017 -979,-4895l0 -47992 -8937 0 0 -5017 8937 0 0 -21792 6122 0 0 21792 14814 0 0 5017 -14814 0 0 46521c0,2367 816,4144 2449,5327 1629,1183 3467,1773 5506,1773 2532,0 4715,-428 6550,-1284 1837,-856 2959,-1406 3369,-1654l1835 4898z"/>
   <path id="19" class="fil0" d="M1176496 621531l0 -63659 6122 0 0 63659 -6122 0zm0 -78107l0 -11260 6122 0 0 11260 -6122 0z"/>
   <path id="20" class="fil0" d="M1228528 622753c-4492,0 -8632,-877 -12426,-2629 -3798,-1755 -7082,-4143 -9859,-7164 -2772,-3017 -4934,-6528 -6488,-10527 -1550,-3999 -2323,-8204 -2323,-12610 0,-4488 795,-8732 2384,-12731 1594,-4000 3777,-7510 6550,-10531 2776,-3018 6060,-5406 9858,-7161 3794,-1755 7894,-2632 12304,-2632 4405,0 8488,877 12239,2632 3755,1755 7042,4143 9858,7161 2812,3021 5017,6531 6610,10531 1590,3999 2385,8243 2385,12731 0,4406 -795,8611 -2385,12610 -1593,3999 -3776,7510 -6549,10527 -2777,3021 -6060,5409 -9858,7164 -3794,1752 -7895,2629 -12300,2629zm-24975 -32685c0,3755 651,7283 1957,10588 1305,3306 3082,6183 5326,8632 2244,2449 4877,4388 7895,5816 3021,1427 6243,2143 9674,2143 3428,0 6650,-716 9672,-2143 3017,-1428 5671,-3406 7955,-5938 2287,-2529 4082,-5449 5388,-8754 1305,-3306 1956,-6877 1956,-10711 0,-3755 -651,-7283 -1956,-10592 -1306,-3305 -3101,-6200 -5388,-8689 -2284,-2489 -4916,-4470 -7894,-5938 -2982,-1471 -6183,-2204 -9610,-2204 -3431,0 -6654,733 -9675,2204 -3018,1468 -5650,3467 -7894,5999 -2245,2529 -4039,5489 -5388,8877 -1345,3384 -2018,6955 -2018,10710z"/>
   <path id="21" class="fil0" d="M1326343 621531l-6121 0 0 -35502c0,-8243 -1166,-14242 -3489,-17997 -2327,-3755 -6021,-5632 -11081,-5632 -2694,0 -5366,489 -8020,1471 -2651,978 -5118,2366 -7405,4161 -2284,1795 -4284,3899 -6000,6305 -1712,2406 -2977,4999 -3794,7772l0 39422 -6121 0 0 -63659 5754 0 0 15181c1306,-2449 2917,-4676 4834,-6675 1921,-2000 4082,-3712 6488,-5140 2410,-1428 4960,-2532 7654,-3305 2693,-777 5466,-1165 8326,-1165 6934,0 11832,2427 14688,7286 2856,4856 4287,11811 4287,20871l0 36606z"/>
   <path id="22" class="fil0" d="M1365024 622753c-4895,0 -9588,-816 -14077,-2445 -4488,-1633 -8405,-4082 -11753,-7348l3060 -4161c3428,3100 6978,5388 10653,6855 3672,1471 7711,2205 12117,2205 5553,0 10020,-1166 13408,-3489 3384,-2327 5078,-5571 5078,-9732 0,-1960 -428,-3615 -1284,-4960 -856,-1345 -2143,-2489 -3855,-3427 -1716,-939 -3838,-1777 -6366,-2511 -2532,-734 -5470,-1510 -8815,-2327 -3593,-816 -6715,-1629 -9366,-2445 -2654,-817 -4837,-1799 -6549,-2939 -1716,-1144 -3000,-2532 -3856,-4165 -859,-1629 -1287,-3711 -1287,-6243 0,-3183 611,-5956 1838,-8323 1223,-2366 2917,-4326 5078,-5876 2165,-1551 4654,-2716 7470,-3489 2816,-777 5816,-1165 8999,-1165 4977,0 9383,838 13221,2510 3834,1672 6815,3816 8937,6427l-3427 3305c-2122,-2449 -4877,-4283 -8265,-5506 -3388,-1226 -6999,-1838 -10833,-1838 -2370,0 -4593,245 -6675,734 -2079,489 -3895,1266 -5446,2327 -1553,1061 -2776,2427 -3675,4100 -896,1672 -1345,3654 -1345,5938 0,1877 305,3388 917,4531 615,1140 1593,2122 2938,2935 1349,817 3082,1532 5204,2144 2122,611 4651,1287 7589,2021 3999,978 7549,1917 10653,2816 3100,896 5693,2000 7772,3305 2083,1306 3672,2856 4776,4651 1101,1794 1651,4082 1651,6855 0,5715 -2222,10264 -6671,13652 -4449,3388 -10384,5078 -17814,5078z"/>
   <path id="23" class="fil0" d="M1460516 534609l5388 0 36728 86922 -6611 0 -12120 -28647 -41501 0 -12120 28647 -6733 0 36969 -86922zm21669 53132l-18975 -45539 -19342 45539 38317 0z"/>
   <path id="24" class="fil0" d="M1532256 622753c-13548,0 -20320,-9383 -20320,-28157l0 -36724 6121 0 0 35868c0,15670 5345,23507 16037,23507 2694,0 5305,-471 7833,-1410 2532,-938 4899,-2244 7104,-3916 2201,-1673 4139,-3694 5815,-6060 1673,-2367 2996,-4978 3978,-7834l0 -40155 6121 0 0 55088c0,2043 856,3061 2572,3061l0 5510c-410,82 -777,122 -1104,122 -327,0 -572,0 -734,0 -1633,0 -3082,-511 -4345,-1529 -1266,-1021 -1899,-2388 -1899,-4103l0 -9549c-2776,5143 -6588,9142 -11447,11998 -4856,2856 -10099,4283 -15732,4283z"/>
   <path id="25" class="fil0" d="M1612812 618470c-327,162 -878,471 -1651,917 -777,450 -1755,878 -2938,1288 -1184,406 -2511,773 -3982,1100 -1467,328 -3060,489 -4772,489 -1716,0 -3327,-244 -4838,-733 -1510,-489 -2834,-1223 -3977,-2205 -1144,-978 -2040,-2162 -2694,-3550 -651,-1388 -979,-3017 -979,-4895l0 -47992 -8937 0 0 -5017 8937 0 0 -21792 6122 0 0 21792 14814 0 0 5017 -14814 0 0 46521c0,2367 816,4144 2449,5327 1629,1183 3467,1773 5506,1773 2532,0 4715,-428 6550,-1284 1838,-856 2960,-1406 3370,-1654l1834 4898z"/>
   <path id="26" class="fil0" d="M1648684 622753c-4492,0 -8632,-877 -12426,-2629 -3798,-1755 -7082,-4143 -9858,-7164 -2773,-3017 -4935,-6528 -6489,-10527 -1550,-3999 -2323,-8204 -2323,-12610 0,-4488 795,-8732 2385,-12731 1593,-4000 3776,-7510 6549,-10531 2776,-3018 6060,-5406 9858,-7161 3794,-1755 7895,-2632 12304,-2632 4406,0 8488,877 12239,2632 3755,1755 7042,4143 9858,7161 2813,3021 5017,6531 6611,10531 1589,3999 2384,8243 2384,12731 0,4406 -795,8611 -2384,12610 -1594,3999 -3777,7510 -6550,10527 -2776,3021 -6060,5409 -9858,7164 -3794,1752 -7894,2629 -12300,2629zm-24975 -32685c0,3755 651,7283 1957,10588 1306,3306 3082,6183 5326,8632 2245,2449 4877,4388 7895,5816 3021,1427 6244,2143 9675,2143 3427,0 6650,-716 9671,-2143 3017,-1428 5671,-3406 7955,-5938 2288,-2529 4082,-5449 5388,-8754 1305,-3306 1956,-6877 1956,-10711 0,-3755 -651,-7283 -1956,-10592 -1306,-3305 -3100,-6200 -5388,-8689 -2284,-2489 -4916,-4470 -7894,-5938 -2982,-1471 -6183,-2204 -9610,-2204 -3431,0 -6654,733 -9675,2204 -3017,1468 -5650,3467 -7894,5999 -2245,2529 -4039,5489 -5388,8877 -1345,3384 -2018,6955 -2018,10710z"/>
   <path id="27" class="fil0" d="M1788000 621531l-6121 0 0 -35502c0,-8081 -1245,-14037 -3734,-17875 -2488,-3837 -6304,-5754 -11447,-5754 -2612,0 -5100,489 -7467,1471 -2366,978 -4532,2345 -6488,4100 -1960,1755 -3654,3834 -5082,6243 -1428,2407 -2550,5082 -3366,8017l0 39300 -6122 0 0 -35502c0,-8164 -1223,-14142 -3672,-17936 -2449,-3794 -6243,-5693 -11386,-5693 -2612,0 -5079,471 -7406,1410 -2327,938 -4470,2283 -6427,4039 -1960,1755 -3693,3833 -5204,6243 -1511,2406 -2672,5082 -3489,8017l0 39422 -6121 0 0 -63659 5754 0 0 15181c2612,-5143 6039,-9143 10283,-11998 4244,-2860 8937,-4287 14080,-4287 5385,0 9751,1593 13099,4776 3345,3183 5345,7344 5999,12487 6039,-11509 14365,-17263 24975,-17263 6937,0 11893,2470 14871,7408 2982,4939 4471,11855 4471,20749l0 36606z"/>
   <path id="28" class="fil0" d="M1822156 622753c-2938,0 -5671,-507 -8203,-1528 -2529,-1021 -4751,-2410 -6672,-4161 -1917,-1755 -3406,-3838 -4467,-6244 -1061,-2410 -1593,-4999 -1593,-7776 0,-2773 654,-5305 1960,-7588 1305,-2288 3122,-4266 5449,-5938 2323,-1673 5121,-2978 8383,-3917 3266,-939 6859,-1410 10776,-1410 3427,0 6876,306 10343,917 3471,615 6593,1450 9366,2511l0 -6244c0,-6038 -1712,-10833 -5143,-14382 -3428,-3554 -8078,-5327 -13955,-5327 -3100,0 -6388,651 -9855,1960 -3470,1306 -6999,3183 -10588,5629l-2327 -4161c8161,-5550 15915,-8326 23259,-8326 7671,0 13714,2226 18119,6671 4406,4449 6611,10592 6611,18425l0 31096c0,2043 899,3061 2694,3061l0 5510c-410,82 -838,144 -1284,183 -450,40 -838,61 -1165,61 -1633,0 -2939,-550 -3917,-1651 -978,-1104 -1550,-2431 -1716,-3981l0 -5262c-2938,3834 -6689,6773 -11260,8812 -4572,2043 -9510,3060 -14815,3060zm1223 -4894c4737,0 9081,-900 13041,-2694 3956,-1795 6996,-4161 9117,-7100 1310,-1715 1961,-3348 1961,-4898l0 -11261c-2939,-1144 -5999,-2000 -9182,-2572 -3183,-572 -6489,-859 -9916,-859 -3183,0 -6082,349 -8693,1043 -2611,694 -4855,1651 -6733,2877 -1877,1223 -3326,2712 -4344,4467 -1022,1755 -1532,3694 -1532,5816 0,2122 410,4121 1226,5999 816,1877 1957,3488 3427,4833 1468,1349 3201,2410 5201,3183 2000,777 4143,1166 6427,1166z"/>
   <path id="29" class="fil0" d="M1900140 618470c-327,162 -877,471 -1651,917 -776,450 -1755,878 -2938,1288 -1183,406 -2510,773 -3981,1100 -1468,328 -3061,489 -4773,489 -1715,0 -3327,-244 -4837,-733 -1511,-489 -2834,-1223 -3978,-2205 -1144,-978 -2039,-2162 -2694,-3550 -651,-1388 -978,-3017 -978,-4895l0 -47992 -8938 0 0 -5017 8938 0 0 -21792 6121 0 0 21792 14814 0 0 5017 -14814 0 0 46521c0,2367 817,4144 2449,5327 1630,1183 3468,1773 5507,1773 2532,0 4715,-428 6549,-1284 1838,-856 2960,-1406 3370,-1654l1834 4898z"/>
   <path id="30" class="fil0" d="M1910912 621531l0 -63659 6121 0 0 63659 -6121 0zm0 -78107l0 -11260 6121 0 0 11260 -6121 0z"/>
   <path id="31" class="fil0" d="M1962943 622753c-4492,0 -8631,-877 -12426,-2629 -3798,-1755 -7081,-4143 -9858,-7164 -2773,-3017 -4934,-6528 -6488,-10527 -1550,-3999 -2323,-8204 -2323,-12610 0,-4488 794,-8732 2384,-12731 1593,-4000 3776,-7510 6549,-10531 2777,-3018 6061,-5406 9858,-7161 3795,-1755 7895,-2632 12304,-2632 4406,0 8488,877 12239,2632 3755,1755 7042,4143 9858,7161 2813,3021 5018,6531 6611,10531 1590,3999 2384,8243 2384,12731 0,4406 -794,8611 -2384,12610 -1593,3999 -3776,7510 -6549,10527 -2777,3021 -6061,5409 -9859,7164 -3794,1752 -7894,2629 -12300,2629zm-24974 -32685c0,3755 651,7283 1956,10588 1306,3306 3083,6183 5327,8632 2244,2449 4877,4388 7894,5816 3021,1427 6244,2143 9675,2143 3428,0 6650,-716 9671,-2143 3018,-1428 5672,-3406 7956,-5938 2287,-2529 4082,-5449 5387,-8754 1306,-3306 1957,-6877 1957,-10711 0,-3755 -651,-7283 -1957,-10592 -1305,-3305 -3100,-6200 -5387,-8689 -2284,-2489 -4917,-4470 -7895,-5938 -2981,-1471 -6182,-2204 -9610,-2204 -3431,0 -6653,733 -9674,2204 -3018,1468 -5651,3467 -7895,5999 -2244,2529 -4039,5489 -5388,8877 -1345,3384 -2017,6955 -2017,10710z"/>
   <path id="32" class="fil0" d="M2060759 621531l-6122 0 0 -35502c0,-8243 -1165,-14242 -3488,-17997 -2327,-3755 -6021,-5632 -11081,-5632 -2694,0 -5366,489 -8021,1471 -2650,978 -5117,2366 -7405,4161 -2284,1795 -4283,3899 -5999,6305 -1712,2406 -2978,4999 -3794,7772l0 39422 -6122 0 0 -63659 5755 0 0 15181c1305,-2449 2917,-4676 4834,-6675 1920,-2000 4082,-3712 6488,-5140 2409,-1428 4959,-2532 7653,-3305 2694,-777 5467,-1165 8326,-1165 6934,0 11833,2427 14689,7286 2855,4856 4287,11811 4287,20871l0 36606z"/>
   <g>
    <path class="fil0 str0" d="M1828558 223554l127505 0c11606,0 22184,-2524 31732,-7581 9549,-5057 17695,-11797 24435,-20220 6740,-8427 11984,-18163 15728,-29208 3744,-11048 5618,-22561 5618,-34544 0,-12358 -2154,-24061 -6459,-35106 -4309,-11049 -10110,-20691 -17415,-28927 -7301,-8240 -15915,-14699 -25838,-19379 -9922,-4682 -20313,-7020 -31174,-7020l-124132 0 -198 -58 -39317 0 198 -34767 165135 0c17224,0 33045,3650 47464,10951 14415,7301 26866,16850 37350,28647 10488,11796 18724,25183 24716,40162 5991,14976 8987,30143 8987,45497 0,16475 -2808,32297 -8426,47463 -5615,15163 -13480,28550 -23590,40159 -10110,11610 -22187,20972 -36228,28086 -14045,7114 -29679,10671 -46903,10671l-129188 0 0 147163 -39317 0 0 -181931 39317 0 0 -58z"/>
    <path class="fil0 str0" d="M1387517 203335c0,-23964 4215,-47838 12638,-71615 8427,-23780 20691,-45029 36793,-63752 16102,-18724 35947,-33984 59537,-45777 23593,-11797 50366,-17695 80322,-17695 35573,0 66000,8052 91277,24154 25276,16102 43903,37070 55886,62907l-30890 19098c-6366,-13106 -14138,-24151 -23313,-33139 -9175,-8987 -19004,-16288 -29488,-21906 -10484,-5618 -21346,-9642 -32578,-12077 -11235,-2435 -22280,-3651 -33138,-3651 -23968,0 -45123,4870 -63472,14606 -18350,9736 -33797,22467 -46342,38195 -12541,15724 -21996,33419 -28362,53078 -6366,19659 -9549,39598 -9549,59821 0,22094 3837,43249 11512,63469 7679,20223 18163,38102 31456,53642 13293,15541 29020,27899 47183,37074 18159,9174 37911,13760 59257,13760 11235,0 22748,-1403 34545,-4212 11796,-2809 23215,-7304 34264,-13479 11045,-6179 21248,-13858 30610,-23033 9362,-9175 17224,-20313 23590,-33419l32581 16850c-6366,14980 -15354,28179 -26963,39602 -11606,11419 -24525,21061 -38757,28927 -14228,7862 -29301,13853 -45215,17972 -15915,4118 -31549,6178 -46903,6178 -27334,0 -52423,-5991 -75265,-17975 -22842,-11980 -42501,-27614 -58976,-46899 -16480,-19285 -29305,-41191 -38476,-65720 -9175,-24525 -13764,-49521 -13764,-74984z"/>
    <polygon class="fil0" points="1079483,222716 1079483,189574 1123609,189574 1196723,189574 1342351,189574 1342351,222716 1207894,222716 1123609,222716 "/>
    <g>
     <polygon class="fil0" points="1079483,41569 1079483,6744 1342351,6744 1342351,41569 1183948,41569 1118801,41569 "/>
     <polygon class="fil0" points="1347408,370718 1347408,405543 1079483,405543 1079483,370718 1118801,370718 1193904,370718 "/>
    </g>
    <path class="fil0" d="M992425 81447c-11232,-12731 -26212,-23028 -44935,-30894 -18724,-7862 -40066,-11793 -64033,-11793 -35200,0 -60850,6646 -76952,19939 -16102,13293 -24151,31362 -24151,54204 0,11984 2151,21813 6459,29488 4305,7675 10952,14321 19940,19939 8987,5618 20500,10484 34545,14606 14040,4118 30610,8236 49707,12358 21346,4492 40537,9548 57574,15163 17037,5618 31549,12638 43533,21065 11980,8426 21155,18630 27521,30610 6365,11984 9548,26963 9548,44935 0,18350 -3557,34265 -10671,47744 -7114,13484 -17036,24716 -29768,33704 -12732,8987 -27899,15634 -45500,19939 -17598,4305 -36883,6459 -57854,6459 -61785,0 -115144,-19284 -160079,-57854l19659 -32016c7114,7488 15634,14605 25557,21345 9923,6740 20968,12639 33138,17692 12171,5057 25183,8988 39037,11796 13854,2809 28460,4212 43813,4212 31830,0 56635,-5711 74424,-17130 17788,-11423 26679,-28740 26679,-51956 0,-12358 -2525,-22748 -7582,-31175 -5056,-8427 -12638,-15728 -22748,-21907 -10110,-6178 -22654,-11512 -37634,-16008 -14980,-4492 -32391,-8988 -52236,-13480 -20972,-4869 -39318,-9923 -55045,-15166 -15728,-5241 -29021,-11793 -39883,-19659 -10858,-7862 -19004,-17318 -24431,-28366 -5431,-11045 -8146,-24619 -8146,-40720 0,-18350 3463,-34732 10390,-49151 6931,-14415 16760,-26398 29492,-35947 12732,-9549 27708,-16850 44935,-21907 17224,-5053 36322,-7581 57290,-7581 26589,0 50272,4024 71057,12077 20781,8049 39598,19378 56448,33980l-19098 31455z"/>
    <polygon class="fil0" points="630026,405543 630026,6744 669343,6744 669343,405543 "/>
    <polygon class="fil0" points="194192,7560 231449,7560 287900,149818 344916,7560 382738,7560 312738,178608 389514,359817 534595,4737 577498,4737 407579,405543 372577,405543 288465,207399 203788,405543 169354,405543 0,4737 42339,4737 187981,359817 264192,178608 "/>
   </g>
  </g>
 </g>
</svg>
