<?xml version="1.0" encoding="UTF-8"?>
<!DOCTYPE svg PUBLIC "-//W3C//DTD SVG 1.1//EN" "http://www.w3.org/Graphics/SVG/1.1/DTD/svg11.dtd">
<!-- Creator: CorelDRAW X7 -->
<svg xmlns="http://www.w3.org/2000/svg" xml:space="preserve" width="75.5249mm" height="30.4025mm" version="1.1" style="shape-rendering:geometricPrecision; text-rendering:geometricPrecision; image-rendering:optimizeQuality; fill-rule:evenodd; clip-rule:evenodd"
viewBox="0 0 31602 12721"
 xmlns:xlink="http://www.w3.org/1999/xlink">
 <defs>
  <style type="text/css">
   <![CDATA[
    .str0 {stroke:#FEFEFE;stroke-width:104.606}
    .fil0 {fill:none}
    .fil2 {fill:#FEFEFE;fill-rule:nonzero}
    .fil1 {fill:#FEFEFE;fill-rule:nonzero}
   ]]>
  </style>
 </defs>
 <g id="Layer_x0020_1">
  <metadata id="CorelCorpID_0Corel-Layer"/>
  <rect class="fil0" width="31602" height="12721"/>
  <g id="_2127591943168">
   <polygon class="fil1" points="3883,9748 3883,8737 3956,8737 3956,9748 "/>
   <path id="1" class="fil1" d="M4805 9748l-72 0 0 -413c0,-96 -13,-166 -40,-209 -27,-44 -70,-66 -129,-66 -31,0 -62,6 -93,17 -31,12 -60,28 -86,49 -27,20 -50,45 -70,73 -20,28 -35,58 -44,90l0 459 -72 0 0 -741 67 0 0 177c15,-28 34,-54 57,-78 22,-23 47,-43 75,-59 28,-17 58,-30 89,-39 31,-9 64,-13 97,-13 81,0 138,28 171,84 33,57 50,138 50,243l0 426z"/>
   <path id="2" class="fil1" d="M5343 9712c-4,2 -10,6 -19,11 -9,5 -21,10 -34,15 -14,5 -30,9 -47,13 -17,4 -35,6 -55,6 -20,0 -39,-3 -56,-9 -18,-6 -33,-14 -47,-26 -13,-11 -23,-25 -31,-41 -8,-16 -11,-35 -11,-57l0 -558 -104 0 0 -59 104 0 0 -253 71 0 0 253 172 0 0 59 -172 0 0 541c0,28 9,48 28,62 19,14 41,21 64,21 30,0 55,-5 77,-15 21,-10 34,-17 39,-20l21 57z"/>
   <path id="3" class="fil1" d="M5765 9762c-53,0 -101,-10 -146,-30 -44,-21 -83,-49 -116,-84 -32,-36 -58,-77 -77,-124 -18,-46 -27,-96 -27,-149 0,-52 9,-101 27,-148 19,-46 44,-86 77,-121 32,-34 70,-62 114,-82 44,-19 92,-29 143,-29 53,0 101,10 146,30 44,21 83,48 115,83 32,34 58,75 76,121 18,46 27,95 27,146 0,5 0,11 0,18 0,7 -1,11 -2,13l-649 0c3,43 13,83 30,119 17,37 38,68 64,95 27,26 57,47 91,63 34,15 71,22 110,22 25,0 50,-3 75,-10 25,-7 48,-17 69,-30 21,-12 40,-27 57,-44 17,-18 30,-37 39,-58l63 17c-11,27 -26,51 -46,73 -21,23 -45,42 -72,58 -27,16 -56,29 -89,38 -32,9 -65,13 -99,13zm290 -413c-3,-43 -12,-83 -29,-119 -17,-36 -38,-68 -64,-94 -26,-26 -56,-46 -90,-61 -35,-15 -71,-22 -110,-22 -39,0 -76,7 -110,22 -34,15 -64,35 -90,61 -26,26 -47,58 -63,94 -16,37 -25,76 -28,119l584 0z"/>
   <path id="4" class="fil1" d="M6286 8708l73 0 0 893c0,28 8,50 23,66 16,16 37,24 65,24 10,0 23,-1 38,-3 14,-3 28,-6 40,-11l15 57c-17,6 -37,12 -60,16 -24,4 -44,7 -62,7 -39,0 -71,-13 -96,-37 -24,-24 -36,-56 -36,-97l0 -915z"/>
   <path id="5" class="fil1" d="M6655 8708l73 0 0 893c0,28 7,50 23,66 16,16 37,24 65,24 10,0 23,-1 38,-3 14,-3 28,-6 40,-11l14 57c-16,6 -36,12 -59,16 -24,4 -44,7 -62,7 -39,0 -72,-13 -96,-37 -24,-24 -36,-56 -36,-97l0 -915z"/>
   <path id="6" class="fil1" d="M7018 9748l0 -741 71 0 0 741 -71 0zm0 -909l0 -131 71 0 0 131 -71 0z"/>
   <path id="7" class="fil1" d="M7612 9759c-51,0 -98,-10 -141,-32 -43,-21 -79,-49 -110,-85 -31,-36 -55,-76 -73,-122 -17,-45 -26,-92 -26,-141 0,-50 8,-99 25,-145 16,-47 40,-88 70,-123 31,-36 67,-64 109,-85 42,-21 89,-31 140,-31 65,0 121,16 169,50 48,34 89,75 122,123l0 -161 66 0 0 755c0,51 -10,95 -29,133 -19,38 -44,69 -76,94 -32,26 -69,45 -111,57 -43,13 -87,20 -133,20 -43,0 -82,-4 -116,-12 -34,-8 -64,-20 -90,-35 -26,-14 -50,-32 -70,-54 -20,-21 -38,-45 -54,-70l49 -33c29,50 69,87 120,110 50,24 104,35 161,35 38,0 73,-5 107,-15 34,-11 63,-26 88,-47 26,-20 45,-45 60,-76 15,-30 22,-66 22,-107l0 -162c-30,48 -70,87 -121,116 -50,29 -103,43 -158,43zm17 -61c32,0 62,-6 92,-18 30,-11 57,-27 81,-46 24,-19 44,-40 60,-64 16,-24 25,-47 29,-71l0 -244c-11,-28 -26,-55 -45,-79 -19,-24 -41,-45 -65,-62 -24,-17 -50,-30 -78,-40 -28,-10 -57,-15 -85,-15 -45,0 -85,9 -120,28 -35,19 -65,44 -89,74 -24,31 -43,65 -55,103 -13,39 -20,78 -20,117 0,42 8,83 23,121 15,38 36,71 63,101 26,29 58,52 94,70 36,17 74,25 115,25z"/>
   <path id="8" class="fil1" d="M8499 9762c-52,0 -100,-10 -145,-30 -44,-21 -83,-49 -116,-84 -33,-36 -58,-77 -77,-124 -18,-46 -28,-96 -28,-149 0,-52 10,-101 28,-148 19,-46 44,-86 76,-121 33,-34 71,-62 115,-82 44,-19 92,-29 143,-29 52,0 101,10 145,30 45,21 84,48 116,83 32,34 57,75 75,121 18,46 27,95 27,146 0,5 0,11 0,18 0,7 0,11 -1,13l-650 0c3,43 13,83 30,119 17,37 39,68 65,95 26,26 56,47 91,63 34,15 70,22 109,22 26,0 51,-3 76,-10 25,-7 48,-17 69,-30 21,-12 40,-27 57,-44 16,-18 30,-37 39,-58l63 17c-11,27 -26,51 -47,73 -20,23 -44,42 -71,58 -27,16 -57,29 -89,38 -32,9 -65,13 -100,13zm291 -413c-3,-43 -13,-83 -29,-119 -17,-36 -38,-68 -64,-94 -26,-26 -57,-46 -91,-61 -34,-15 -70,-22 -109,-22 -39,0 -76,7 -110,22 -34,15 -64,35 -91,61 -26,26 -46,58 -62,94 -16,37 -25,76 -28,119l584 0z"/>
   <path id="9" class="fil1" d="M9620 9748l-71 0 0 -413c0,-96 -13,-166 -40,-209 -27,-44 -70,-66 -129,-66 -32,0 -63,6 -94,17 -30,12 -59,28 -86,49 -26,20 -50,45 -70,73 -19,28 -34,58 -44,90l0 459 -71 0 0 -741 67 0 0 177c15,-28 34,-54 56,-78 23,-23 48,-43 76,-59 28,-17 58,-30 89,-39 31,-9 63,-13 97,-13 80,0 137,28 171,84 33,57 49,138 49,243l0 426z"/>
   <path id="10" class="fil1" d="M10159 9712c-4,2 -10,6 -19,11 -9,5 -21,10 -35,15 -13,5 -29,9 -46,13 -17,4 -35,6 -55,6 -20,0 -39,-3 -57,-9 -17,-6 -33,-14 -46,-26 -13,-11 -24,-25 -31,-41 -8,-16 -12,-35 -12,-57l0 -558 -104 0 0 -59 104 0 0 -253 72 0 0 253 172 0 0 59 -172 0 0 541c0,28 9,48 28,62 19,14 40,21 64,21 30,0 55,-5 76,-15 22,-10 35,-17 39,-20l22 57z"/>
   <polygon id="11" class="fil1" points="11011,8744 11082,8744 11233,9111 11384,8744 11455,8744 11277,9170 11489,9663 11877,8737 11956,8737 11523,9748 11456,9748 11234,9228 11011,9748 10944,9748 10512,8737 10590,8737 10979,9663 11189,9170 "/>
   <path id="12" class="fil1" d="M12311 9762c-52,0 -101,-10 -145,-30 -45,-21 -84,-49 -116,-84 -33,-36 -59,-77 -77,-124 -19,-46 -28,-96 -28,-149 0,-52 9,-101 28,-148 18,-46 44,-86 76,-121 32,-34 70,-62 115,-82 44,-19 92,-29 143,-29 52,0 100,10 145,30 45,21 83,48 115,83 33,34 58,75 76,121 18,46 27,95 27,146 0,5 0,11 0,18 0,7 -1,11 -1,13l-650 0c3,43 13,83 30,119 17,37 39,68 65,95 26,26 56,47 90,63 34,15 71,22 110,22 26,0 51,-3 75,-10 25,-7 48,-17 69,-30 22,-12 41,-27 57,-44 17,-18 30,-37 40,-58l62 17c-10,27 -26,51 -46,73 -20,23 -44,42 -71,58 -27,16 -57,29 -89,38 -33,9 -66,13 -100,13zm291 -413c-3,-43 -13,-83 -30,-119 -16,-36 -38,-68 -64,-94 -26,-26 -56,-46 -90,-61 -34,-15 -71,-22 -110,-22 -39,0 -75,7 -109,22 -35,15 -65,35 -91,61 -26,26 -47,58 -63,94 -15,37 -25,76 -27,119l584 0z"/>
   <path id="13" class="fil1" d="M13173 9762c-58,0 -112,-15 -163,-45 -50,-31 -89,-70 -118,-117l0 148 -65 0 0 -1040 71 0 0 460c35,-51 77,-93 125,-125 47,-32 103,-48 165,-48 53,0 100,11 142,33 42,22 78,52 107,88 29,37 51,78 67,124 16,46 23,93 23,141 0,51 -9,100 -27,146 -18,46 -43,86 -74,121 -32,34 -70,62 -113,83 -43,21 -90,31 -140,31zm-14 -64c43,0 83,-9 119,-27 36,-18 67,-42 93,-72 27,-30 47,-64 62,-102 14,-38 22,-77 22,-116 0,-42 -7,-82 -21,-121 -14,-38 -33,-72 -58,-102 -25,-30 -55,-54 -90,-72 -35,-18 -73,-27 -115,-27 -31,0 -60,5 -88,16 -28,11 -53,25 -76,43 -23,19 -44,39 -63,63 -18,24 -34,49 -46,74l0 245c3,28 13,54 31,78 18,24 40,45 65,63 25,17 52,31 82,42 29,10 57,15 83,15z"/>
   <path id="14" class="fil1" d="M14674 8905c-65,-73 -158,-110 -278,-110 -98,0 -170,19 -215,56 -46,38 -68,88 -68,152 0,32 6,59 17,81 11,21 29,39 53,54 25,16 55,28 92,39 37,10 82,21 134,33 54,11 103,24 148,37 44,14 81,31 112,52 31,21 55,47 71,77 17,31 25,68 25,113 0,44 -9,83 -26,117 -18,33 -42,61 -74,83 -32,22 -70,39 -114,51 -44,11 -93,17 -148,17 -157,0 -291,-51 -400,-151l39 -59c42,45 95,80 156,106 62,26 131,39 208,39 89,0 158,-16 208,-48 49,-32 74,-81 74,-147 0,-33 -6,-61 -20,-84 -13,-24 -33,-44 -59,-61 -26,-17 -59,-32 -99,-44 -40,-12 -86,-24 -139,-36 -54,-11 -102,-23 -143,-36 -42,-13 -76,-29 -104,-48 -28,-20 -50,-43 -64,-71 -14,-27 -21,-62 -21,-104 0,-45 9,-86 26,-121 18,-35 42,-65 74,-89 31,-24 68,-43 112,-55 44,-12 92,-18 145,-18 66,0 124,9 176,29 51,19 97,49 139,89l-37 57z"/>
   <path id="15" class="fil1" d="M15237 9762c-53,0 -101,-10 -145,-30 -44,-21 -82,-49 -115,-84 -32,-35 -57,-76 -75,-122 -18,-47 -27,-96 -27,-147 0,-52 9,-101 28,-148 18,-47 44,-87 76,-122 32,-36 70,-63 115,-84 44,-20 91,-30 143,-30 51,0 98,10 142,30 44,21 82,48 115,84 33,35 58,75 77,122 18,47 28,96 28,148 0,51 -10,100 -28,147 -19,46 -44,87 -76,122 -33,35 -71,63 -115,84 -44,20 -92,30 -143,30zm-291 -380c0,44 8,85 23,123 15,39 36,72 62,101 26,28 57,51 92,67 35,17 72,25 112,25 40,0 78,-8 113,-25 35,-16 66,-39 92,-69 27,-29 48,-63 63,-102 15,-38 23,-80 23,-124 0,-44 -8,-85 -23,-123 -15,-39 -36,-73 -63,-102 -26,-29 -57,-52 -91,-69 -35,-17 -72,-25 -112,-25 -40,0 -78,8 -113,25 -35,17 -66,41 -92,70 -26,30 -47,64 -62,103 -16,40 -24,81 -24,125z"/>
   <path id="16" class="fil1" d="M15775 8708l73 0 0 893c0,28 8,50 23,66 16,16 38,24 65,24 11,0 23,-1 38,-3 15,-3 28,-6 40,-11l15 57c-16,6 -36,12 -60,16 -24,4 -44,7 -61,7 -40,0 -72,-13 -97,-37 -24,-24 -36,-56 -36,-97l0 -915z"/>
   <path id="17" class="fil1" d="M16368 9762c-158,0 -237,-109 -237,-327l0 -428 71 0 0 418c0,182 63,273 187,273 31,0 62,-5 91,-16 30,-11 57,-26 83,-46 25,-19 48,-43 67,-70 20,-28 35,-58 47,-91l0 -468 71 0 0 641c0,24 10,36 30,36l0 64c-5,1 -9,1 -13,1 -4,0 -7,0 -8,0 -19,0 -36,-5 -51,-17 -15,-12 -22,-28 -22,-48l0 -111c-32,60 -77,106 -133,139 -57,34 -118,50 -183,50z"/>
   <path id="18" class="fil1" d="M17305 9712c-4,2 -10,6 -19,11 -9,5 -21,10 -35,15 -13,5 -29,9 -46,13 -17,4 -35,6 -55,6 -20,0 -39,-3 -57,-9 -17,-6 -33,-14 -46,-26 -13,-11 -24,-25 -31,-41 -8,-16 -12,-35 -12,-57l0 -558 -104 0 0 -59 104 0 0 -253 72 0 0 253 172 0 0 59 -172 0 0 541c0,28 9,48 28,62 19,14 40,21 64,21 30,0 55,-5 76,-15 22,-10 35,-17 40,-20l21 57z"/>
   <path id="19" class="fil1" d="M17430 9748l0 -741 71 0 0 741 -71 0zm0 -909l0 -131 71 0 0 131 -71 0z"/>
   <path id="20" class="fil1" d="M18036 9762c-53,0 -101,-10 -145,-30 -44,-21 -82,-49 -115,-84 -32,-35 -57,-76 -75,-122 -18,-47 -27,-96 -27,-147 0,-52 9,-101 28,-148 18,-47 43,-87 76,-122 32,-36 70,-63 114,-84 45,-20 92,-30 144,-30 51,0 98,10 142,30 44,21 82,48 115,84 32,35 58,75 77,122 18,47 27,96 27,148 0,51 -9,100 -27,147 -19,46 -44,87 -77,122 -32,35 -70,63 -114,84 -44,20 -92,30 -143,30zm-291 -380c0,44 8,85 23,123 15,39 36,72 62,101 26,28 56,51 92,67 35,17 72,25 112,25 40,0 78,-8 113,-25 35,-16 66,-39 92,-69 27,-29 48,-63 63,-102 15,-38 23,-80 23,-124 0,-44 -8,-85 -23,-123 -15,-39 -36,-73 -63,-102 -26,-29 -57,-52 -92,-69 -34,-17 -72,-25 -111,-25 -40,0 -78,8 -113,25 -35,17 -66,41 -92,70 -26,30 -47,64 -63,103 -15,40 -23,81 -23,125z"/>
   <path id="21" class="fil1" d="M19174 9748l-72 0 0 -413c0,-96 -13,-166 -40,-209 -27,-44 -70,-66 -129,-66 -31,0 -63,6 -93,17 -31,12 -60,28 -87,49 -26,20 -49,45 -69,73 -20,28 -35,58 -45,90l0 459 -71 0 0 -741 67 0 0 177c15,-28 34,-54 56,-78 23,-23 48,-43 76,-59 28,-17 58,-30 89,-39 31,-9 64,-13 97,-13 81,0 138,28 171,84 33,57 50,138 50,243l0 426z"/>
   <path id="22" class="fil1" d="M19624 9762c-57,0 -112,-9 -164,-28 -52,-19 -98,-48 -137,-86l36 -48c40,36 81,63 124,80 42,17 89,25 141,25 64,0 116,-13 156,-40 39,-27 59,-65 59,-114 0,-22 -5,-42 -15,-57 -10,-16 -25,-29 -45,-40 -20,-11 -45,-21 -74,-29 -30,-9 -64,-18 -103,-27 -41,-10 -78,-19 -109,-29 -30,-9 -56,-21 -76,-34 -20,-13 -35,-29 -45,-48 -10,-19 -15,-44 -15,-73 0,-37 8,-69 22,-97 14,-27 34,-50 59,-68 25,-18 54,-32 87,-41 32,-9 67,-13 104,-13 58,0 110,9 154,29 45,19 80,44 104,75l-40 38c-24,-28 -56,-50 -96,-64 -39,-14 -81,-21 -126,-21 -27,0 -53,2 -77,8 -25,6 -46,15 -64,27 -18,12 -32,28 -43,48 -10,19 -15,42 -15,69 0,22 3,39 10,53 8,13 19,24 35,34 15,9 35,18 60,25 25,7 54,15 88,23 47,12 88,23 124,33 36,10 67,23 91,38 24,16 43,34 55,55 13,20 20,47 20,79 0,67 -26,120 -78,159 -52,40 -121,59 -207,59z"/>
   <path id="23" class="fil1" d="M20735 8737l62 0 428 1011 -77 0 -141 -333 -483 0 -141 333 -78 0 430 -1011zm252 618l-221 -530 -225 530 446 0z"/>
   <path id="24" class="fil1" d="M21569 9762c-157,0 -236,-109 -236,-327l0 -428 71 0 0 418c0,182 62,273 187,273 31,0 61,-5 91,-16 29,-11 57,-26 83,-46 25,-19 48,-43 67,-70 20,-28 35,-58 46,-91l0 -468 72 0 0 641c0,24 10,36 30,36l0 64c-5,1 -9,1 -13,1 -4,0 -7,0 -9,0 -19,0 -36,-5 -50,-17 -15,-12 -22,-28 -22,-48l0 -111c-33,60 -77,106 -134,139 -56,34 -117,50 -183,50z"/>
   <path id="25" class="fil1" d="M22507 9712c-4,2 -11,6 -20,11 -9,5 -20,10 -34,15 -14,5 -29,9 -46,13 -17,4 -36,6 -56,6 -20,0 -38,-3 -56,-9 -17,-6 -33,-14 -46,-26 -13,-11 -24,-25 -32,-41 -7,-16 -11,-35 -11,-57l0 -558 -104 0 0 -59 104 0 0 -253 71 0 0 253 173 0 0 59 -173 0 0 541c0,28 10,48 29,62 19,14 40,21 64,21 29,0 55,-5 76,-15 21,-10 35,-17 39,-20l22 57z"/>
   <path id="26" class="fil1" d="M22924 9762c-52,0 -100,-10 -145,-30 -44,-21 -82,-49 -114,-84 -33,-35 -58,-76 -76,-122 -18,-47 -27,-96 -27,-147 0,-52 9,-101 28,-148 18,-47 44,-87 76,-122 32,-36 71,-63 115,-84 44,-20 92,-30 143,-30 51,0 99,10 142,30 44,21 82,48 115,84 33,35 58,75 77,122 18,47 28,96 28,148 0,51 -10,100 -28,147 -19,46 -44,87 -76,122 -33,35 -71,63 -115,84 -44,20 -92,30 -143,30zm-291 -380c0,44 8,85 23,123 15,39 36,72 62,101 26,28 57,51 92,67 35,17 73,25 113,25 39,0 77,-8 112,-25 35,-16 66,-39 93,-69 26,-29 47,-63 62,-102 16,-38 23,-80 23,-124 0,-44 -7,-85 -23,-123 -15,-39 -36,-73 -62,-102 -27,-29 -58,-52 -92,-69 -35,-17 -72,-25 -112,-25 -40,0 -77,8 -113,25 -35,17 -65,41 -91,70 -27,30 -47,64 -63,103 -16,40 -24,81 -24,125z"/>
   <path id="27" class="fil1" d="M24545 9748l-71 0 0 -413c0,-94 -15,-163 -44,-208 -29,-45 -73,-67 -133,-67 -30,0 -59,6 -87,17 -27,12 -53,27 -75,48 -23,20 -43,45 -59,73 -17,28 -30,59 -40,93l0 457 -71 0 0 -413c0,-95 -14,-165 -43,-209 -28,-44 -72,-66 -132,-66 -30,0 -59,6 -86,16 -27,11 -52,27 -75,47 -23,21 -43,45 -61,73 -17,28 -31,59 -40,93l0 459 -71 0 0 -741 67 0 0 177c30,-60 70,-106 119,-140 50,-33 104,-49 164,-49 63,0 114,18 152,55 39,37 63,86 70,145 71,-134 167,-200 291,-200 81,0 138,28 173,86 35,57 52,138 52,241l0 426z"/>
   <path id="28" class="fil1" d="M24942 9762c-34,0 -66,-6 -95,-18 -30,-11 -55,-28 -78,-48 -22,-20 -39,-45 -52,-73 -12,-28 -18,-58 -18,-90 0,-32 7,-62 23,-88 15,-27 36,-50 63,-69 27,-20 59,-35 97,-46 38,-11 80,-16 126,-16 40,0 80,3 120,10 41,7 77,17 109,30l0 -73c0,-70 -20,-126 -60,-167 -40,-42 -94,-62 -162,-62 -36,0 -74,7 -115,22 -40,16 -81,37 -123,66l-27 -49c95,-64 185,-96 271,-96 89,0 159,25 210,77 52,52 77,123 77,215l0 361c0,24 11,36 32,36l0 64c-5,1 -10,2 -15,2 -5,1 -10,1 -14,1 -19,0 -34,-7 -45,-19 -12,-13 -18,-29 -20,-47l0 -61c-35,45 -78,79 -131,103 -54,23 -111,35 -173,35zm15 -57c55,0 105,-10 151,-31 46,-21 82,-48 106,-83 16,-20 23,-39 23,-57l0 -131c-34,-13 -70,-23 -107,-30 -37,-6 -75,-10 -115,-10 -37,0 -71,4 -101,13 -31,8 -57,19 -79,33 -21,14 -38,32 -50,52 -12,20 -18,43 -18,68 0,24 5,48 14,70 10,21 23,40 40,56 17,15 38,28 61,37 23,9 48,13 75,13z"/>
   <path id="29" class="fil1" d="M25850 9712c-4,2 -11,6 -20,11 -9,5 -20,10 -34,15 -14,5 -29,9 -46,13 -17,4 -36,6 -56,6 -20,0 -38,-3 -56,-9 -17,-6 -33,-14 -46,-26 -13,-11 -24,-25 -32,-41 -7,-16 -11,-35 -11,-57l0 -558 -104 0 0 -59 104 0 0 -253 71 0 0 253 173 0 0 59 -173 0 0 541c0,28 10,48 29,62 19,14 40,21 64,21 29,0 55,-5 76,-15 21,-10 35,-17 39,-20l22 57z"/>
   <path id="30" class="fil1" d="M25975 9748l0 -741 71 0 0 741 -71 0zm0 -909l0 -131 71 0 0 131 -71 0z"/>
   <path id="31" class="fil1" d="M26580 9762c-52,0 -100,-10 -144,-30 -44,-21 -83,-49 -115,-84 -32,-35 -57,-76 -75,-122 -18,-47 -27,-96 -27,-147 0,-52 9,-101 27,-148 19,-47 44,-87 76,-122 33,-36 71,-63 115,-84 44,-20 92,-30 143,-30 52,0 99,10 143,30 43,21 82,48 114,84 33,35 59,75 77,122 19,47 28,96 28,148 0,51 -9,100 -28,147 -18,46 -44,87 -76,122 -32,35 -70,63 -115,84 -44,20 -91,30 -143,30zm-290 -380c0,44 7,85 22,123 16,39 36,72 62,101 27,28 57,51 92,67 35,17 73,25 113,25 40,0 77,-8 112,-25 36,-16 66,-39 93,-69 27,-29 47,-63 63,-102 15,-38 22,-80 22,-124 0,-44 -7,-85 -22,-123 -16,-39 -36,-73 -63,-102 -27,-29 -57,-52 -92,-69 -35,-17 -72,-25 -112,-25 -40,0 -77,8 -112,25 -35,17 -66,41 -92,70 -26,30 -47,64 -63,103 -15,40 -23,81 -23,125z"/>
   <path id="32" class="fil1" d="M27718 9748l-71 0 0 -413c0,-96 -13,-166 -40,-209 -28,-44 -70,-66 -129,-66 -32,0 -63,6 -94,17 -31,12 -59,28 -86,49 -26,20 -50,45 -70,73 -20,28 -34,58 -44,90l0 459 -71 0 0 -741 67 0 0 177c15,-28 34,-54 56,-78 23,-23 48,-43 76,-59 28,-17 57,-30 89,-39 31,-9 63,-13 97,-13 80,0 137,28 170,84 34,57 50,138 50,243l0 426z"/>
   <g>
    <path class="fil2 str0" d="M25016 5211l1484 0c135,0 258,-30 369,-89 111,-59 206,-137 284,-235 78,-98 139,-211 183,-340 44,-128 65,-262 65,-402 0,-143 -25,-280 -75,-408 -50,-129 -117,-241 -202,-337 -85,-95 -185,-171 -301,-225 -115,-55 -236,-82 -363,-82l-1444 0 -2 0 -458 0 3 -405 1921 0c200,0 384,43 552,128 168,84 313,196 435,333 122,137 218,293 287,467 70,174 105,351 105,529 0,192 -33,376 -98,553 -66,176 -157,332 -275,467 -117,135 -258,244 -421,327 -164,82 -345,124 -546,124l-1503 0 0 1712 -457 0 0 -2117 457 0 0 0z"/>
    <path class="fil2 str0" d="M19885 4975c0,-279 49,-556 147,-833 98,-277 241,-524 428,-742 188,-217 418,-395 693,-532 274,-137 586,-206 934,-206 414,0 768,94 1062,281 294,187 511,431 650,732l-359 222c-74,-152 -164,-281 -271,-385 -107,-105 -221,-190 -343,-255 -122,-66 -249,-113 -379,-141 -131,-28 -259,-42 -386,-42 -279,0 -525,56 -738,170 -214,113 -393,261 -539,444 -146,183 -256,389 -330,617 -74,229 -111,461 -111,696 0,257 44,504 134,739 89,235 211,443 365,624 155,181 338,324 549,431 212,107 441,160 690,160 131,0 264,-16 402,-49 137,-32 270,-85 398,-157 129,-71 248,-161 356,-267 109,-107 201,-237 275,-389l379 196c-74,174 -179,328 -314,460 -135,133 -285,246 -451,337 -165,91 -341,161 -526,209 -185,48 -367,72 -545,72 -318,0 -610,-70 -876,-209 -266,-140 -494,-321 -686,-546 -192,-224 -341,-479 -448,-764 -106,-286 -160,-576 -160,-873z"/>
    <polygon class="fil2" points="16301,5201 16301,4815 16815,4815 17665,4815 19360,4815 19360,5201 17795,5201 16815,5201 "/>
    <g>
     <polygon class="fil2" points="16301,3093 16301,2688 19360,2688 19360,3093 17517,3093 16759,3093 "/>
     <polygon class="fil2" points="19418,6923 19418,7328 16301,7328 16301,6923 16759,6923 17633,6923 "/>
    </g>
    <path class="fil2" d="M15289 3557c-131,-148 -305,-268 -523,-359 -218,-92 -466,-137 -745,-137 -410,0 -708,77 -895,232 -188,154 -281,364 -281,630 0,140 25,254 75,343 50,90 127,167 232,232 104,66 238,122 402,170 163,48 356,96 578,144 248,52 472,111 670,176 198,66 367,147 506,245 140,98 246,217 320,357 74,139 111,313 111,522 0,214 -41,399 -124,556 -82,157 -198,287 -346,392 -148,104 -325,182 -529,232 -205,50 -429,75 -673,75 -719,0 -1340,-224 -1863,-673l229 -373c83,88 182,170 297,249 116,78 244,147 386,206 141,58 293,104 454,137 161,33 331,49 510,49 370,0 659,-67 866,-199 206,-133 310,-335 310,-605 0,-144 -29,-265 -88,-363 -59,-98 -147,-183 -265,-254 -118,-72 -264,-134 -438,-187 -174,-52 -377,-104 -608,-157 -243,-56 -457,-115 -640,-176 -183,-61 -338,-137 -464,-229 -126,-91 -221,-201 -284,-330 -63,-128 -95,-286 -95,-473 0,-214 40,-405 121,-572 81,-168 195,-307 343,-418 148,-112 322,-197 523,-255 200,-59 422,-89 666,-89 310,0 585,47 827,141 242,94 461,225 657,395l-222 366z"/>
    <polygon class="fil2" points="11072,7328 11072,2688 11530,2688 11530,7328 "/>
    <polygon class="fil2" points="6002,2698 6435,2698 7092,4353 7755,2698 8195,2698 7381,4688 8274,6796 9962,2665 10461,2665 8484,7328 8077,7328 7099,5023 6114,7328 5713,7328 3743,2665 4235,2665 5930,6796 6816,4688 "/>
   </g>
  </g>
 </g>
</svg>
