<?xml version="1.0" encoding="iso-8859-1"?>
<!-- Generator: Adobe Illustrator 19.0.0, SVG Export Plug-In . SVG Version: 6.00 Build 0)  -->
<svg version="1.1" id="Capa_1" xmlns="http://www.w3.org/2000/svg" xmlns:xlink="http://www.w3.org/1999/xlink" x="0px" y="0px"
	 viewBox="0 0 512 512" style="enable-background:new 0 0 512 512;" xml:space="preserve">
<path style="fill:#00B6BE;" d="M512,106.951v298.098c0,38.075-30.971,69.046-69.046,69.046H69.046
	C30.981,474.095,0,443.124,0,405.049V106.951c0-38.075,30.981-69.046,69.046-69.046h373.908C481.029,37.905,512,68.876,512,106.951z
	"/>
<path style="fill:#007A9F;" d="M512,106.951v298.098c0,38.075-30.971,69.046-69.046,69.046H255.77V37.905h187.184
	C481.029,37.905,512,68.876,512,106.951z"/>
<g>
	<path style="fill:#00DD7B;" d="M74.59,128.215c-0.49,0-0.991-0.02-1.481-0.07c-0.48-0.05-0.971-0.12-1.451-0.22
		c-0.48-0.09-0.961-0.22-1.431-0.36c-0.46-0.14-0.931-0.31-1.381-0.489c-0.45-0.19-0.901-0.4-1.331-0.63
		c-0.43-0.23-0.851-0.48-1.261-0.751c-0.41-0.271-0.811-0.57-1.181-0.882c-0.39-0.31-0.751-0.64-1.101-0.99
		c-2.792-2.792-4.393-6.664-4.393-10.608c0-0.49,0.02-0.991,0.07-1.48c0.05-0.48,0.12-0.972,0.22-1.451
		c0.1-0.48,0.22-0.961,0.36-1.431c0.14-0.471,0.31-0.932,0.5-1.382c0.18-0.449,0.39-0.9,0.62-1.33
		c0.23-0.431,0.49-0.852,0.761-1.262c0.27-0.41,0.56-0.811,0.871-1.181c0.31-0.39,0.64-0.751,0.991-1.101
		c0.35-0.351,0.71-0.681,1.101-0.991c0.37-0.311,0.771-0.601,1.181-0.881c0.41-0.271,0.831-0.521,1.261-0.75
		c0.43-0.23,0.881-0.44,1.331-0.63c0.45-0.181,0.921-0.351,1.381-0.49c0.47-0.141,0.951-0.271,1.431-0.36
		c0.48-0.1,0.971-0.17,1.451-0.22c0.981-0.1,1.971-0.1,2.952,0c0.49,0.05,0.981,0.12,1.461,0.22c0.48,0.09,0.961,0.22,1.421,0.36
		c0.47,0.14,0.931,0.31,1.381,0.49c0.46,0.189,0.901,0.399,1.331,0.63c0.43,0.229,0.861,0.479,1.261,0.75
		c0.41,0.279,0.811,0.569,1.191,0.881c0.38,0.31,0.751,0.64,1.091,0.991c0.35,0.35,0.68,0.71,0.991,1.101
		c0.31,0.37,0.61,0.771,0.881,1.181c0.27,0.41,0.52,0.831,0.75,1.262c0.23,0.43,0.44,0.881,0.63,1.33
		c0.18,0.45,0.35,0.911,0.49,1.382c0.15,0.47,0.27,0.95,0.36,1.431c0.1,0.479,0.17,0.971,0.22,1.451c0.05,0.489,0.08,0.99,0.08,1.48
		c0,3.943-1.601,7.816-4.403,10.608c-0.34,0.35-0.71,0.68-1.091,0.99c-0.38,0.311-0.781,0.61-1.191,0.882
		c-0.4,0.27-0.831,0.52-1.261,0.751c-0.43,0.229-0.871,0.439-1.331,0.63c-0.45,0.18-0.911,0.35-1.381,0.489
		c-0.46,0.141-0.941,0.271-1.421,0.36c-0.48,0.1-0.971,0.17-1.461,0.22C75.57,128.195,75.08,128.215,74.59,128.215z"/>
	<path style="fill:#00DD7B;" d="M134.629,128.215c-0.49,0-0.991-0.02-1.481-0.07c-0.48-0.05-0.971-0.12-1.451-0.22
		c-0.48-0.09-0.961-0.22-1.431-0.36c-0.46-0.14-0.931-0.31-1.381-0.489c-0.45-0.19-0.901-0.4-1.331-0.63
		c-0.43-0.23-0.851-0.48-1.261-0.751c-0.41-0.271-0.811-0.57-1.181-0.882c-0.38-0.31-0.75-0.64-1.101-0.99
		c-2.792-2.792-4.393-6.664-4.393-10.608c0-0.49,0.02-0.991,0.07-1.48c0.05-0.48,0.12-0.972,0.22-1.451
		c0.1-0.48,0.22-0.961,0.36-1.431c0.14-0.471,0.31-0.932,0.5-1.382c0.18-0.449,0.39-0.9,0.62-1.33
		c0.23-0.431,0.49-0.852,0.761-1.262c0.27-0.41,0.56-0.811,0.871-1.181c0.31-0.39,0.64-0.751,0.991-1.101
		c0.35-0.351,0.71-0.681,1.101-0.991c0.37-0.311,0.771-0.601,1.181-0.881c0.41-0.271,0.831-0.521,1.261-0.75
		c0.43-0.23,0.881-0.44,1.331-0.63c0.45-0.181,0.921-0.351,1.381-0.49c0.47-0.141,0.951-0.271,1.431-0.36
		c0.48-0.1,0.971-0.17,1.451-0.22c0.981-0.1,1.971-0.1,2.952,0c0.49,0.05,0.981,0.12,1.461,0.22c0.48,0.09,0.961,0.22,1.421,0.36
		c0.47,0.14,0.931,0.31,1.381,0.49c0.46,0.189,0.901,0.399,1.331,0.63c0.43,0.229,0.861,0.479,1.261,0.75
		c0.41,0.279,0.811,0.569,1.191,0.881c0.38,0.31,0.751,0.64,1.091,0.991c0.35,0.35,0.68,0.71,0.991,1.101
		c0.31,0.37,0.61,0.771,0.881,1.181c0.27,0.41,0.52,0.831,0.75,1.262c0.23,0.43,0.44,0.881,0.63,1.33
		c0.18,0.45,0.35,0.911,0.49,1.382c0.15,0.47,0.27,0.95,0.36,1.431c0.1,0.479,0.17,0.971,0.22,1.451c0.05,0.489,0.08,0.99,0.08,1.48
		c0,3.943-1.601,7.816-4.403,10.608c-0.34,0.35-0.71,0.68-1.091,0.99c-0.38,0.311-0.781,0.61-1.191,0.882
		c-0.4,0.27-0.831,0.52-1.261,0.751c-0.43,0.229-0.881,0.439-1.331,0.63c-0.45,0.18-0.911,0.35-1.381,0.489
		c-0.47,0.141-0.941,0.271-1.421,0.36c-0.48,0.1-0.971,0.17-1.461,0.22C135.61,128.195,135.12,128.215,134.629,128.215z"/>
	<path style="fill:#00DD7B;" d="M194.669,128.215c-0.49,0-0.991-0.02-1.481-0.07c-0.48-0.05-0.971-0.12-1.451-0.22
		c-0.48-0.09-0.961-0.22-1.431-0.36c-0.46-0.14-0.931-0.31-1.381-0.489c-0.45-0.19-0.901-0.4-1.331-0.63
		c-0.43-0.23-0.851-0.48-1.261-0.751c-0.41-0.271-0.811-0.57-1.181-0.882c-0.39-0.31-0.75-0.64-1.101-0.99
		c-2.792-2.792-4.393-6.664-4.393-10.608c0-0.49,0.02-0.991,0.07-1.48c0.05-0.48,0.12-0.972,0.22-1.451
		c0.1-0.48,0.22-0.961,0.36-1.431c0.14-0.471,0.31-0.932,0.5-1.382c0.18-0.449,0.39-0.9,0.62-1.33
		c0.23-0.431,0.49-0.852,0.761-1.262c0.27-0.41,0.56-0.811,0.871-1.181c0.31-0.39,0.64-0.751,0.991-1.101
		c0.35-0.351,0.71-0.681,1.101-0.991c0.37-0.311,0.771-0.601,1.181-0.881c0.41-0.271,0.831-0.521,1.261-0.75
		c0.43-0.23,0.881-0.44,1.331-0.63c0.45-0.181,0.921-0.351,1.381-0.49c0.47-0.141,0.951-0.271,1.431-0.36
		c0.48-0.1,0.971-0.17,1.451-0.22c0.981-0.1,1.971-0.1,2.952,0c0.49,0.05,0.981,0.12,1.461,0.22c0.48,0.09,0.961,0.22,1.421,0.36
		c0.47,0.14,0.931,0.31,1.391,0.49c0.45,0.189,0.891,0.399,1.321,0.63c0.43,0.229,0.861,0.479,1.261,0.75
		c0.41,0.279,0.811,0.569,1.191,0.881c0.38,0.31,0.75,0.64,1.091,0.991c0.35,0.35,0.68,0.71,0.991,1.101
		c0.31,0.37,0.61,0.771,0.881,1.181c0.27,0.41,0.52,0.831,0.75,1.262c0.23,0.43,0.44,0.881,0.63,1.33
		c0.18,0.45,0.35,0.911,0.49,1.382c0.15,0.47,0.27,0.95,0.36,1.431c0.1,0.479,0.17,0.971,0.22,1.451c0.05,0.489,0.08,0.99,0.08,1.48
		c0,3.943-1.601,7.816-4.403,10.608c-0.34,0.35-0.71,0.68-1.091,0.99c-0.38,0.311-0.781,0.61-1.191,0.882
		c-0.4,0.27-0.831,0.52-1.261,0.751c-0.43,0.229-0.871,0.439-1.331,0.63c-0.45,0.18-0.911,0.35-1.381,0.489
		c-0.46,0.141-0.941,0.271-1.421,0.36c-0.48,0.1-0.971,0.17-1.461,0.22C195.65,128.195,195.16,128.215,194.669,128.215z"/>
</g>
<g>
	<path style="fill:#FFFFFF;" d="M170.837,288.837c-3.619,2.058-7.858,3.087-12.721,3.087c-3.868,0-7.547-0.754-11.037-2.268
		c-3.493-1.512-6.206-3.187-8.138-5.027c-1.935-1.839-4.055-3.514-6.36-5.027c-2.31-1.512-4.397-2.27-6.267-2.27
		c-3.367,0-6.331,1.748-8.886,5.238c-2.558,3.492-3.836,6.986-3.836,10.477c0,6.237,4.49,11.851,13.47,16.837
		c8.98,4.989,19.518,7.483,31.617,7.483c13.967,0,25.256-3.58,33.861-10.745c8.606-7.164,12.909-17.176,12.909-30.038
		c0-7.358-1.467-13.905-4.397-19.644c-2.932-5.735-6.58-10.196-10.944-13.376c-4.367-3.181-9.138-6.109-14.312-8.793
		c-5.176-2.681-9.948-4.864-14.312-6.548c-4.367-1.684-8.015-3.709-10.944-6.08c-2.932-2.368-4.397-4.986-4.397-7.857
		c0-3.116,1.558-5.768,4.677-7.951c3.116-2.18,7.793-3.273,14.03-3.273c5.861,0,11.224,1.188,16.09,3.555
		c4.864,2.371,8.044,3.554,9.541,3.554c3.615,0,6.454-1.774,8.512-5.323c2.058-3.549,3.087-6.969,3.087-10.267
		c0-3.466-1.403-6.422-4.21-8.865c-2.806-2.441-6.425-4.207-10.851-5.301c-4.428-1.093-8.419-1.832-11.973-2.218
		c-3.554-0.386-6.955-0.578-10.196-0.578c-13.221,0-24.507,3.273-33.861,9.822c-9.354,6.547-14.03,16.431-14.03,29.652
		c0,8.109,2.025,15.093,6.08,20.953c4.052,5.864,9.009,10.383,14.873,13.564c5.861,3.18,11.693,6.051,17.492,8.606
		c5.8,2.559,10.725,5.397,14.78,8.513c4.052,3.119,6.08,6.734,6.08,10.851C176.263,283.695,174.453,286.778,170.837,288.837z"/>
	<path style="fill:#FFFFFF;" d="M305.163,276.584c0,12.859-4.303,22.875-12.909,30.04c-8.606,7.165-19.903,10.747-33.862,10.747
		c-0.881,0-1.751-0.01-2.622-0.05c-11.007-0.33-20.674-2.812-28.999-7.435c-8.976-4.993-13.469-10.607-13.469-16.841
		c0-3.492,1.281-6.985,3.833-10.477c2.562-3.492,5.524-5.233,8.886-5.233c1.871,0,3.963,0.75,6.274,2.262
		c2.302,1.521,4.423,3.192,6.354,5.033c1.931,1.841,4.653,3.512,8.145,5.023c2.862,1.251,5.854,1.981,8.976,2.191
		c0.68,0.06,1.371,0.08,2.061,0.08c4.863,0,9.096-1.031,12.718-3.092c3.612-2.051,5.424-5.143,5.424-9.256
		c0-4.113-2.031-7.735-6.084-10.847c-3.903-3.002-8.606-5.734-14.119-8.225c-0.21-0.1-0.43-0.19-0.65-0.29
		c-5.804-2.552-11.638-5.424-17.502-8.606c-5.854-3.182-10.817-7.695-14.87-13.559c-4.053-5.864-6.074-12.849-6.074-20.954
		c0-13.229,4.673-23.105,14.029-29.66c7.205-5.043,15.56-8.145,25.067-9.296c2.822-0.35,5.764-0.52,8.796-0.52
		c3.242,0,6.634,0.19,10.197,0.58c3.552,0.38,7.545,1.121,11.968,2.211c4.423,1.101,8.045,2.862,10.847,5.304
		c2.812,2.442,4.213,5.404,4.213,8.866c0,3.302-1.031,6.714-3.082,10.267c-2.061,3.552-4.903,5.324-8.516,5.324
		c-1.501,0-4.673-1.181-9.546-3.552c-4.863-2.372-10.227-3.562-16.081-3.562c-3.402,0-6.334,0.33-8.796,0.981
		c-2.071,0.54-3.823,1.311-5.233,2.302c-3.122,2.181-4.683,4.833-4.683,7.945c0,2.872,1.461,5.494,4.393,7.855
		c1.621,1.311,3.462,2.522,5.524,3.612c1.661,0.901,3.472,1.721,5.424,2.472c4.363,1.681,9.136,3.873,14.31,6.544
		c5.173,2.692,9.947,5.614,14.319,8.796c4.363,3.182,8.005,7.645,10.937,13.379S305.163,269.229,305.163,276.584z"/>
</g>
<path style="fill:#DCE6EB;" d="M399.815,302.771c0,3.492-0.741,6.494-2.241,8.986c-1.491,2.492-3.552,3.742-6.174,3.742h-59.119
	c-3.492,0-6.484-0.781-8.976-2.342c-2.502-1.561-3.742-3.772-3.742-6.644V187.535c0-2.872,1.431-5.053,4.303-6.554
	c2.872-1.491,6.294-2.242,10.287-2.242s7.425,0.751,10.297,2.242c2.862,1.501,4.303,3.682,4.303,6.554v102.518H391.4
	c2.622,0,4.683,1.251,6.174,3.742C399.075,296.287,399.815,299.279,399.815,302.771z"/>
<path style="fill:#FFFFFF;" d="M402.868,364.702c0,8.296-6.714,15.01-15.01,15.01H123.682c-8.296,0-15.01-6.714-15.01-15.01
	c0-8.286,6.714-15.01,15.01-15.01h264.175C396.153,349.692,402.868,356.417,402.868,364.702z"/>
<g>
	<path style="fill:#DCE6EB;" d="M264.566,203.055c-3.402,0-6.334,0.33-8.796,0.981v-25.897c2.822-0.35,5.764-0.52,8.796-0.52
		c3.242,0,6.634,0.19,10.197,0.58c3.552,0.38,7.545,1.121,11.968,2.211c4.423,1.101,8.045,2.862,10.847,5.304
		c2.812,2.442,4.213,5.404,4.213,8.866c0,3.302-1.031,6.714-3.082,10.267c-2.061,3.552-4.903,5.324-8.516,5.324
		c-1.501,0-4.673-1.181-9.546-3.552C275.783,204.246,270.42,203.055,264.566,203.055z"/>
	<path style="fill:#DCE6EB;" d="M305.163,276.584c0,12.859-4.303,22.875-12.909,30.04c-8.606,7.165-19.903,10.747-33.862,10.747
		c-0.881,0-1.751-0.01-2.622-0.05v-25.477c0.68,0.06,1.371,0.08,2.061,0.08c4.863,0,9.096-1.031,12.718-3.092
		c3.612-2.051,5.424-5.143,5.424-9.256c0-4.113-2.031-7.735-6.084-10.847c-3.903-3.002-8.606-5.734-14.119-8.225V225.75
		c1.661,0.901,3.472,1.721,5.424,2.472c4.363,1.681,9.136,3.873,14.31,6.544c5.173,2.692,9.947,5.614,14.319,8.796
		c4.363,3.182,8.005,7.645,10.937,13.379C303.692,262.674,305.163,269.229,305.163,276.584z"/>
	<path style="fill:#DCE6EB;" d="M402.868,364.702c0,8.296-6.714,15.01-15.01,15.01H255.77v-30.02h132.088
		C396.153,349.692,402.868,356.417,402.868,364.702z"/>
</g>
<g>
</g>
<g>
</g>
<g>
</g>
<g>
</g>
<g>
</g>
<g>
</g>
<g>
</g>
<g>
</g>
<g>
</g>
<g>
</g>
<g>
</g>
<g>
</g>
<g>
</g>
<g>
</g>
<g>
</g>
</svg>
