<svg height="512pt" viewBox="0 0 512 512" width="512pt" xmlns="http://www.w3.org/2000/svg"><g fill="#809399"><path d="m215.425781 4.855469-28.964843 72.40625h139.078124l-28.964843-72.40625c-1.171875-2.933594-4.015625-4.855469-7.171875-4.855469h-66.804688c-3.15625 0-6 1.921875-7.171875 4.855469zm0 0"/><path d="m49.726562 107.105469 30.71875 71.679687 98.339844-98.339844-71.679687-30.71875c-2.902344-1.246093-6.273438-.597656-8.507813 1.636719l-47.234375 47.234375c-2.234375 2.234375-2.882812 5.605469-1.636719 8.507813zm0 0"/><path d="m4.855469 296.574219 72.40625 28.964843v-139.078124l-72.40625 28.964843c-2.933594 1.171875-4.855469 4.015625-4.855469 7.171875v66.804688c0 3.15625 1.921875 6 4.855469 7.171875zm0 0"/><path d="m107.105469 462.273438 71.679687-30.71875-98.339844-98.339844-30.71875 71.679687c-1.246093 2.902344-.597656 6.273438 1.636719 8.507813l47.234375 47.234375c2.234375 2.234375 5.605469 2.882812 8.507813 1.636719zm0 0"/><path d="m296.574219 507.144531 28.964843-72.40625h-139.078124l28.964843 72.40625c1.171875 2.929688 4.015625 4.855469 7.171875 4.855469h66.804688c3.15625 0 6-1.921875 7.171875-4.855469zm0 0"/><path d="m462.273438 404.894531-30.71875-71.679687-98.339844 98.339844 71.679687 30.71875c2.902344 1.246093 6.273438.597656 8.507813-1.636719l47.234375-47.234375c2.234375-2.234375 2.882812-5.605469 1.636719-8.507813zm0 0"/><path d="m507.144531 215.425781-72.40625-28.964843v139.078124l72.40625-28.964843c2.929688-1.171875 4.855469-4.015625 4.855469-7.171875v-66.804688c0-3.15625-1.921875-6-4.855469-7.171875zm0 0"/><path d="m404.894531 49.726562-71.679687 30.71875 98.339844 98.339844 30.71875-71.679687c1.246093-2.902344.597656-6.273438-1.636719-8.507813l-47.234375-47.234375c-2.234375-2.234375-5.605469-2.882812-8.507813-1.636719zm0 0"/></g><path d="m256 39.660156c-119.292969 0-216.339844 97.058594-216.339844 216.339844 0 119.292969 97.046875 216.339844 216.339844 216.339844s216.339844-97.046875 216.339844-216.339844c0-119.28125-97.046875-216.339844-216.339844-216.339844zm0 0" fill="#9cb5bb"/><path d="m256 93.746094c-89.609375 0-162.253906 72.644531-162.253906 162.253906s72.644531 162.253906 162.253906 162.253906 162.253906-72.644531 162.253906-162.253906-72.644531-162.253906-162.253906-162.253906zm0 0" fill="#809399"/><path d="m387.347656 256c0 72.542969-58.804687 131.347656-131.347656 131.347656s-131.347656-58.804687-131.347656-131.347656 58.804687-131.347656 131.347656-131.347656 131.347656 58.804687 131.347656 131.347656zm0 0" fill="#fff"/><path d="m170.058594 206.382812c-.667969 1.15625-1.035156 2.480469-1.035156 3.863282l-.011719 91.515625c0 2.761719 1.472656 5.316406 3.863281 6.695312l79.261719 45.753907c1.195312.691406 2.527343 1.035156 3.859375 1.035156l30.90625-148.863282zm0 0" fill="#ffc43b"/><path d="m341.949219 206.375h-76.230469l46.359375 117.691406 27.042969-15.613281c2.390625-1.382813 3.863281-3.929687 3.863281-6.691406v-91.523438c0-1.378906-.367187-2.707031-1.035156-3.863281zm0 0" fill="#ff852b"/><path d="m255.996094 223.621094v131.625c1.335937 0 2.671875-.34375 3.867187-1.035156l52.214844-30.144532v-100.445312zm0 0" fill="#ffa433"/><path d="m255.996094 254.804688c1.335937 0 2.671875-.34375 3.867187-1.035157l82.085938-47.394531c-.667969-1.15625-1.632813-2.136719-2.828125-2.828125l-79.253906-45.761719c-2.390626-1.378906-5.335938-1.378906-7.726563 0l-79.253906 45.769532c-1.195313.6875-2.160157 1.671874-2.828125 2.828124l82.082031 47.386719c1.191406.6875 2.523437 1.035157 3.855469 1.035157zm0 0" fill="#ffd87c"/></svg>