<svg height="478pt" viewBox="-19 0 478 478.42102" width="478pt" xmlns="http://www.w3.org/2000/svg" xmlns:xlink="http://www.w3.org/1999/xlink"><linearGradient id="a"><stop offset="0" stop-color="#00efd1"/><stop offset="1" stop-color="#00acea"/></linearGradient><linearGradient id="b" gradientUnits="userSpaceOnUse" x1="220.210936" x2="220.210936" xlink:href="#a" y1="-.992984" y2="477.947016"/><linearGradient id="c" gradientUnits="userSpaceOnUse" x1="219.710936" x2="219.710936" xlink:href="#a" y1="-.992984" y2="477.947016"/><linearGradient id="d" gradientUnits="userSpaceOnUse" x1="139.710936" x2="139.710936" xlink:href="#a" y1="-.992984" y2="477.947016"/><linearGradient id="e" gradientUnits="userSpaceOnUse" x1="290.394936" x2="290.394936" xlink:href="#a" y1="-.992984" y2="477.947016"/><path d="m432.347656.0078125h-424.273437c-2.0625-.0898437-4.070313.6718755-5.558594 2.1054685-1.484375 1.433594-2.320313 3.410157-2.304687 5.476563v304.644531c-.023438 2.085937.800781 4.089844 2.285156 5.554687 1.480468 1.464844 3.496094 2.265626 5.578125 2.21875h198.777343l-2.640624 2.089844c-2.140626 1.621094-3.398438 4.148438-3.398438 6.832032-.003906 2.683593 1.253906 5.214843 3.390625 6.835937l13.1875 9.921875-7.605469 14.648438c-1.226562 2.375-1.261718 5.1875-.097656 7.59375 1.167969 2.40625 3.394531 4.121093 6.019531 4.636718l16.136719 3.140625-.515625 16.488281c-.132813 4.183594 2.816406 7.839844 6.9375 8.585938l-18.164063 44.101562c-1.914062 4.636719-.953124 9.964844 2.453126 13.648438 3.410156 3.683594 8.648437 5.050781 13.421874 3.503906l16.148438-5.226562 7.015625 14.378906c2.160156 4.421875 6.652344 7.230469 11.574219 7.234375.140625 0 .285156 0 .425781-.007813 5.074219-.167968 9.578125-3.300781 11.5-8l8.050781-19.71875 7.46875 18.253907c1.890625 4.726562 6.410156 7.875 11.5 8 .152344 0 .300782.011719.449219.011719 4.925781.027343 9.425781-2.789063 11.550781-7.234376l7.015625-14.382812 16.148438 5.230469c4.773437 1.546875 10.011719.179687 13.421875-3.503907 3.40625-3.683593 4.367187-9.011718 2.453125-13.652343l-17.609375-42.765625c3.859375-.960938 6.519531-4.492188 6.382812-8.46875l-.515625-16.476563 16.140625-3.140625c2.628906-.515625 4.859375-2.234375 6.019532-4.644531 1.164062-2.410156 1.121093-5.226563-.109376-7.601563l-7.601562-14.621093 13.195312-9.910157c2.128907-1.609374 3.382813-4.121093 3.386719-6.792968-.007812-2.699219-1.261719-5.246094-3.402343-6.898438l-2.644532-2.089844h58.40625c2.082032.046876 4.097656-.753906 5.578125-2.21875 1.484375-1.464843 2.308594-3.46875 2.285157-5.554687v-304.644531c.015624-2.066406-.820313-4.042969-2.304688-5.476563-1.488281-1.433593-3.496094-2.1953122-5.558594-2.1054685zm-161.886718 457.8984375-5.148438-10.546875c-2.832031-5.746094-9.441406-8.554687-15.542969-6.605469l-12.3125 3.984375 19.808594-48.085937.628906-.164063 6.699219 15.082031c.957031 2.152344 2.761719 3.804688 4.984375 4.570313 2.226563.765625 4.667969.570313 6.742187-.535156l5.710938 13.949219zm60.554687-18.617188c-6.101563-1.945312-12.710937.863282-15.539063 6.609376l-5.148437 10.550781-21.097656-51.550781 1.164062-.992188 12.539063 10.671875c1.539062 1.308594 3.496094 2.027344 5.519531 2.023437.628906 0 1.257813-.070312 1.871094-.207031 2.605469-.601562 4.78125-2.390625 5.871093-4.832031l6.699219-15.074219 1.304688.339844 19.128906 46.449219zm15.253906-91.722656 5.898438 11.285156-12.558594 2.410157c-4.082031.78125-6.988281 4.421875-6.851563 8.578125l.398438 12.804687-12.378906-3.246093c-4.023438-1.070313-8.230469.949218-9.914063 4.761718l-5.207031 11.722656-9.769531-8.3125c-3.164063-2.703124-7.828125-2.699218-10.988281.007813l-9.757813 8.300781-5.207031-11.71875c-1.347656-3.070312-4.382813-5.050781-7.738282-5.054687-.730468 0-1.460937.097656-2.171874.28125l-12.386719 3.246093.398437-12.800781c.152344-4.167969-2.761718-7.824219-6.859375-8.609375l-12.550781-2.441406 5.894531-11.339844c1.933594-3.679687.90625-8.222656-2.429687-10.710937l-10.269532-7.714844 10.253907-7.679687c3.335937-2.484376 4.375-7.023438 2.453125-10.710938l-5.902344-11.351562 12.542969-2.441407c4.097656-.777343 7.015625-4.433593 6.867187-8.601562l-.398437-12.816407 12.386719 3.246094c4.023437 1.066406 8.226562-.957031 9.902343-4.765625l5.210938-11.726562 9.742187 8.292969c3.164063 2.722656 7.84375 2.730468 11.015625.011718l9.757813-8.300781 5.214844 11.738281c1.679687 3.804688 5.878906 5.820313 9.898437 4.75l12.386719-3.242187-.402344 12.835937c-.128906 4.160156 2.78125 7.792969 6.863281 8.574219l12.550781 2.445313-5.894531 11.34375c-1.933593 3.6875-.898437 8.230468 2.441407 10.714843l10.261718 7.824219-10.269531 7.851562c-3.339844 2-4.359375 6.875-2.433594 10.558594zm77.941407-43.558594h-56.601563l3.378906-6.386718c1.230469-2.363282 1.269531-5.171875.105469-7.570313-1.164062-2.394531-3.394531-4.101562-6.015625-4.59375l-16.136719-3.125.515625-16.480469c.078125-2.675781-1.105469-5.226562-3.199219-6.894531-2.09375-1.664062-4.847656-2.246093-7.433593-1.566406l-15.9375 4.175781-6.691407-15.066406c-1.085937-2.449219-3.261718-4.242188-5.871093-4.839844-2.613281-.59375-5.351563.078125-7.390625 1.8125l-12.542969 10.671875-12.550781-10.675781c-2.039063-1.734375-4.773438-2.402344-7.382813-1.808594-2.605469.597656-4.78125 2.386719-5.867187 4.832032l-6.699219 15.074218-15.925781-4.171875c-2.589844-.683593-5.351563-.101562-7.449219 1.566407-2.09375 1.667968-3.28125 4.230468-3.195313 6.90625l.515626 16.476562-16.125 3.140625c-2.621094.515625-4.851563 2.230469-6.019532 4.632813-1.160156 2.375-1.121094 5.160156.105469 7.5l3.378906 6.390624h-196.964843v-288h408zm0 0" fill="url(#b)"/><path d="m53.210938 148.007812h333c4.417968 0 8-3.582031 8-8 0-4.417968-3.582032-8-8-8h-333c-4.417969 0-8 3.582032-8 8 0 4.417969 3.582031 8 8 8zm0 0" fill="url(#c)"/><path d="m53.210938 106.007812h173c4.417968 0 8-3.582031 8-8 0-4.417968-3.582032-8-8-8h-173c-4.417969 0-8 3.582032-8 8 0 4.417969 3.582031 8 8 8zm0 0" fill="url(#d)"/><path d="m53.210938 191.007812h333c4.417968 0 8-3.582031 8-8 0-4.417968-3.582032-8-8-8h-333c-4.417969 0-8 3.582032-8 8 0 4.417969 3.582031 8 8 8zm0 0" fill="url(#c)"/><path d="m53.210938 233.007812h333c4.417968 0 8-3.582031 8-8 0-4.417968-3.582032-8-8-8h-333c-4.417969 0-8 3.582032-8 8 0 4.417969 3.582031 8 8 8zm0 0" fill="url(#c)"/><path d="m290.394531 283.4375c-25.179687 0-45.589843 20.410156-45.589843 45.589844 0 25.175781 20.410156 45.589844 45.589843 45.589844 25.175781 0 45.589844-20.410157 45.589844-45.589844-.03125-25.167969-20.421875-45.5625-45.589844-45.589844zm0 75.179688c-16.339843 0-29.589843-13.246094-29.589843-29.589844 0-16.339844 13.246093-29.589844 29.589843-29.589844 16.339844 0 29.589844 13.246094 29.589844 29.589844-.019531 16.332031-13.253906 29.570312-29.589844 29.589844zm0 0" fill="url(#e)"/></svg>