<?xml version="1.0" encoding="UTF-8"?>
<!DOCTYPE svg PUBLIC "-//W3C//DTD SVG 1.1//EN" "http://www.w3.org/Graphics/SVG/1.1/DTD/svg11.dtd">
<!-- Creator: CorelDRAW X7 -->
<svg xmlns="http://www.w3.org/2000/svg" xml:space="preserve" width="80.8661mm" height="14.9583mm" version="1.1" style="shape-rendering:geometricPrecision; text-rendering:geometricPrecision; image-rendering:optimizeQuality; fill-rule:evenodd; clip-rule:evenodd"
viewBox="0 0 2939 544"
 xmlns:xlink="http://www.w3.org/1999/xlink">
 <defs>
  <style type="text/css">
   <![CDATA[
    .fil0 {fill:#4C6470;fill-rule:nonzero}
   ]]>
  </style>
 </defs>
 <g id="Layer_x0020_1">
  <metadata id="CorelCorpID_0Corel-Layer"/>
  <path class="fil0" d="M742 11l34 0 168 405 -42 0 -53 -126 -182 0 -51 126 -43 0 169 -405zm98 247l-81 -200 -83 200 164 0z"/>
  <path id="1" class="fil0" d="M1244 416l-39 0 0 -166c0,-35 -5,-61 -15,-77 -11,-16 -27,-24 -48,-24 -12,0 -23,3 -35,7 -11,4 -22,10 -31,17 -10,8 -19,17 -26,28 -8,10 -13,21 -17,33l0 182 -39 0 0 -297 36 0 0 68c12,-22 29,-40 52,-53 23,-13 47,-20 74,-20 16,0 30,3 41,9 12,6 21,15 28,26 7,11 12,24 15,40 3,16 4,34 4,53l0 174z"/>
  <path id="2" class="fil0" d="M1402 422c-14,0 -27,-2 -39,-7 -12,-5 -23,-11 -32,-20 -9,-8 -16,-18 -21,-29 -5,-11 -7,-23 -7,-36 0,-13 3,-25 9,-36 6,-11 15,-21 26,-29 11,-8 24,-14 39,-18 15,-5 32,-7 50,-7 16,0 31,2 47,4 15,3 29,7 41,12l0 -27c0,-26 -7,-47 -22,-63 -15,-15 -35,-23 -62,-23 -15,0 -30,3 -46,9 -16,6 -33,15 -49,27l-14 -26c39,-26 76,-39 112,-39 37,0 67,11 88,31 21,21 32,50 32,87l0 134c0,11 5,16 14,16l0 34c-6,2 -11,2 -15,2 -9,0 -17,-2 -23,-7 -5,-5 -8,-12 -9,-21l-1 -23c-13,18 -31,31 -51,41 -21,9 -43,14 -67,14zm9 -30c20,0 38,-3 55,-11 17,-8 30,-18 39,-30 3,-4 6,-7 8,-11 1,-4 2,-8 2,-11l0 -49c-13,-5 -26,-9 -40,-11 -14,-3 -28,-4 -43,-4 -27,0 -49,5 -66,17 -17,11 -26,26 -26,45 0,9 2,18 5,26 4,8 9,14 15,20 7,6 14,11 23,14 9,4 18,5 28,5z"/>
  <path id="3" class="fil0" d="M1640 0l38 0 0 349c0,11 3,20 9,26 7,6 15,10 26,10 4,0 9,-1 15,-2 6,-1 11,-3 16,-5l7 32c-7,3 -16,5 -27,7 -10,2 -19,3 -27,3 -18,0 -32,-5 -42,-15 -10,-10 -15,-24 -15,-43l0 -362z"/>
  <path id="4" class="fil0" d="M1804 508c3,0 6,0 9,1 3,0 5,0 8,0 7,0 12,-1 16,-3 4,-2 8,-6 12,-13 4,-6 8,-15 13,-27 5,-13 11,-29 20,-50l-129 -297 39 0 111 262 102 -262 37 0 -154 384c-4,11 -11,20 -21,28 -10,9 -23,13 -40,13 -4,0 -7,0 -11,-1 -3,0 -7,0 -12,-1l0 -34z"/>
  <path id="5" class="fil0" d="M2239 402c-3,1 -6,3 -10,5 -5,2 -10,4 -16,5 -5,2 -12,4 -19,6 -7,1 -15,2 -23,2 -8,0 -16,-1 -24,-4 -7,-2 -14,-5 -20,-10 -5,-5 -10,-11 -13,-18 -4,-7 -6,-16 -6,-25l0 -213 -41 0 0 -31 41 0 0 -100 39 0 0 100 69 0 0 31 -69 0 0 202c1,11 5,19 12,24 7,5 15,8 24,8 11,0 21,-2 29,-5 9,-4 14,-7 16,-8l11 31z"/>
  <path id="6" class="fil0" d="M2287 416l0 -297 39 0 0 297 -39 0zm0 -359l0 -57 39 0 0 57 -39 0z"/>
  <path id="7" class="fil0" d="M2391 267c0,-21 3,-41 11,-59 7,-19 17,-35 30,-49 13,-14 29,-25 47,-33 19,-8 39,-12 61,-12 28,0 52,6 73,19 21,13 37,30 48,52l-38 12c-8,-15 -20,-27 -35,-36 -15,-8 -32,-13 -50,-13 -15,0 -29,3 -42,9 -14,7 -25,15 -35,25 -9,11 -17,23 -22,38 -6,14 -9,30 -9,47 0,17 3,33 9,47 6,15 13,28 23,39 10,11 22,19 35,26 13,6 27,9 42,9 9,0 19,-1 28,-4 9,-3 18,-6 26,-11 8,-5 15,-10 20,-16 6,-7 10,-13 12,-20l39 12c-5,10 -11,20 -19,29 -8,9 -17,17 -28,23 -11,7 -23,12 -36,16 -13,3 -27,5 -41,5 -21,0 -41,-4 -60,-12 -18,-8 -34,-20 -47,-34 -13,-14 -24,-30 -31,-49 -7,-19 -11,-39 -11,-60z"/>
  <path id="8" class="fil0" d="M2823 422c-23,0 -46,-4 -68,-11 -22,-8 -41,-19 -57,-33l18 -27c17,14 34,24 51,31 17,7 36,10 56,10 24,0 43,-4 57,-14 14,-10 21,-24 21,-41 0,-9 -1,-16 -5,-21 -4,-6 -10,-11 -17,-15 -7,-4 -17,-8 -28,-11 -11,-3 -24,-6 -39,-10 -17,-4 -32,-8 -45,-12 -12,-5 -23,-9 -31,-15 -8,-5 -14,-12 -18,-19 -4,-8 -6,-18 -6,-30 0,-15 3,-28 9,-39 6,-12 14,-21 24,-28 10,-8 22,-13 35,-17 14,-4 28,-6 43,-6 23,0 44,4 62,11 19,8 34,17 46,30l-19 22c-11,-11 -25,-20 -40,-25 -16,-6 -33,-9 -50,-9 -10,0 -20,1 -28,3 -9,2 -17,6 -23,10 -7,5 -12,11 -16,18 -4,7 -6,15 -6,25 0,8 1,14 4,19 3,5 7,9 13,13 6,3 14,7 23,9 10,3 21,6 34,9 19,5 36,9 51,14 14,5 26,10 36,16 9,6 17,13 22,22 5,9 7,20 7,32 0,28 -10,49 -31,65 -21,16 -49,24 -85,24z"/>
  <polygon class="fil0" points="194,2 256,2 308,144 360,2 422,2 350,189 413,343 544,0 616,0 443,420 386,420 308,232 230,420 173,420 0,0 72,0 203,343 266,189 "/>
 </g>
</svg>
