<?xml version="1.0" encoding="UTF-8"?>
<!DOCTYPE svg PUBLIC "-//W3C//DTD SVG 1.1//EN" "http://www.w3.org/Graphics/SVG/1.1/DTD/svg11.dtd">
<!-- Creator: CorelDRAW X7 -->
<svg xmlns="http://www.w3.org/2000/svg" xml:space="preserve" width="127.127mm" height="97.2684mm" version="1.1" style="shape-rendering:geometricPrecision; text-rendering:geometricPrecision; image-rendering:optimizeQuality; fill-rule:evenodd; clip-rule:evenodd"
viewBox="0 0 1324 1013"
 xmlns:xlink="http://www.w3.org/1999/xlink">
 <defs>
  <style type="text/css">
   <![CDATA[
    .fil1 {fill:#F0F8FC;fill-rule:nonzero}
    .fil0 {fill:#BBE1E8;fill-rule:nonzero}
    .fil2 {fill:#095174;fill-rule:nonzero}
   ]]>
  </style>
 </defs>
 <g id="Layer_x0020_1">
  <metadata id="CorelCorpID_0Corel-Layer"/>
  <path class="fil0" d="M493 662l496 0c106,0 142,-53 142,-202 0,-149 -84,-349 -350,-349 -266,0 -366,160 -388,307 -22,148 -4,244 100,244z"/>
  <path class="fil0" d="M480 427c21,-143 129,-263 387,-263 42,0 84,2 126,6 -63,-41 -137,-62 -212,-59 -266,0 -366,160 -388,307 -22,148 -4,244 100,244l84 0c-101,0 -118,-93 -97,-235z"/>
  <path class="fil1" d="M1061 454l0 -2c-1,-120 -99,-217 -219,-217l-151 0c-134,0 -235,142 -202,256 33,115 171,98 288,98l150 0c74,0 134,-60 134,-133l0 -2z"/>
  <path class="fil2" d="M674 401c0,15 -12,27 -27,27 -15,0 -27,-12 -27,-27 0,-15 12,-27 27,-27l0 0c15,0 27,12 27,27z"/>
  <path class="fil2" d="M941 401c0,15 -12,27 -27,27 -15,0 -27,-12 -27,-27 0,-15 12,-27 27,-27l0 0c15,0 27,12 27,27z"/>
  <path class="fil0" d="M469 40c-20,-9 -41,-15 -62,-19 -4,-14 -18,-24 -33,-20 -14,3 -23,17 -20,32 3,15 18,24 32,20 9,-1 16,-8 19,-16 20,3 39,9 58,17 53,23 94,69 111,124l15 -5c-19,-60 -63,-108 -120,-133z"/>
  <path class="fil0" d="M469 1013c0,-35 -1,-67 -1,-93 0,-77 18,-171 124,-190 124,-18 248,-28 373,-27 -7,-1 -14,-1 -22,-1 -150,-3 -299,7 -448,28 -106,19 -124,113 -124,190 0,26 1,58 1,93l97 0z"/>
  <path class="fil2" d="M542 723c-60,6 -120,8 -179,5 -59,-2 -113,-29 -151,-73 -48,-55 -95,-151 -85,-314l-49 0c-14,76 -14,155 1,232 35,153 159,270 314,297 92,47 432,-92 432,-92 0,0 -140,-69 -283,-55z"/>
  <path class="fil2" d="M169 311c-2,2 -4,5 -6,7 -11,13 -31,15 -44,4 -6,-6 -10,-14 -11,-22l0 -9c1,-2 1,-4 1,-5l0 -58c0,-9 -7,-16 -16,-16 -9,0 -16,7 -16,16 0,0 0,0 0,0l0 58c0,0 0,1 0,2 -2,0 -3,1 -5,2l-4 -42c-1,-9 -9,-16 -18,-15 0,0 0,0 0,0 -9,1 -15,10 -14,19l5 49c-2,1 -4,1 -5,2l-4 -23c-2,-9 -10,-15 -19,-13 -8,1 -14,9 -13,18 0,0 0,0 0,0l10 56c0,2 1,3 1,5 4,19 14,36 29,48 24,16 55,20 82,9 2,0 2,-1 3,-1 0,0 1,0 1,0 27,-7 51,-26 70,-74 19,-47 -9,-45 -27,-17z"/>
  <path class="fil2" d="M1250 1011l74 0c-3,-8 -5,-23 -8,-31 -42,-123 -138,-255 -294,-268l16 102c0,0 137,34 212,197z"/>
  <path class="fil2" d="M793 521c-27,0 -54,-11 -73,-30 -3,-4 -3,-9 0,-12 4,-3 9,-3 12,1l0 0c27,26 67,32 101,16 4,-2 9,0 10,4 2,5 0,9 -4,11 -15,6 -30,9 -46,10z"/>
  <path class="fil0" d="M1122 1013l0 -188c0,0 17,-123 -179,-123 -150,-3 -299,7 -448,28 -106,19 -124,113 -124,190 0,26 1,58 1,93l750 0z"/>
 </g>
</svg>
