<?xml version="1.0" encoding="UTF-8"?>
<!DOCTYPE svg PUBLIC "-//W3C//DTD SVG 1.1//EN" "http://www.w3.org/Graphics/SVG/1.1/DTD/svg11.dtd">
<!-- Creator: CorelDRAW X7 -->
<svg xmlns="http://www.w3.org/2000/svg" xml:space="preserve" width="143.3mm" height="147.671mm" version="1.1" style="shape-rendering:geometricPrecision; text-rendering:geometricPrecision; image-rendering:optimizeQuality; fill-rule:evenodd; clip-rule:evenodd"
viewBox="0 0 1131 1166"
 xmlns:xlink="http://www.w3.org/1999/xlink">
 <defs>
  <style type="text/css">
   <![CDATA[
    .str0 {stroke:#095174;stroke-width:5.92159}
    .fil9 {fill:none;fill-rule:nonzero}
    .fil0 {fill:#FBCB04;fill-rule:nonzero}
    .fil5 {fill:#F0F8FC;fill-rule:nonzero}
    .fil4 {fill:#E4F2F3;fill-rule:nonzero}
    .fil3 {fill:#D9EEF3;fill-rule:nonzero}
    .fil6 {fill:#C8E2DD;fill-rule:nonzero}
    .fil2 {fill:#BBE1E8;fill-rule:nonzero}
    .fil7 {fill:#97D0D3;fill-rule:nonzero}
    .fil1 {fill:#095174;fill-rule:nonzero}
    .fil8 {fill:#095174;fill-rule:nonzero}
   ]]>
  </style>
 </defs>
 <g id="Layer_x0020_1">
  <metadata id="CorelCorpID_0Corel-Layer"/>
  <path class="fil0" d="M1098 606c-6,2 -13,0 -16,-6 -3,-6 0,-14 6,-16 6,-3 13,-1 16,5l0 0c3,6 0,14 -6,17l0 0zm-143 -238l106 242c8,19 29,27 48,19 19,-8 27,-30 19,-48 0,-1 0,-2 -1,-3l-121 -234c39,-36 41,-97 5,-136 -11,-12 -25,-21 -41,-26l-17 8 28 60 -30 47 -54 -7 -29 -59 -17 8c-19,50 6,105 55,124 16,6 32,8 49,5l0 0z"/>
  <path class="fil1" d="M977 433c-19,17 -22,44 -9,65 12,21 32,35 55,40 15,2 29,-2 41,-11l0 0c2,-2 4,-3 5,-5l18 -22c6,-8 5,-19 -2,-25 -4,-3 -9,-4 -13,-4l2 -2c7,-7 7,-18 0,-25 -3,-2 -7,-4 -10,-5l0 0c7,-5 9,-15 3,-23l-1 -1c-5,-8 -15,-9 -23,-4l-13 10c-1,-4 -2,-7 -5,-10 -6,-7 -17,-8 -24,-1l-21 19c-2,1 -3,3 -3,4z"/>
  <path class="fil1" d="M643 534c-15,13 -16,35 -2,50 3,3 7,6 11,8 67,30 143,31 211,5 48,-21 92,-49 132,-83l-20 -28c-138,105 -245,68 -288,42 -14,-8 -31,-7 -43,4l-1 2z"/>
  <path class="fil1" d="M211 1166l138 0c-1,-30 -23,-54 -53,-58 -15,-2 -31,-3 -47,-2l17 -187 -61 -21 13 213c-2,1 -4,2 -4,2l-3 53z"/>
  <path class="fil1" d="M607 1166l138 0c-1,-30 -23,-54 -53,-58 -16,-2 -31,-3 -47,-2l17 -187 -61 -21 12 213c-2,1 -3,2 -3,2l-3 53z"/>
  <path class="fil2" d="M161 631c0,61 2,163 3,242 0,25 21,46 46,46l444 0c26,0 47,-21 47,-47l0 -309c0,0 12,-81 -128,-81 -141,0 -246,-1 -323,12 -76,14 -89,82 -89,137z"/>
  <path class="fil3" d="M233 873c0,-79 -2,-181 -2,-242 0,-55 13,-123 89,-137 67,-11 154,-10 268,-11 -5,0 -10,-1 -15,-1 -141,0 -246,-1 -323,12 -76,14 -89,82 -89,137 0,61 2,163 3,242 0,25 21,46 46,46l70 0c-26,0 -46,-21 -47,-46z"/>
  <path class="fil2" d="M242 459l357 0c76,0 102,-38 102,-146 0,-107 -61,-251 -252,-251 -192,0 -263,115 -279,221 -16,107 -3,176 72,176z"/>
  <path class="fil3" d="M233 289c15,-102 92,-189 278,-189 30,0 60,2 90,5 -45,-30 -98,-45 -152,-43 -192,0 -263,115 -279,221 -16,107 -3,176 72,176l60 0c-72,0 -84,-67 -69,-170z"/>
  <path class="fil4" d="M671 313c0,-37 -7,-74 -22,-109 -12,-29 -40,-48 -71,-48l-173 0c-97,0 -169,102 -145,185 23,82 123,70 207,70l141 0c32,0 58,-25 61,-57 1,-12 2,-26 2,-41z"/>
  <path class="fil5" d="M671 313c0,-37 -7,-74 -22,-109 -12,-29 -40,-48 -71,-48l-173 0c-97,0 -169,102 -145,185 23,82 123,70 207,70l141 0c32,0 58,-25 61,-57 1,-12 2,-26 2,-41z"/>
  <path class="fil1" d="M413 253c0,11 -8,19 -19,19 -11,0 -20,-8 -20,-19 0,-11 9,-19 20,-19 11,0 19,8 19,19l0 0z"/>
  <path class="fil1" d="M605 253c0,11 -9,19 -19,19 -11,0 -20,-8 -20,-19 0,-11 9,-19 20,-19l0 0c10,0 19,8 19,19z"/>
  <path class="fil6" d="M177 29c-18,-7 -36,-11 -55,-12 -4,-13 -17,-20 -30,-16 -12,4 -19,17 -15,30 4,12 17,19 29,15 8,-2 14,-8 16,-15 17,1 34,5 51,11 48,16 87,53 106,100l12 -6c-20,-50 -62,-90 -114,-107z"/>
  <path class="fil7" d="M494 484l1 85c0,7 6,12 13,12 6,0 12,-5 12,-12l0 -86c0,-1 0,1 0,0 0,0 -26,0 -26,1z"/>
  <path class="fil7" d="M649 204c-12,-29 -40,-48 -71,-48l-173 0c-22,0 -44,5 -63,16 17,-7 34,-11 52,-11l173 0c31,0 60,19 72,48 14,34 21,72 21,109 0,15 0,29 -1,41 -2,20 -14,38 -31,48 23,-8 39,-29 41,-53 1,-12 2,-26 2,-41 0,-37 -7,-74 -22,-109z"/>
  <path class="fil1" d="M134 884c-5,-39 -28,-57 -50,-60 0,0 0,0 0,0 -1,0 -2,0 -2,-1 -23,-5 -46,0 -63,15 -11,11 -17,25 -18,40 -1,3 -1,6 -1,8l4 31c1,9 9,16 18,16 0,0 1,0 1,0 4,-1 8,-4 11,-8l0 4c0,10 7,18 17,18 0,0 0,0 0,0 4,0 7,-2 10,-5l0 1c-1,9 4,17 13,19l3 1c8,0 16,-6 17,-15 0,0 0,-1 0,-1l2 -18 0 -52c0,0 14,5 16,30 3,25 27,17 22,-23z"/>
  <path class="fil1" d="M229 545c-4,-13 -17,-20 -30,-16 -2,0 -4,1 -6,2 -59,35 -104,90 -127,155 -19,58 -27,119 -23,179l33 0c10,-155 78,-225 125,-256 24,-12 35,-39 28,-64z"/>
  <path class="fil1" d="M498 359c-22,0 -44,-9 -60,-25 -2,-2 -2,-7 0,-9 3,-3 7,-3 10,0 22,21 55,27 83,14 3,-2 7,0 9,3 1,4 -1,8 -4,9 -12,5 -25,8 -38,8z"/>
  <g id="_1992713154848">
   <path class="fil8" d="M350 775c-2,0 -4,-1 -5,-4l-10 -22 -11 22c-1,3 -3,4 -5,4 -2,0 -4,-1 -5,-4l-31 -67c-1,-2 -1,-3 -1,-5 1,-1 2,-2 3,-3 2,0 3,-1 5,0 1,1 3,2 3,3l26 56 10 -22c1,-3 3,-4 6,-4 2,0 4,1 5,4l10 22 26 -56c1,-1 2,-2 3,-3 2,-1 3,0 5,0 1,1 2,2 3,3 0,2 0,3 -1,5l-31 67c-1,3 -2,4 -5,4z"/>
   <path id="1" class="fil8" d="M463 735c5,-4 8,-10 8,-17 0,-6 -3,-11 -7,-16 -4,-4 -10,-6 -16,-6l-45 0c-2,0 -3,0 -5,1 -1,1 -1,3 -1,4 0,2 0,3 1,5 2,1 3,1 5,1l45 0c3,0 6,1 8,4 2,2 3,4 3,7 0,3 -1,6 -3,8 -2,2 -5,3 -8,3l-45 0c-2,0 -3,1 -5,2 -1,1 -1,3 -1,4 0,2 0,3 1,4 2,1 3,2 5,2l45 0c3,0 6,1 8,3 2,2 3,5 3,8 0,3 -1,6 -3,8 -2,2 -5,3 -8,3l-45 0c-2,0 -3,1 -5,2 -1,1 -1,2 -1,4 0,1 0,3 1,4 2,1 3,2 5,2l45 0c6,0 12,-2 16,-7 4,-4 7,-10 7,-16 0,-7 -3,-12 -8,-17z"/>
   <path id="2" class="fil8" d="M517 744c-2,0 -3,-1 -4,-2 -1,-1 -2,-3 -2,-4l0 -5c0,-2 1,-3 2,-5 1,-1 2,-1 4,-1 2,0 3,0 4,1 1,2 2,3 2,5l0 5c0,1 -1,3 -2,4 -1,1 -2,2 -4,2zm-21 -37c-1,0 -2,1 -3,2 -1,1 -1,2 -1,3l0 47c0,1 0,2 1,3 1,1 2,1 3,1l42 0c1,0 2,0 3,-1 1,-1 1,-2 1,-3l0 -47c0,-1 0,-2 -1,-3 -1,-1 -2,-2 -3,-2l-42 0zm0 68c-4,0 -8,-2 -11,-5 -3,-3 -5,-7 -5,-11l0 -47c0,-5 2,-8 5,-12 3,-3 7,-4 11,-4l42 0c4,0 8,1 11,4 3,4 5,7 5,12l0 47c0,4 -2,8 -5,11 -3,3 -7,5 -11,5l-42 0z"/>
   <path id="3" class="fil8" d="M569 696c-2,0 -3,0 -4,1 -1,1 -2,3 -2,4 0,2 1,3 2,5 1,1 2,1 4,1l26 0 0 62c0,1 1,3 2,4 1,1 3,2 4,2 2,0 3,-1 4,-2 2,-1 2,-3 2,-4l0 -62 24 0c2,0 3,0 4,-1 1,-2 2,-3 2,-5 0,-1 -1,-3 -2,-4 -1,-1 -2,-1 -4,-1l-62 0z"/>
   <path id="4" class="fil9 str0" d="M350 775c-2,0 -4,-1 -5,-4l-10 -22 -11 22c-1,3 -3,4 -5,4 -2,0 -4,-1 -5,-4l-31 -67c-1,-2 -1,-3 -1,-5 1,-1 2,-2 3,-3 2,0 3,-1 5,0 1,1 3,2 3,3l26 56 10 -22c1,-3 3,-4 6,-4 2,0 4,1 5,4l10 22 26 -56c1,-1 2,-2 3,-3 2,-1 3,0 5,0 1,1 2,2 3,3 0,2 0,3 -1,5l-31 67c-1,3 -2,4 -5,4z"/>
   <path id="5" class="fil9 str0" d="M463 735c5,-4 8,-10 8,-17 0,-6 -3,-11 -7,-16 -4,-4 -10,-6 -16,-6l-45 0c-2,0 -3,0 -5,1 -1,1 -1,3 -1,4 0,2 0,3 1,5 2,1 3,1 5,1l45 0c3,0 6,1 8,4 2,2 3,4 3,7 0,3 -1,6 -3,8 -2,2 -5,3 -8,3l-45 0c-2,0 -3,1 -5,2 -1,1 -1,3 -1,4 0,2 0,3 1,4 2,1 3,2 5,2l45 0c3,0 6,1 8,3 2,2 3,5 3,8 0,3 -1,6 -3,8 -2,2 -5,3 -8,3l-45 0c-2,0 -3,1 -5,2 -1,1 -1,2 -1,4 0,1 0,3 1,4 2,1 3,2 5,2l45 0c6,0 12,-2 16,-7 4,-4 7,-10 7,-16 0,-7 -3,-12 -8,-17z"/>
   <path id="6" class="fil9 str0" d="M517 744c-2,0 -3,-1 -4,-2 -1,-1 -2,-3 -2,-4l0 -5c0,-2 1,-3 2,-5 1,-1 2,-1 4,-1 2,0 3,0 4,1 1,2 2,3 2,5l0 5c0,1 -1,3 -2,4 -1,1 -2,2 -4,2zm-21 -37c-1,0 -2,1 -3,2 -1,1 -1,2 -1,3l0 47c0,1 0,2 1,3 1,1 2,1 3,1l42 0c1,0 2,0 3,-1 1,-1 1,-2 1,-3l0 -47c0,-1 0,-2 -1,-3 -1,-1 -2,-2 -3,-2l-42 0zm0 68c-4,0 -8,-2 -11,-5 -3,-3 -5,-7 -5,-11l0 -47c0,-5 2,-8 5,-12 3,-3 7,-4 11,-4l42 0c4,0 8,1 11,4 3,4 5,7 5,12l0 47c0,4 -2,8 -5,11 -3,3 -7,5 -11,5l-42 0z"/>
   <path id="7" class="fil9 str0" d="M569 696c-2,0 -3,0 -4,1 -1,1 -2,3 -2,4 0,2 1,3 2,5 1,1 2,1 4,1l26 0 0 62c0,1 1,3 2,4 1,1 3,2 4,2 2,0 3,-1 4,-2 2,-1 2,-3 2,-4l0 -62 24 0c2,0 3,0 4,-1 1,-2 2,-3 2,-5 0,-1 -1,-3 -2,-4 -1,-1 -2,-1 -4,-1l-62 0z"/>
   <g>
    <path class="fil8 str0" d="M353 774c-2,1 -3,1 -5,0 -1,0 -2,-1 -3,-3l-29 -61c0,-1 0,-3 0,-4 1,-2 2,-3 3,-4 2,0 3,0 5,0 1,1 2,2 3,3l28 61c1,2 1,3 1,5 -1,1 -2,2 -3,3z"/>
    <path class="fil8 str0" d="M317 774c1,1 2,1 4,0 2,0 3,-1 3,-3l29 -61c0,-1 0,-3 0,-4 -1,-2 -2,-3 -3,-4 -2,0 -3,0 -5,0 -1,1 -2,2 -3,3l-28 61c-1,2 -1,3 -1,5 1,1 2,2 4,3z"/>
   </g>
  </g>
 </g>
</svg>
