<?xml version="1.0" encoding="UTF-8"?>
<!DOCTYPE svg PUBLIC "-//W3C//DTD SVG 1.1//EN" "http://www.w3.org/Graphics/SVG/1.1/DTD/svg11.dtd">
<!-- Creator: CorelDRAW X7 -->
<svg xmlns="http://www.w3.org/2000/svg" xml:space="preserve" width="128.657mm" height="22.2076mm" version="1.1" style="shape-rendering:geometricPrecision; text-rendering:geometricPrecision; image-rendering:optimizeQuality; fill-rule:evenodd; clip-rule:evenodd"
viewBox="0 0 3807 657"
 xmlns:xlink="http://www.w3.org/1999/xlink">
 <defs>
  <style type="text/css">
   <![CDATA[
    .fil0 {fill:#FEFEFE;fill-rule:nonzero}
   ]]>
  </style>
 </defs>
 <g id="Layer_x0020_1">
  <metadata id="CorelCorpID_0Corel-Layer"/>
  <path class="fil0" d="M566 657c-21,0 -35,-9 -44,-28l-85 -184 -85 184c-9,19 -24,28 -44,28 -21,0 -35,-9 -44,-28l-258 -559c-6,-12 -6,-24 -1,-37 4,-12 13,-21 25,-27 12,-6 24,-6 37,-1 12,4 21,13 27,25l214 464 85 -185c9,-19 23,-28 44,-28 20,0 35,9 44,28l85 185 214 -464c5,-12 14,-21 27,-25 12,-5 25,-5 37,1 12,6 20,15 25,27 5,13 4,25 -2,37l-257 559c-9,19 -24,28 -44,28z"/>
  <path id="1" class="fil0" d="M1002 657c-14,0 -25,-4 -35,-14 -9,-9 -14,-21 -14,-34l0 -559c0,-13 5,-25 14,-34 10,-10 21,-15 35,-15 13,0 24,5 34,15 9,9 14,21 14,34l0 559c0,13 -5,25 -14,34 -10,10 -21,14 -34,14z"/>
  <path id="2" class="fil0" d="M1175 657c-13,0 -25,-4 -34,-14 -10,-9 -14,-21 -14,-34 0,-14 4,-25 14,-35 9,-9 21,-14 34,-14l376 0c25,0 47,-9 65,-26 17,-18 26,-40 26,-65 0,-25 -9,-46 -26,-64 -18,-18 -40,-27 -65,-27l-32 0c-13,0 -25,-5 -34,-14 -10,-10 -14,-21 -14,-34 0,-14 4,-25 14,-35 9,-9 21,-14 34,-14l32 0c52,0 96,18 133,55 37,37 55,81 55,133 0,52 -18,96 -55,133 -37,37 -81,55 -133,55l-376 0zm140 -279c-52,0 -96,-19 -133,-55 -37,-37 -55,-81 -55,-133 0,-52 18,-96 55,-133 37,-37 81,-56 133,-56l376 0c13,0 25,5 34,15 10,9 14,21 14,34 0,14 -4,25 -14,34 -9,9 -21,14 -34,14l-376 0c-25,0 -47,9 -65,27 -18,18 -27,40 -27,65 0,25 9,46 27,65 18,17 40,26 65,26l32 0c13,0 25,5 34,14 10,10 14,21 14,35 0,13 -4,24 -14,34 -9,9 -21,14 -34,14l-32 0z"/>
  <path id="3" class="fil0" d="M1865 560c-14,0 -25,5 -35,14 -9,10 -14,21 -14,35 0,13 5,25 14,34 10,10 21,14 35,14l515 0c14,0 25,-4 35,-14 9,-9 14,-21 14,-34 0,-14 -5,-25 -14,-35 -10,-9 -21,-14 -35,-14l-515 0zm515 -462c14,0 25,-5 35,-14 9,-9 14,-20 14,-34 0,-13 -5,-25 -14,-34 -10,-10 -21,-15 -35,-15l-515 0c-14,0 -25,5 -35,15 -9,9 -14,21 -14,34 0,14 5,25 14,34 10,9 21,14 35,14l515 0zm-515 183c-14,0 -25,5 -35,14 -9,10 -14,21 -14,35 0,13 5,24 14,34 10,9 21,14 35,14l515 0c14,0 25,-5 35,-14 9,-10 14,-21 14,-34 0,-14 -5,-25 -14,-35 -10,-9 -21,-14 -35,-14l-515 0z"/>
  <path id="4" class="fil0" d="M2640 657c-37,0 -69,-13 -95,-39 -26,-27 -40,-58 -40,-95l0 -387c0,-37 14,-69 40,-95 26,-26 58,-40 95,-40l430 0c13,0 24,5 34,15 9,9 14,21 14,34 0,14 -5,25 -14,34 -10,9 -21,14 -34,14l-430 0c-11,0 -19,4 -27,11 -7,8 -11,17 -11,27l0 387c0,10 4,19 11,26 8,8 16,11 27,11l430 0c13,0 24,5 34,14 9,10 14,21 14,35 0,13 -5,25 -14,34 -10,10 -21,14 -34,14l-430 0z"/>
  <path id="5" class="fil0" d="M3265 657c-14,0 -25,-4 -35,-14 -9,-9 -14,-21 -14,-34l0 -279c0,-14 5,-25 14,-35 10,-9 21,-14 35,-14l354 0c26,0 47,-9 65,-26 17,-19 27,-40 27,-65 0,-25 -10,-47 -27,-65 -18,-18 -39,-27 -65,-27l-376 0c-13,0 -25,-5 -34,-14 -9,-9 -14,-20 -14,-34 0,-13 5,-25 14,-34 9,-10 21,-15 34,-15l376 0c52,0 96,19 133,56 37,37 55,81 55,133 0,52 -18,96 -55,133 -37,36 -81,55 -133,55l-306 0 0 231c0,13 -5,25 -14,34 -10,10 -21,14 -34,14z"/>
  <g id="_2198448101200">
   <path class="fil0" d="M586 652c-12,6 -25,6 -37,2 -13,-5 -22,-13 -28,-26l-235 -506c-6,-12 -6,-25 -2,-37 5,-13 13,-22 25,-27 12,-6 25,-7 37,-2 13,5 22,13 28,25l235 507c6,12 6,24 2,37 -5,13 -13,22 -25,27z"/>
   <path class="fil0" d="M287 652c12,6 24,6 37,2 12,-5 22,-13 27,-26l236 -506c6,-12 6,-25 2,-37 -5,-13 -13,-22 -26,-27 -12,-6 -24,-7 -37,-2 -12,5 -21,13 -27,25l-235 507c-6,12 -7,24 -2,37 4,13 13,22 25,27z"/>
  </g>
 </g>
</svg>
