<?xml version="1.0" encoding="UTF-8"?>
<!DOCTYPE svg PUBLIC "-//W3C//DTD SVG 1.1//EN" "http://www.w3.org/Graphics/SVG/1.1/DTD/svg11.dtd">
<!-- Creator: CorelDRAW X7 -->
<svg xmlns="http://www.w3.org/2000/svg" xml:space="preserve" width="69.8814mm" height="15.0754mm" version="1.1" style="shape-rendering:geometricPrecision; text-rendering:geometricPrecision; image-rendering:optimizeQuality; fill-rule:evenodd; clip-rule:evenodd"
viewBox="0 0 6528 1408"
 xmlns:xlink="http://www.w3.org/1999/xlink">
 <defs>
  <style type="text/css">
   <![CDATA[
    .fil3 {fill:none}
    .fil8 {fill:none;fill-rule:nonzero}
    .fil7 {fill:#EBECEC}
    .fil1 {fill:#088D8D}
    .fil0 {fill:teal}
    .fil2 {fill:#028C8C}
    .fil5 {fill:#FEFEFE;fill-rule:nonzero}
    .fil6 {fill:#EBECEC;fill-rule:nonzero}
    .fil9 {fill:#2B2A29;fill-rule:nonzero}
    .fil4 {fill:teal;fill-rule:nonzero}
   ]]>
  </style>
    <clipPath id="id0">
     <path d="M914 155c358,207 303,113 303,526 0,413 55,319 -303,526 -358,206 -250,206 -607,0 -358,-207 -304,-113 -304,-526 0,-413 -54,-319 304,-526 357,-207 249,-207 607,0z"/>
    </clipPath>
     <clipPath id="id1" style="clip-rule:nonzero">
      <path d="M584 757l-123 -33c-58,-17 -97,-40 -117,-69 -20,-29 -30,-68 -30,-115 0,-54 20,-95 59,-123 40,-27 107,-41 201,-41 112,0 207,8 287,24l-14 137 -221 0c-40,0 -65,1 -72,2 -8,1 -12,5 -12,12 0,6 12,13 38,19 11,3 20,5 28,8l129 32c52,14 89,34 113,60 23,26 35,62 35,110 0,70 -20,118 -61,145 -41,26 -111,40 -210,40 -104,0 -201,-8 -292,-24l14 -137 200 0c55,0 90,0 102,-2 13,-1 19,-6 19,-15 0,-1 0,-2 0,-3 -1,-2 -1,-3 -2,-4 -2,-1 -3,-2 -4,-3 -1,0 -3,-1 -5,-2 -2,-2 -5,-2 -7,-3 -3,0 -6,-1 -10,-2 -4,-2 -8,-3 -12,-4 -4,-1 -9,-2 -15,-4 -6,-2 -12,-3 -18,-5z"/>
     </clipPath>
 </defs>
 <g id="Layer_x0020_1">
  <metadata id="CorelCorpID_0Corel-Layer"/>
  <g id="_2080773299008">
   <path class="fil0" d="M967 202c358,206 304,112 304,525 0,414 54,320 -304,526 -358,207 -249,207 -607,0 -358,-206 -304,-112 -304,-526 0,-413 -54,-319 304,-525 358,-207 249,-207 607,0z"/>
   <path class="fil1" d="M914 155c358,207 303,113 303,526 0,413 55,319 -303,526 -358,206 -250,206 -607,0 -358,-207 -304,-113 -304,-526 0,-413 -54,-319 304,-526 357,-207 249,-207 607,0z"/>
   <g style="clip-path:url(#id0)">
    <g>
     <polygon id="1" class="fil2" points="850,670 1217,1147 699,1408 343,962 510,894 769,906 "/>
    </g>
   </g>
   <path class="fil3" d="M914 155c358,207 303,113 303,526 0,413 55,319 -303,526 -358,206 -250,206 -607,0 -358,-207 -304,-113 -304,-526 0,-413 -54,-319 304,-526 357,-207 249,-207 607,0z"/>
   <g>
    <path class="fil4" d="M606 778l-124 -33c-57,-17 -96,-40 -116,-69 -21,-29 -31,-67 -31,-115 0,-54 20,-95 60,-123 39,-27 106,-41 200,-41 112,0 208,8 288,25l-15 136 -221 0c-40,0 -64,1 -72,2 -8,1 -12,5 -12,12 0,7 13,13 38,19 11,3 21,6 28,8l129 32c52,15 89,35 113,60 23,26 35,63 35,110 0,70 -20,119 -61,145 -41,27 -111,40 -210,40 -103,0 -201,-8 -292,-24l15 -137 199 0c56,0 90,0 102,-2 13,-1 20,-6 20,-14 0,-2 -1,-3 -1,-4 0,-1 -1,-3 -2,-4 -1,-1 -3,-2 -4,-2 -1,-1 -2,-2 -5,-3 -2,-1 -4,-2 -7,-2 -3,-1 -6,-2 -10,-3 -4,-2 -8,-3 -12,-4 -4,0 -8,-2 -14,-4 -6,-1 -12,-3 -18,-5z"/>
    <path class="fil5" d="M584 757l-123 -33c-58,-17 -97,-40 -117,-69 -20,-29 -30,-68 -30,-115 0,-54 20,-95 59,-123 40,-27 107,-41 201,-41 112,0 207,8 287,24l-14 137 -221 0c-40,0 -65,1 -72,2 -8,1 -12,5 -12,12 0,6 12,13 38,19 11,3 20,5 28,8l129 32c52,14 89,34 113,60 23,26 35,62 35,110 0,70 -20,118 -61,145 -41,26 -111,40 -210,40 -104,0 -201,-8 -292,-24l14 -137 200 0c55,0 90,0 102,-2 13,-1 19,-6 19,-15 0,-1 0,-2 0,-3 -1,-2 -1,-3 -2,-4 -2,-1 -3,-2 -4,-3 -1,0 -3,-1 -5,-2 -2,-2 -5,-2 -7,-3 -3,0 -6,-1 -10,-2 -4,-2 -8,-3 -12,-4 -4,-1 -9,-2 -15,-4 -6,-2 -12,-3 -18,-5z"/>
    <g style="clip-path:url(#id1)">
     <g>
      <path id="1" class="fil6" d="M326 342c40,-25 159,34 248,34 112,0 207,8 287,24l-14 137 -221 0c-40,0 -65,1 -72,2 -7,1 -11,4 -12,9l-216 -206z"/>
      <polygon class="fil7" points="651,777 866,991 611,1043 239,991 242,725 "/>
     </g>
    </g>
    <path class="fil8" d="M584 757l-123 -33c-58,-17 -97,-40 -117,-69 -20,-29 -30,-68 -30,-115 0,-54 20,-95 59,-123 40,-27 107,-41 201,-41 112,0 207,8 287,24l-14 137 -221 0c-40,0 -65,1 -72,2 -8,1 -12,5 -12,12 0,6 12,13 38,19 11,3 20,5 28,8l129 32c52,14 89,34 113,60 23,26 35,62 35,110 0,70 -20,118 -61,145 -41,26 -111,40 -210,40 -104,0 -201,-8 -292,-24l14 -137 200 0c55,0 90,0 102,-2 13,-1 19,-6 19,-15 0,-1 0,-2 0,-3 -1,-2 -1,-3 -2,-4 -2,-1 -3,-2 -4,-3 -1,0 -3,-1 -5,-2 -2,-2 -5,-2 -7,-3 -3,0 -6,-1 -10,-2 -4,-2 -8,-3 -12,-4 -4,-1 -9,-2 -15,-4 -6,-2 -12,-3 -18,-5z"/>
   </g>
  </g>
  <path class="fil9" d="M2096 813l-181 -49c-67,-20 -113,-46 -139,-80 -25,-34 -38,-81 -38,-141 0,-75 23,-129 70,-160 47,-32 126,-48 239,-48 131,2 243,12 336,28l-14 140c-124,-2 -217,-3 -280,-3 -35,0 -59,1 -72,1 -13,1 -26,2 -40,5 -13,3 -21,8 -24,14 -3,7 -4,16 -4,29 0,5 0,9 0,13 1,4 2,8 4,11 2,4 4,6 5,8 2,2 4,5 8,7 4,3 8,4 10,5 2,1 7,3 13,5 7,3 12,5 15,6 3,1 10,2 19,5 9,2 17,4 21,5l186 50c65,19 111,43 139,74 27,31 41,77 41,138 0,86 -25,145 -75,176 -50,31 -136,47 -258,47 -118,0 -226,-9 -326,-26l14 -141c35,2 119,3 251,3 76,0 125,-3 149,-10 23,-6 34,-21 34,-45 0,-4 0,-9 -1,-13 0,-4 -1,-7 -3,-11 -2,-3 -4,-6 -6,-8 -2,-2 -5,-4 -10,-7 -4,-2 -8,-4 -10,-5 -2,-2 -7,-4 -14,-6 -7,-3 -12,-5 -16,-5 -4,-1 -11,-3 -21,-6 -10,-2 -17,-4 -22,-6z"/>
  <path id="1" class="fil9" d="M2569 35l97 0c42,0 63,21 63,63l0 80c0,42 -21,63 -63,63l-97 0c-42,0 -64,-21 -64,-63l0 -80c0,-42 22,-63 64,-63zm157 1047l-216 0 0 -726 216 0 0 726z"/>
  <path id="2" class="fil9" d="M3148 502l0 343c0,28 5,47 17,58 12,10 33,16 62,16l93 0 23 152c-56,19 -124,29 -204,29 -66,0 -117,-18 -154,-55 -36,-37 -54,-88 -54,-154l0 -389 -128 0 0 -139 128 -7 0 -203 217 0 0 203 201 0 0 146 -201 0z"/>
  <path id="3" class="fil9" d="M3887 792l-262 0c7,53 23,89 48,107 25,18 66,27 124,27 78,0 168,-5 271,-16l21 135c-76,37 -181,55 -317,55 -137,0 -234,-29 -292,-88 -58,-59 -87,-157 -87,-292 0,-142 29,-242 85,-299 57,-57 152,-86 285,-86 121,0 208,21 262,63 54,42 82,105 83,191 0,68 -18,118 -52,152 -35,34 -92,51 -169,51zm-267 -131l206 0c27,0 45,-6 54,-19 10,-13 14,-32 14,-56 0,-35 -9,-58 -26,-72 -18,-13 -50,-19 -97,-19 -56,0 -95,11 -115,33 -21,22 -33,66 -36,133z"/>
  <path id="4" class="fil9" d="M4377 356l15 106c92,-84 185,-127 277,-127 98,0 161,40 187,118 86,-78 174,-118 265,-118 66,0 116,18 151,52 34,34 51,84 51,150l0 545 -216 0 0 -477c0,-31 -6,-54 -17,-66 -11,-13 -31,-19 -60,-19 -24,0 -46,4 -68,13 -21,9 -53,26 -94,51l0 498 -209 0 0 -477c0,-31 -6,-54 -19,-66 -12,-13 -32,-19 -59,-19 -39,0 -92,21 -161,63l0 499 -217 0 0 -726 174 0z"/>
  <path id="5" class="fil9" d="M5516 35l97 0c42,0 63,21 63,63l0 80c0,42 -21,63 -63,63l-97 0c-42,0 -63,-21 -63,-63l0 -80c0,-42 21,-63 63,-63zm158 1047l-217 0 0 -726 217 0 0 726z"/>
  <path id="6" class="fil9" d="M6155 335c136,0 232,30 288,88 57,59 85,157 85,297 0,139 -28,238 -85,295 -56,58 -152,86 -288,86 -136,0 -233,-28 -289,-86 -57,-57 -85,-156 -85,-295 0,-141 28,-240 85,-298 56,-58 153,-87 289,-87zm0 164c-58,0 -97,15 -116,44 -20,30 -30,89 -30,177 0,86 10,144 30,174 19,29 58,44 116,44 56,0 94,-15 114,-44 20,-30 30,-88 30,-174 0,-87 -9,-146 -29,-176 -20,-30 -58,-45 -115,-45z"/>
 </g>
</svg>
