<svg id="Layer_1" data-name="Layer 1" xmlns="http://www.w3.org/2000/svg" xmlns:xlink="http://www.w3.org/1999/xlink" viewBox="0 0 376.65 376.65"><defs><style>.cls-1{fill:none;}.cls-2{clip-path:url(#clip-path);}.cls-3{fill:#068f9f;}</style><clipPath id="clip-path" transform="translate(-24.27 -24.27)"><rect class="cls-1" x="24.27" y="24.27" width="376.65" height="376.65"/></clipPath></defs><title>News Icon</title><g class="cls-2"><path class="cls-3" d="M241.67,212.6a237.33,237.33,0,0,1,2.62-35.76,40.67,40.67,0,0,1,19.53,16.24,37.64,37.64,0,0,1,0,39,40.69,40.69,0,0,1-19.54,16.24,237.34,237.34,0,0,1-2.62-35.76M247,262.71c12.56-4.53,22.57-12.49,29.05-23.11a51.86,51.86,0,0,0,0-54C269.6,175,259.59,167,247,162.49a138.79,138.79,0,0,1,6.06-19.77c6.45-16.2,14.54-25.5,22.2-25.5s15.75,9.29,22.2,25.5c7.37,18.53,11.43,43.35,11.43,69.89s-4.06,51.36-11.43,69.88c-6.45,16.2-14.54,25.5-22.2,25.5s-15.75-9.29-22.2-25.5A138.45,138.45,0,0,1,247,262.71m153.9-50.11c0-103.84-84.48-188.33-188.32-188.33S24.27,108.76,24.27,212.6c0,85.71,57.56,158.2,136,180.91L162,394a11.25,11.25,0,0,0,1.88.23,7.21,7.21,0,0,0,7.13-6.3c.06-.57.1-.92.1-1.17V262.36l.22.06c25.24,7.13,49.5,19.39,74.16,37.46,8.31,14.72,18.61,22.5,29.81,22.5,14,0,26.66-12.29,35.53-34.59,8-20.22,12.48-46.92,12.48-75.18s-4.43-55-12.48-75.18c-8.87-22.3-21.49-34.59-35.53-34.59-11.2,0-21.5,7.77-29.8,22.49-24.67,18.08-48.94,30.34-74.17,37.46-25.8,7.29-49.56,8.22-67.37,8.22-15.74,0-27.9,9.16-33.38,25.13a51.87,51.87,0,0,0,0,32.94C76,245,88.21,254.2,103.94,254.2c3.47,0,6.87,0,10,.12l10.77.46c2.86.18,5.65.41,8.42.67.48,0,1.78.15,2,.15a7.24,7.24,0,0,0,7.17-7.25,7.13,7.13,0,0,0-6.18-7.07s-.8-.11-1.19-.14c-11.51-1.11-22-1.34-31-1.34-9.21,0-16.42-5.61-19.77-15.4a37.63,37.63,0,0,1,0-23.61c3.36-9.79,10.57-15.4,19.77-15.4,18.71,0,43.72-1,71.27-8.77a231.72,231.72,0,0,0,60.44-27.27c-5.42,18.31-8.38,40.47-8.38,63.25s3,44.93,8.38,63.25a231.53,231.53,0,0,0-60.44-27.26q-4.52-1.28-8.94-2.3a19.21,19.21,0,0,0-2.37-.33,7.2,7.2,0,0,0-7.19,7.19v121s0,0,0,0c0,1.36-.54,2.53-2.13,2.32l-.71-.16C86.76,352.17,38.63,287.92,38.63,212.6c0-95.93,78-174,174-174s174,78,174,174-78,174-174,174a172.54,172.54,0,0,1-17.54-.92c-.4,0-1.88-.15-2.21-.16a7.18,7.18,0,0,0-5.25,12.25,7.07,7.07,0,0,0,4,2l2.08.24a188.66,188.66,0,0,0,18.95,1c103.84,0,188.32-84.48,188.32-188.32" transform="translate(-24.27 -24.27)"/></g></svg>