<?xml version="1.0" encoding="utf-8"?>
<!-- Generator: Adobe Illustrator 19.2.0, SVG Export Plug-In . SVG Version: 6.00 Build 0)  -->
<svg version="1.1" id="Layer_1" xmlns="http://www.w3.org/2000/svg" xmlns:xlink="http://www.w3.org/1999/xlink" x="0px" y="0px"
	 viewBox="0 0 185 68.7" style="enable-background:new 0 0 185 68.7;" xml:space="preserve">
<style type="text/css">
	.st0{fill-rule:evenodd;clip-rule:evenodd;fill:#2E8FBF;}
	.st1{fill-rule:evenodd;clip-rule:evenodd;fill:#FFFFFF;}
	.st2{fill:#7F8080;}
</style>
<g>
	<path class="st0" d="M32.1,0c17.7,0,32.1,14.4,32.1,32.1c0,17.7-14.4,32.1-32.1,32.1C14.4,64.3,0,49.9,0,32.1C0,14.4,14.4,0,32.1,0
		z"/>
	<circle class="st1" cx="28" cy="46.9" r="6.1"/>
	<circle class="st1" cx="37" cy="35.3" r="5.1"/>
	<path class="st1" d="M44.7,22.3c2,0,3.7,1.6,3.7,3.7c0,2-1.6,3.7-3.7,3.7c-2,0-3.7-1.7-3.7-3.7C41,23.9,42.6,22.3,44.7,22.3z"/>
	<path class="st1" d="M50.8,15.2c1.5,0,2.7,1.2,2.7,2.7c0,1.5-1.2,2.7-2.7,2.7c-1.5,0-2.7-1.2-2.7-2.7
		C48.1,16.4,49.3,15.2,50.8,15.2z"/>
	<path class="st1" d="M19.1,30.5c2.8,0,5,2.2,5,5c0,2.8-2.2,5-5,5c-2.8,0-5-2.2-5-5C14.1,32.7,16.3,30.5,19.1,30.5z"/>
	<path class="st1" d="M11.4,23.4c1.8,0,3.2,1.5,3.2,3.2c0,1.8-1.5,3.2-3.2,3.2c-1.8,0-3.2-1.5-3.2-3.2C8.1,24.9,9.6,23.4,11.4,23.4z
		"/>
	<rect x="73.8" y="4.1" class="st0" width="10.2" height="33.4"/>
	<path class="st0" d="M100.5,38.6c-3.9,0-7.5-0.9-10.9-2.8l-1.1-0.7l3.3-8l1,0.7c2.4,1.7,4.7,2.6,6.8,2.6c1.2,0,2.1-0.2,2.8-0.7
		c0.6-0.4,0.9-0.9,0.9-1.5c0-0.9-0.5-1.6-1.4-2.2c-0.9-0.6-2.7-1.4-5.2-2.2c-2.3-0.8-4.1-1.8-5.2-3.1c-1.3-1.5-1.9-3.5-1.9-5.9
		c0-3.4,1.2-6.1,3.5-8c2.3-1.9,5.2-2.9,8.9-2.9c3.7,0,7.2,1,10.6,2.9v0.1l-3.2,7.8l-1.6-1.1c-1.6-1-3.2-1.4-4.8-1.4
		c-0.9,0-1.6,0.2-2.1,0.5c-0.6,0.3-0.8,0.8-0.8,1.3c0,0.6,0.3,1.2,1,1.6c0.7,0.5,2.5,1.3,5.1,2.3c2.7,1.1,4.6,2.3,5.8,3.8
		c1.2,1.5,1.8,3.3,1.8,5.5c0,3.7-1.2,6.6-3.6,8.7C107.7,37.6,104.5,38.6,100.5,38.6z"/>
	<path class="st2" d="M92.9,60.1h-2.7v-8.2c0-2.5-0.8-3.7-2.5-3.7c-2.1,0-3.1,1.5-3.1,4.5v7.4h-2.7v-8.2c0-2.5-0.8-3.7-2.6-3.7
		c-2,0-3.1,1.6-3.1,4.8v7h-2.7V46.3h2.7v1.9c1-1.6,2.3-2.4,3.9-2.3c0.9,0,1.7,0.3,2.4,0.8c0.6,0.5,1.1,1,1.4,1.7
		c0.9-1.6,2.3-2.4,4.2-2.4c3.1,0,4.6,1.9,4.6,5.7V60.1z"/>
	<path class="st2" d="M109.4,60.1h-2.7v-2.2c-1.3,1.8-2.9,2.7-4.8,2.7c-1.9,0-3.4-0.7-4.7-2.1c-1.3-1.4-1.9-3.2-1.9-5.3
		c0-2.1,0.6-3.9,1.9-5.3c1.2-1.4,2.8-2.1,4.7-2.1c2.1,0,3.7,0.9,4.8,2.8v-2.4h2.7V60.1z M106.9,53.2c0-1.5-0.4-2.7-1.3-3.6
		c-0.9-0.9-1.9-1.4-3.2-1.4c-1.2,0-2.3,0.5-3.1,1.4c-0.8,0.9-1.3,2.1-1.3,3.5c0,1.5,0.4,2.7,1.3,3.6c0.8,0.9,1.9,1.4,3.2,1.4
		c1.3,0,2.3-0.5,3.2-1.4C106.5,55.8,106.9,54.6,106.9,53.2z"/>
	<path class="st2" d="M124.7,60.1h-2.7v-8.2c0-1.3-0.2-2.2-0.7-2.8c-0.5-0.6-1.2-0.9-2.3-0.9c-1.2,0-2.2,0.4-2.7,1.1
		c-0.6,0.7-0.8,2-0.8,3.7v7h-2.7V46.3h2.7v1.9c1-1.6,2.5-2.3,4.3-2.3c3.3,0,4.9,1.9,4.9,5.7V60.1z"/>
	<path class="st2" d="M141.3,60.1h-2.7v-2.2c-1.3,1.8-2.9,2.7-4.8,2.7c-1.9,0-3.4-0.7-4.7-2.1c-1.2-1.4-1.9-3.2-1.9-5.3
		c0-2.1,0.6-3.9,1.9-5.3c1.2-1.4,2.8-2.1,4.7-2.1c2.1,0,3.7,0.9,4.8,2.8v-2.4h2.7V60.1z M138.8,53.2c0-1.5-0.4-2.7-1.3-3.6
		c-0.9-0.9-1.9-1.4-3.2-1.4c-1.2,0-2.3,0.5-3.1,1.4c-0.8,0.9-1.3,2.1-1.3,3.5c0,1.5,0.4,2.7,1.3,3.6c0.8,0.9,1.9,1.4,3.2,1.4
		c1.3,0,2.4-0.5,3.2-1.4C138.4,55.8,138.8,54.6,138.8,53.2z"/>
	<path class="st2" d="M157.9,60.9c0,2.7-0.5,4.6-1.6,5.9c-1.1,1.3-2.8,1.9-5.1,1.9c-2,0-3.6-0.6-4.8-1.7c-1.3-1.2-1.9-2.7-1.9-4.5
		h2.7c0,1.2,0.4,2.1,1.1,2.8c0.8,0.7,1.8,1.1,3.2,1.1c2.6,0,3.8-1.6,3.8-4.9v-3.6c-1.4,1.8-3,2.7-5,2.7c-1.9,0-3.4-0.7-4.6-2.1
		c-1.2-1.4-1.8-3.2-1.8-5.3c0-2.1,0.6-3.9,1.8-5.3c1.2-1.4,2.7-2.1,4.6-2.1c2.1,0,3.8,0.9,5,2.8v-2.4h2.7V60.9z M155.4,53.2
		c0-1.1-0.4-2.2-1.2-3.2c-0.9-1.1-2-1.7-3.3-1.7c-1.3,0-2.4,0.5-3.2,1.4c-0.8,0.9-1.2,2.1-1.2,3.5c0,1.5,0.4,2.8,1.2,3.7
		c0.8,0.9,1.9,1.4,3.2,1.4c1.2,0,2.3-0.5,3.2-1.6C154.9,55.6,155.4,54.5,155.4,53.2z"/>
	<path class="st2" d="M173.9,56.8c-0.6,1.1-1.5,2-2.7,2.7c-1.2,0.7-2.4,1.1-3.7,1.1c-2.1,0-3.9-0.7-5.2-2c-1.3-1.4-2-3.1-2-5.3
		c0-2,0.6-3.8,1.9-5.2c1.3-1.5,3-2.2,5-2.2c2.1,0,3.7,0.7,5,2.1c1.2,1.3,1.7,3.1,1.7,5.2v0.5h-10.9c0,1.4,0.4,2.5,1.2,3.3
		c0.8,0.9,1.9,1.3,3.1,1.3c1.9,0,3.4-0.9,4.4-2.6L173.9,56.8z M171.3,51.6c-0.2-1-0.6-1.9-1.3-2.5c-0.7-0.6-1.6-1-2.7-1
		c-1,0-2,0.3-2.7,1c-0.8,0.6-1.3,1.5-1.5,2.5H171.3z"/>
	<path class="st2" d="M184.8,46.3l-0.6,2.7c-0.5-0.4-1.1-0.6-1.8-0.6c-1.1,0-1.9,0.5-2.5,1.4c-0.6,0.8-0.8,1.9-0.8,3.2v7.2h-2.6
		V46.3h2.6v2.3c1-1.8,2.3-2.8,3.7-2.8C183.3,45.8,184,46,184.8,46.3z"/>
	<path class="st0" d="M141.2,7.2c-2.3-2.1-5.6-3.2-10-3.2h-13.8v33.5l0,0h10.1l0.1,0V26.1h4.4c4,0,7-0.9,9.1-2.8
		c2.1-1.9,3.2-4.5,3.2-8C144.3,11.9,143.3,9.2,141.2,7.2z M130.4,19c-2.1,0-3.8-1.7-3.8-3.9c0-2.1,1.7-3.8,3.8-3.8
		c2.1,0,3.9,1.7,3.9,3.8C134.3,17.2,132.6,19,130.4,19z"/>
</g>
</svg>
