<?xml version="1.0" encoding="UTF-8"?>
<!DOCTYPE svg PUBLIC "-//W3C//DTD SVG 1.1//EN" "http://www.w3.org/Graphics/SVG/1.1/DTD/svg11.dtd">
<!-- Creator: CorelDRAW X7 -->
<svg xmlns="http://www.w3.org/2000/svg" xml:space="preserve" width="135.768mm" height="41.0827mm" version="1.1" style="shape-rendering:geometricPrecision; text-rendering:geometricPrecision; image-rendering:optimizeQuality; fill-rule:evenodd; clip-rule:evenodd"
viewBox="0 0 8818 2668"
 xmlns:xlink="http://www.w3.org/1999/xlink">
 <defs>
  <style type="text/css">
   <![CDATA[
    .fil1 {fill:none}
    .fil0 {fill:#095174;fill-rule:nonzero}
   ]]>
  </style>
 </defs>
 <g id="Layer_x0020_1">
  <metadata id="CorelCorpID_0Corel-Layer"/>
  <g id="_1881813643520">
   <path class="fil0" d="M1472 2054c-46,0 -77,-20 -97,-61l-186 -404 -187 404c-20,41 -53,61 -97,61 -46,0 -76,-20 -96,-61l-566 -1227c-14,-27 -14,-53 -3,-82 9,-26 29,-46 55,-59 27,-13 53,-13 81,-2 27,9 47,28 60,55l469 1018 187 -406c20,-42 50,-61 97,-61 43,0 76,19 96,61l187 406 469 -1018c11,-27 31,-46 60,-55 26,-11 55,-11 81,2 26,13 44,33 55,59 11,29 9,55 -5,82l-564 1227c-19,41 -52,61 -96,61z"/>
   <path id="_1" class="fil0" d="M2429 2054c-31,0 -55,-9 -77,-31 -20,-20 -31,-46 -31,-74l0 -1227c0,-29 11,-55 31,-75 22,-22 46,-33 77,-33 28,0 52,11 74,33 20,20 31,46 31,75l0 1227c0,28 -11,55 -31,74 -22,22 -46,31 -74,31z"/>
   <path id="_2" class="fil0" d="M2808 2054c-28,0 -55,-9 -74,-31 -22,-20 -31,-46 -31,-74 0,-31 9,-55 31,-77 19,-20 46,-31 74,-31l826 0c54,0 103,-20 142,-57 38,-39 57,-88 57,-143 0,-55 -19,-101 -57,-140 -39,-40 -88,-59 -142,-59l-71 0c-28,0 -54,-11 -74,-31 -22,-22 -31,-46 -31,-75 0,-30 9,-55 31,-77 20,-19 46,-30 74,-30l71 0c114,0 210,39 292,120 81,82 120,178 120,292 0,114 -39,211 -120,292 -82,81 -178,121 -292,121l-826 0zm308 -612c-114,0 -211,-42 -292,-121 -81,-81 -121,-178 -121,-292 0,-114 40,-211 121,-292 81,-81 178,-123 292,-123l825 0c28,0 55,11 75,33 21,20 30,46 30,75 0,30 -9,55 -30,74 -20,20 -47,31 -75,31l-825 0c-55,0 -104,20 -143,59 -40,40 -59,88 -59,143 0,55 19,101 59,143 39,37 88,57 143,57l70 0c28,0 55,11 74,30 22,22 31,47 31,77 0,29 -9,53 -31,75 -19,20 -46,31 -74,31l-70 0z"/>
   <path id="_3" class="fil0" d="M4323 1841c-31,0 -55,11 -77,31 -20,22 -31,46 -31,77 0,28 11,54 31,74 22,22 46,31 77,31l1130 0c31,0 55,-9 77,-31 20,-20 31,-46 31,-74 0,-31 -11,-55 -31,-77 -22,-20 -46,-31 -77,-31l-1130 0zm1130 -1014c31,0 55,-11 77,-31 20,-19 31,-44 31,-74 0,-29 -11,-55 -31,-75 -22,-22 -46,-33 -77,-33l-1130 0c-31,0 -55,11 -77,33 -20,20 -31,46 -31,75 0,30 11,55 31,74 22,20 46,31 77,31l1130 0zm-1130 402c-31,0 -55,11 -77,30 -20,22 -31,47 -31,77 0,29 11,53 31,75 22,20 46,31 77,31l1130 0c31,0 55,-11 77,-31 20,-22 31,-46 31,-75 0,-30 -11,-55 -31,-77 -22,-19 -46,-30 -77,-30l-1130 0z"/>
   <path id="_4" class="fil0" d="M6024 2054c-81,0 -152,-29 -209,-86 -57,-59 -88,-127 -88,-208l0 -850c0,-81 31,-151 88,-208 57,-57 128,-88 209,-88l944 0c28,0 52,11 74,33 20,20 31,46 31,75 0,30 -11,55 -31,74 -22,20 -46,31 -74,31l-944 0c-24,0 -42,9 -59,24 -16,18 -25,38 -25,59l0 850c0,22 9,42 25,57 17,17 35,24 59,24l944 0c28,0 52,11 74,31 20,22 31,46 31,77 0,28 -11,54 -31,74 -22,22 -46,31 -74,31l-944 0 0 0z"/>
   <path id="_5" class="fil0" d="M7396 2054c-31,0 -55,-9 -77,-31 -20,-20 -31,-46 -31,-74l0 -613c0,-30 11,-55 31,-77 22,-19 46,-30 77,-30l777 0c57,0 103,-20 142,-57 38,-42 59,-88 59,-143 0,-55 -21,-103 -59,-143 -39,-39 -85,-59 -142,-59l-826 0c-28,0 -55,-11 -74,-31 -20,-19 -31,-44 -31,-74 0,-29 11,-55 31,-75 19,-22 46,-33 74,-33l826 0c114,0 210,42 291,123 82,81 121,178 121,292 0,114 -39,211 -121,292 -81,79 -177,121 -291,121l-672 0 0 507c0,28 -11,54 -31,74 -22,22 -46,31 -74,31l0 0z"/>
   <g id="_2198775713952">
    <path class="fil0" d="M1518 2043c-27,11 -53,13 -81,4 -27,-11 -47,-30 -60,-57l-518 -1110c-11,-27 -13,-55 -2,-81 9,-29 29,-49 55,-62 26,-11 53,-13 81,-2 27,9 46,28 59,55l518 1110c11,29 14,55 5,84 -11,26 -31,46 -57,59z"/>
    <path class="fil0" d="M862 2043c26,11 54,13 81,4 28,-11 48,-30 61,-57l516 -1110c13,-27 15,-55 4,-81 -11,-29 -28,-49 -54,-62 -27,-11 -55,-13 -82,-2 -28,9 -48,28 -59,55l-518 1110c-13,29 -13,55 -4,84 11,26 28,46 55,59z"/>
   </g>
  </g>
  <rect class="fil1" width="8818" height="2668"/>
 </g>
</svg>
