<?xml version="1.0" encoding="UTF-8"?>
<!DOCTYPE svg PUBLIC "-//W3C//DTD SVG 1.1//EN" "http://www.w3.org/Graphics/SVG/1.1/DTD/svg11.dtd">
<!-- Creator: CorelDRAW X7 -->
<svg xmlns="http://www.w3.org/2000/svg" xml:space="preserve" width="12.7mm" height="4.2334mm" version="1.1" style="shape-rendering:geometricPrecision; text-rendering:geometricPrecision; image-rendering:optimizeQuality; fill-rule:evenodd; clip-rule:evenodd"
viewBox="0 0 1270 423"
 xmlns:xlink="http://www.w3.org/1999/xlink">
 <defs>
  <style type="text/css">
   <![CDATA[
    .fil0 {fill:none}
    .fil1 {fill:#31978C}
    .fil3 {fill:#3EA69B}
    .fil2 {fill:#44C4A1}
    .fil7 {fill:#DC8744}
    .fil4 {fill:#F6C358}
    .fil6 {fill:#FCD462}
    .fil5 {fill:white}
   ]]>
  </style>
 </defs>
 <g id="Layer_x0020_1">
  <metadata id="CorelCorpID_0Corel-Layer"/>
  <rect class="fil0" width="1270" height="423"/>
  <g id="_2161106339200">
   <rect class="fil1" transform="matrix(-0.827059 0.484256 -0.484256 -0.827059 1243.4 161.979)" width="364" height="185"/>
   <path class="fil2" d="M1131 42l-238 139c6,9 2,20 -7,26l54 91c9,-5 21,-2 26,7l237 -139c-5,-9 -2,-20 7,-26l-54 -91c-9,5 -20,2 -25,-7z"/>
   <g>
    <ellipse class="fil1" transform="matrix(-0.484256 -0.827059 0.827059 -0.484256 1048.14 173.477)" rx="63" ry="50"/>
    <circle class="fil1" cx="1165" cy="105" r="11"/>
   </g>
   <circle class="fil3" cx="931" cy="242" r="11"/>
   <path class="fil2" d="M1071 217l-5 -8c-10,5 -20,6 -31,4l2 -13c9,1 16,1 23,-2l-12 -19c-9,2 -16,3 -21,2 -5,-1 -9,-4 -13,-10 -3,-6 -4,-12 -2,-18 2,-6 6,-11 12,-15l-3 -5 7 -4 3 5c8,-4 16,-5 25,-5l-1 14c-6,-1 -12,0 -18,2l11 19 1 0c9,-3 16,-4 21,-3 6,1 10,5 14,11 3,6 4,12 2,18 -2,6 -7,11 -13,16l4 7 -6 4zm-46 -61c-1,2 -1,4 1,7 1,2 3,3 5,4 2,0 5,0 10,-1l-10 -17c-3,2 -5,4 -6,7zm47 32c1,-3 1,-6 0,-8 -2,-2 -3,-4 -6,-4 -2,-1 -6,-1 -10,1l10 18c3,-2 5,-5 6,-7z"/>
   <rect class="fil4" transform="matrix(-0.827059 0.484256 -0.484256 -0.827059 1122.17 232.963)" width="70.64" height="185.18"/>
   <g>
    <rect class="fil5" transform="matrix(-0.827059 0.484256 -0.484256 -0.827059 1072.55 262.043)" width="5.4" height="185.18"/>
    <rect class="fil5" transform="matrix(-0.827059 0.484256 -0.484256 -0.827059 1117.85 235.483)" width="5.4" height="185.18"/>
   </g>
   <rect class="fil3" transform="matrix(-0.941103 0.180937 -0.180937 -0.941103 1237.28 288.224)" width="364" height="185"/>
   <path class="fil2" d="M903 327l-24 -125c7,-1 11,-8 10,-15l292 -56c2,7 8,12 15,10l24 125c-7,1 -11,8 -10,15l-293 56c-1,-7 -8,-12 -14,-10z"/>
   <g>
    <ellipse class="fil3" transform="matrix(-0.180937 -0.941103 0.941103 -0.180937 1049.34 233.987)" rx="63" ry="50"/>
    <circle class="fil3" cx="1182" cy="208" r="11"/>
    <circle class="fil3" cx="916" cy="260" r="11"/>
   </g>
   <path class="fil2" d="M1056 282l-2 -8c-10,1 -21,-1 -30,-7l6 -12c8,5 15,7 22,6l-4 -22c-9,0 -16,-2 -21,-5 -5,-2 -8,-7 -9,-13 -1,-7 0,-13 4,-18 4,-5 9,-9 17,-11l-1 -5 7 -2 1 6c9,-1 17,0 26,4l-6 12c-5,-2 -11,-4 -17,-3l4 21 0 0c9,1 16,2 21,5 5,3 8,7 9,14 2,7 0,13 -4,18 -4,5 -9,9 -17,11l1 8 -7 1zm-22 -73c-2,2 -3,5 -2,7 0,3 2,5 3,6 2,1 5,2 10,3l-4 -20c-3,1 -6,2 -7,4zm34 46c1,-2 2,-4 2,-7 -1,-3 -2,-5 -4,-6 -2,-1 -6,-2 -11,-3l4 21c4,-1 7,-2 9,-5z"/>
   <path class="fil4" d="M979 385c0,16 -31,30 -70,30 -40,0 -71,-14 -71,-30l0 -25 141 0 0 25z"/>
   <ellipse class="fil6" cx="909" cy="360" rx="71" ry="30"/>
   <g>
    <path class="fil7" d="M909 336c-35,0 -62,11 -62,24 0,14 27,24 62,24 34,0 61,-10 61,-24 0,-13 -27,-24 -61,-24zm0 46c-31,0 -55,-10 -55,-22 0,-11 24,-21 55,-21 30,0 54,10 54,21 0,12 -24,22 -54,22z"/>
    <path class="fil7" d="M906 377l0 -3c-9,0 -18,-2 -25,-4l7 -4c6,2 12,3 18,4l0 -8c-8,-1 -13,-2 -17,-3 -3,-1 -5,-3 -5,-5 0,-2 2,-4 6,-6 4,-1 10,-2 16,-2l0 -2 7 0 0 2c7,0 15,1 21,3l-6 4c-5,-2 -10,-2 -15,-3l0 8 0 0c8,0 14,1 18,3 3,1 5,3 5,5 0,2 -2,4 -6,6 -5,1 -10,2 -17,2l0 3 -7 0zm-7 -26c-2,1 -3,2 -3,2 0,1 1,2 2,3 2,0 4,1 8,1l0 -7c-3,0 -5,1 -7,1zm22 18c2,-1 3,-2 3,-3 0,-1 -1,-1 -3,-2 -1,0 -4,-1 -8,-1l0 7c3,0 6,-1 8,-1z"/>
   </g>
   <path class="fil4" d="M979 355c0,17 -31,30 -70,30 -40,0 -71,-13 -71,-30l0 -24 141 0 0 24z"/>
   <ellipse class="fil6" cx="909" cy="331" rx="71" ry="30"/>
   <g>
    <path class="fil7" d="M909 307c-35,0 -62,11 -62,24 0,13 27,24 62,24 34,0 61,-11 61,-24 0,-13 -27,-24 -61,-24zm0 45c-31,0 -55,-9 -55,-21 0,-12 24,-21 55,-21 30,0 54,9 54,21 0,12 -24,21 -54,21z"/>
    <path class="fil7" d="M906 347l0 -3c-9,0 -18,-1 -25,-4l7 -3c6,2 12,3 18,3l0 -8c-8,0 -13,-1 -17,-2 -3,-2 -5,-3 -5,-6 0,-2 2,-4 6,-5 4,-2 10,-3 16,-3l0 -2 7 0 0 2c7,1 15,2 21,3l-6 4c-5,-1 -10,-2 -15,-2l0 7 0 0c8,1 14,2 18,3 3,1 5,3 5,5 0,3 -2,5 -6,6 -5,2 -10,2 -17,3l0 2 -7 0zm-7 -25c-2,0 -3,1 -3,2 0,1 1,1 2,2 2,0 4,1 8,1l0 -6c-3,0 -5,0 -7,1zm22 17c2,0 3,-1 3,-2 0,-1 -1,-2 -3,-2 -1,-1 -4,-1 -8,-2l0 7c3,0 6,0 8,-1z"/>
   </g>
   <path class="fil4" d="M979 326c0,16 -31,29 -70,29 -40,0 -71,-13 -71,-29l0 -25 141 0 0 25z"/>
   <ellipse class="fil6" cx="909" cy="301" rx="71" ry="30"/>
   <g>
    <path class="fil7" d="M909 277c-35,0 -62,11 -62,24 0,13 27,24 62,24 34,0 61,-11 61,-24 0,-13 -27,-24 -61,-24zm0 46c-31,0 -55,-10 -55,-22 0,-11 24,-21 55,-21 30,0 54,10 54,21 0,12 -24,22 -54,22z"/>
    <path class="fil7" d="M906 318l0 -3c-9,0 -18,-2 -25,-4l7 -4c6,2 12,3 18,4l0 -8c-8,-1 -13,-2 -17,-3 -3,-1 -5,-3 -5,-5 0,-3 2,-4 6,-6 4,-1 10,-2 16,-2l0 -2 7 0 0 2c7,0 15,1 21,3l-6 3c-5,-1 -10,-2 -15,-2l0 8 0 0c8,0 14,1 18,3 3,1 5,3 5,5 0,2 -2,4 -6,6 -5,1 -10,2 -17,2l0 3 -7 0zm-7 -26c-2,1 -3,1 -3,2 0,1 1,2 2,2 2,1 4,1 8,2l0 -7c-3,0 -5,0 -7,1zm22 18c2,-1 3,-2 3,-3 0,-1 -1,-1 -3,-2 -1,-1 -4,-1 -8,-2l0 8c3,0 6,-1 8,-1z"/>
   </g>
   <path class="fil4" d="M979 296c0,16 -31,30 -70,30 -40,0 -71,-14 -71,-30l0 -24 141 0 0 24z"/>
   <ellipse class="fil6" cx="909" cy="272" rx="71" ry="30"/>
   <g>
    <path class="fil7" d="M909 248c-35,0 -62,10 -62,24 0,13 27,24 62,24 34,0 61,-11 61,-24 0,-14 -27,-24 -61,-24zm0 45c-31,0 -55,-10 -55,-21 0,-12 24,-22 55,-22 30,0 54,10 54,22 0,11 -24,21 -54,21z"/>
    <path class="fil7" d="M906 288l0 -3c-9,0 -18,-1 -25,-4l7 -3c6,1 12,3 18,3l0 -8c-8,0 -13,-1 -17,-3 -3,-1 -5,-3 -5,-5 0,-2 2,-4 6,-5 4,-2 10,-3 16,-3l0 -2 7 0 0 2c7,0 15,1 21,3l-6 4c-5,-1 -10,-2 -15,-2l0 7 0 0c8,1 14,2 18,3 3,1 5,3 5,5 0,3 -2,5 -6,6 -5,1 -10,2 -17,2l0 3 -7 0zm-7 -26c-2,1 -3,2 -3,3 0,1 1,1 2,2 2,0 4,1 8,1l0 -7c-3,1 -5,1 -7,1zm22 18c2,-1 3,-1 3,-2 0,-1 -1,-2 -3,-3 -1,0 -4,-1 -8,-1l0 7c3,0 6,0 8,-1z"/>
   </g>
   <path class="fil4" d="M1129 385c0,16 -32,30 -71,30 -39,0 -71,-14 -71,-30l0 -25 142 0 0 25z"/>
   <ellipse class="fil6" cx="1058" cy="360" rx="71" ry="30"/>
   <g>
    <path class="fil7" d="M1058 336c-34,0 -62,11 -62,24 0,14 28,24 62,24 34,0 62,-10 62,-24 0,-13 -28,-24 -62,-24zm0 46c-31,0 -55,-10 -55,-22 0,-11 24,-21 55,-21 30,0 55,10 55,21 0,12 -25,22 -55,22z"/>
    <path class="fil7" d="M1056 377l0 -3c-10,0 -18,-2 -26,-4l8 -4c6,2 11,3 18,4l0 -8c-8,-1 -14,-2 -17,-3 -4,-1 -6,-3 -6,-5 0,-2 2,-4 6,-6 4,-1 10,-2 17,-2l0 -2 6 0 0 2c8,0 15,1 22,3l-7 4c-5,-2 -10,-2 -15,-3l0 8 0 0c8,0 14,1 18,3 4,1 5,3 5,5 0,2 -2,4 -6,6 -4,1 -10,2 -17,2l0 3 -6 0zm-8 -26c-1,1 -2,2 -2,2 0,1 0,2 2,3 1,0 4,1 8,1l0 -7c-4,0 -6,1 -8,1zm22 18c2,-1 3,-2 3,-3 0,-1 -1,-1 -2,-2 -2,0 -5,-1 -9,-1l0 7c3,0 6,-1 8,-1z"/>
   </g>
   <path class="fil4" d="M1129 355c0,17 -32,30 -71,30 -39,0 -71,-13 -71,-30l0 -24 142 0 0 24z"/>
   <ellipse class="fil6" cx="1058" cy="331" rx="71" ry="30"/>
   <g>
    <path class="fil7" d="M1058 307c-34,0 -62,11 -62,24 0,13 28,24 62,24 34,0 62,-11 62,-24 0,-13 -28,-24 -62,-24zm0 45c-31,0 -55,-9 -55,-21 0,-12 24,-21 55,-21 30,0 55,9 55,21 0,12 -25,21 -55,21z"/>
    <path class="fil7" d="M1056 347l0 -3c-10,0 -18,-1 -26,-4l8 -3c6,2 11,3 18,3l0 -8c-8,0 -14,-1 -17,-2 -4,-2 -6,-3 -6,-6 0,-2 2,-4 6,-5 4,-2 10,-3 17,-3l0 -2 6 0 0 2c8,1 15,2 22,3l-7 4c-5,-1 -10,-2 -15,-2l0 7 0 0c8,1 14,2 18,3 4,1 5,3 5,5 0,3 -2,5 -6,6 -4,2 -10,2 -17,3l0 2 -6 0zm-8 -25c-1,0 -2,1 -2,2 0,1 0,1 2,2 1,0 4,1 8,1l0 -6c-4,0 -6,0 -8,1zm22 17c2,0 3,-1 3,-2 0,-1 -1,-2 -2,-2 -2,-1 -5,-1 -9,-2l0 7c3,0 6,0 8,-1z"/>
   </g>
   <g>
   </g>
   <g>
   </g>
   <g>
   </g>
   <g>
   </g>
   <g>
   </g>
   <g>
   </g>
   <g>
   </g>
   <g>
   </g>
   <g>
   </g>
   <g>
   </g>
   <g>
   </g>
   <g>
   </g>
   <g>
   </g>
   <g>
   </g>
   <g>
   </g>
  </g>
 </g>
</svg>
