<?xml version="1.0" encoding="UTF-8"?>
<!DOCTYPE svg PUBLIC "-//W3C//DTD SVG 1.1//EN" "http://www.w3.org/Graphics/SVG/1.1/DTD/svg11.dtd">
<!-- Creator: CorelDRAW X7 -->
<svg xmlns="http://www.w3.org/2000/svg" xml:space="preserve" width="82.886mm" height="11.7263mm" version="1.1" style="shape-rendering:geometricPrecision; text-rendering:geometricPrecision; image-rendering:optimizeQuality; fill-rule:evenodd; clip-rule:evenodd"
viewBox="0 0 8013 1134"
 xmlns:xlink="http://www.w3.org/1999/xlink"
 enable-background="new 0 0 404.655 98.179">
 <defs>
  <style type="text/css">
   <![CDATA[
    .fil0 {fill:#019CDE}
    .fil2 {fill:white}
    .fil1 {fill:#FEFEFE;fill-rule:nonzero}
    .fil3 {fill:white;fill-opacity:0.678431}
    .fil4 {fill:white;fill-opacity:0.701961}
   ]]>
  </style>
 </defs>
 <g id="Layer_x0020_1">
  <metadata id="CorelCorpID_0Corel-Layer"/>
  <path class="fil0" d="M567 0l6879 0c312,0 567,255 567,567l0 0c0,312 -255,567 -567,567l-6879 0c-312,0 -567,-255 -567,-567l0 0c0,-312 255,-567 567,-567z"/>
  <path class="fil1" d="M4442 547l29 -2c1,11 4,20 10,28 5,7 13,13 23,17 11,5 23,7 36,7 12,0 23,-2 32,-5 9,-4 16,-8 20,-14 5,-6 7,-13 7,-20 0,-7 -2,-13 -7,-18 -4,-5 -11,-10 -21,-13 -6,-3 -20,-6 -42,-11 -21,-5 -37,-10 -45,-14 -11,-6 -20,-13 -25,-22 -6,-8 -9,-17 -9,-28 0,-11 4,-22 11,-32 6,-10 16,-17 29,-22 13,-6 28,-8 43,-8 18,0 33,3 46,8 14,5 24,13 31,24 7,10 11,22 12,35l-30 3c-2,-15 -7,-25 -16,-33 -10,-7 -23,-11 -41,-11 -19,0 -33,4 -42,10 -8,7 -13,15 -13,24 0,8 3,15 10,20 6,6 21,11 47,16 25,6 42,11 52,15 13,6 23,14 30,23 6,9 10,20 10,32 0,12 -4,23 -11,34 -7,11 -17,19 -31,25 -13,6 -28,9 -45,9 -21,0 -39,-3 -54,-9 -14,-6 -25,-15 -33,-27 -9,-12 -13,-26 -13,-41z"/>
  <path id="1" class="fil1" d="M4779 620l0 -25c-13,19 -31,28 -54,28 -10,0 -19,-2 -28,-5 -9,-4 -15,-9 -20,-14 -4,-6 -7,-13 -8,-21 -2,-5 -2,-14 -2,-26l0 -101 29 0 0 91c0,14 0,24 2,29 1,7 5,13 11,17 6,4 13,6 22,6 9,0 17,-2 24,-6 8,-4 13,-10 16,-18 3,-7 5,-18 5,-32l0 -87 29 0 0 164 -26 0z"/>
  <path id="2" class="fil1" d="M4877 620l-27 0 0 -226 29 0 0 80c12,-14 28,-22 47,-22 10,0 20,2 30,6 9,5 17,10 23,18 6,7 10,16 14,26 3,10 5,22 5,33 0,28 -7,50 -22,65 -14,16 -31,23 -52,23 -20,0 -36,-8 -47,-24l0 21zm0 -83c0,19 3,33 8,42 9,14 21,21 37,21 13,0 24,-5 33,-15 9,-11 13,-27 13,-47 0,-22 -4,-37 -13,-48 -9,-10 -19,-15 -32,-15 -12,0 -23,5 -32,16 -10,10 -14,26 -14,46z"/>
  <path id="3" class="fil1" d="M5022 571l28 -5c2,11 6,20 14,26 7,6 17,8 31,8 13,0 23,-2 29,-7 7,-5 10,-12 10,-19 0,-6 -3,-11 -9,-14 -4,-3 -14,-6 -29,-10 -21,-5 -36,-9 -44,-13 -9,-4 -15,-9 -19,-16 -4,-6 -6,-14 -6,-22 0,-7 1,-14 5,-20 3,-6 8,-11 14,-15 5,-3 11,-6 18,-8 8,-2 17,-4 25,-4 14,0 26,2 36,6 10,4 17,9 22,15 5,6 8,15 10,25l-28 4c-2,-8 -5,-15 -11,-20 -7,-5 -15,-7 -26,-7 -14,0 -23,2 -29,6 -5,5 -8,10 -8,15 0,4 1,7 3,10 3,3 6,5 11,7 3,1 12,4 26,7 20,6 34,10 42,13 9,4 15,8 20,15 4,6 7,14 7,24 0,9 -3,17 -9,26 -6,8 -14,14 -24,19 -11,4 -23,6 -36,6 -22,0 -39,-4 -51,-13 -12,-9 -19,-22 -22,-39z"/>
  <path id="4" class="fil1" d="M5309 560l28 4c-3,18 -11,33 -23,43 -13,11 -29,16 -47,16 -24,0 -42,-7 -57,-22 -14,-14 -21,-35 -21,-63 0,-17 3,-33 9,-46 6,-13 16,-23 28,-30 13,-6 26,-10 41,-10 18,0 33,5 45,14 12,9 20,22 23,38l-28 4c-3,-11 -7,-19 -14,-25 -7,-5 -15,-8 -25,-8 -15,0 -26,5 -36,15 -9,10 -13,26 -13,48 0,22 4,38 13,48 9,9 20,14 34,14 12,0 21,-3 29,-10 7,-6 12,-16 14,-30z"/>
  <path id="5" class="fil1" d="M5362 620l0 -164 26 0 0 25c6,-12 13,-19 18,-23 6,-4 12,-6 19,-6 10,0 19,3 30,9l-11 26c-7,-4 -14,-6 -21,-6 -6,0 -12,2 -17,6 -5,3 -8,8 -10,15 -4,10 -5,20 -5,32l0 86 -29 0z"/>
  <path id="6" class="fil1" d="M5472 425l0 -31 29 0 0 31 -29 0zm0 195l0 -164 29 0 0 164 -29 0z"/>
  <path id="7" class="fil1" d="M5571 620l-27 0 0 -226 29 0 0 80c13,-14 28,-22 47,-22 11,0 21,2 30,6 9,5 17,10 23,18 6,7 11,16 14,26 4,10 5,22 5,33 0,28 -7,50 -21,65 -15,16 -32,23 -52,23 -20,0 -36,-8 -48,-24l0 21zm0 -83c0,19 3,33 8,42 9,14 22,21 37,21 13,0 24,-5 33,-15 9,-11 14,-27 14,-47 0,-22 -5,-37 -13,-48 -9,-10 -20,-15 -32,-15 -13,0 -24,5 -33,16 -9,10 -14,26 -14,46z"/>
  <path id="8" class="fil1" d="M5844 567l30 3c-5,17 -13,30 -26,39 -13,10 -29,14 -49,14 -25,0 -44,-7 -59,-22 -15,-15 -22,-35 -22,-62 0,-27 7,-49 22,-64 15,-15 34,-23 58,-23 22,0 41,8 55,23 15,15 22,36 22,63 0,1 0,4 0,7l-127 0c1,18 6,32 16,41 9,10 21,14 35,14 11,0 20,-2 27,-8 8,-5 14,-14 18,-25zm-95 -45l95 0c-1,-14 -5,-24 -11,-31 -9,-11 -21,-16 -35,-16 -14,0 -25,4 -34,13 -9,8 -14,20 -15,34z"/>
  <g id="_2073205156992">
   <g>
    <g>
     <g>
      <path class="fil2" d="M3765 363l-122 0c-8,0 -15,6 -17,14l-49 313c-1,6 4,12 10,12l63 0c6,0 11,-4 12,-10l14 -89c1,-8 8,-14 16,-14l39 0c80,0 127,-39 139,-116 5,-34 0,-60 -16,-79 -17,-20 -48,-31 -89,-31zm14 114c-6,44 -40,44 -72,44l-19 0 13 -82c1,-5 5,-8 10,-8l9 0c22,0 43,0 53,12 7,8 9,19 6,34z"/>
      <path class="fil2" d="M2895 363l-122 0c-9,0 -16,6 -17,14l-49 313c-1,6 3,12 10,12l58 0c8,0 15,-6 17,-14l13 -85c1,-8 8,-14 17,-14l38 0c81,0 127,-39 139,-116 6,-34 1,-60 -15,-79 -18,-20 -48,-31 -89,-31zm14 114c-7,44 -40,44 -73,44l-18 0 13 -82c1,-5 5,-8 10,-8l8 0c22,0 43,0 54,12 6,8 8,19 6,34z"/>
      <path class="fil2" d="M3260 476l-59 0c-5,0 -9,3 -10,8l-2 17 -5 -6c-12,-19 -40,-25 -69,-25 -64,0 -119,49 -130,118 -6,34 2,67 22,90 18,21 43,29 73,29 52,0 81,-33 81,-33l-2 16c-1,6 3,12 10,12l52 0c9,0 16,-6 17,-14l32 -200c1,-7 -4,-12 -10,-12zm-82 113c-6,34 -32,56 -66,56 -17,0 -30,-5 -39,-15 -9,-11 -12,-25 -9,-42 5,-33 32,-56 65,-56 17,0 30,6 39,16 9,11 13,25 10,41z"/>
      <path class="fil2" d="M4130 476l-58 0c-5,0 -10,3 -10,8l-3 17 -4 -6c-13,-19 -41,-25 -69,-25 -65,0 -120,49 -131,118 -5,34 3,67 22,90 18,21 43,29 74,29 52,0 81,-33 81,-33l-3 16c-1,6 4,12 10,12l53 0c8,0 15,-6 17,-14l31 -200c1,-7 -4,-12 -10,-12zm-81 113c-6,34 -33,56 -66,56 -17,0 -31,-5 -40,-15 -8,-11 -11,-25 -9,-42 6,-33 32,-56 66,-56 16,0 30,6 39,16 9,11 12,25 10,41z"/>
      <path class="fil2" d="M3571 476l-59 0c-6,0 -11,3 -14,7l-81 120 -34 -115c-2,-7 -9,-12 -17,-12l-57 0c-7,0 -12,7 -10,13l65 190 -61 86c-5,7 0,16 8,16l59 0c5,0 11,-3 14,-7l195 -282c5,-7 0,-16 -8,-16z"/>
      <path class="fil2" d="M4199 371l-50 319c-1,6 4,12 10,12l50 0c9,0 16,-6 17,-14l49 -313c1,-7 -3,-12 -10,-12l-56 0c-5,0 -9,3 -10,8z"/>
     </g>
    </g>
   </g>
   <g>
    <path class="fil3" d="M2467 379c7,-42 0,-70 -22,-96 -25,-28 -70,-41 -128,-41l-168 0c-11,0 -21,9 -23,21l-70 442c-1,8 6,16 14,16l104 0 -7 45c-2,8 4,15 12,15l87 0c10,0 19,-8 21,-18l1 -4 16 -104 1 -6c2,-10 10,-18 21,-18l13 0c84,0 150,-34 170,-133 8,-41 3,-76 -18,-100 -6,-8 -14,-14 -24,-19l0 0z"/>
    <path class="fil4" d="M2467 379c7,-42 0,-70 -22,-96 -25,-28 -70,-41 -128,-41l-168 0c-11,0 -21,9 -23,21l-70 442c-1,8 6,16 14,16l104 0 26 -164 -1 5c2,-12 12,-20 23,-20l49 0c97,0 172,-40 195,-153 0,-3 1,-7 1,-10z"/>
    <path class="fil2" d="M2228 380c1,-7 5,-13 11,-16 3,-1 6,-2 9,-2l131 0c16,0 30,1 44,3 3,1 7,2 11,2 3,1 7,2 10,3 2,1 3,1 5,2 7,2 13,4 18,7 7,-42 0,-70 -22,-96 -25,-28 -70,-41 -128,-41l-168 0c-11,0 -21,9 -23,21l-70 442c-1,8 6,16 14,16l104 0 26 -164 28 -177z"/>
   </g>
   <g>
   </g>
   <g>
   </g>
   <g>
   </g>
   <g>
   </g>
   <g>
   </g>
   <g>
   </g>
  </g>
 </g>
</svg>
