<?xml version="1.0" encoding="UTF-8"?>
<!DOCTYPE svg PUBLIC "-//W3C//DTD SVG 1.1//EN" "http://www.w3.org/Graphics/SVG/1.1/DTD/svg11.dtd">
<!-- Creator: CorelDRAW X7 -->
<svg xmlns="http://www.w3.org/2000/svg" xml:space="preserve" width="120.263mm" height="34.0532mm" version="1.1" style="shape-rendering:geometricPrecision; text-rendering:geometricPrecision; image-rendering:optimizeQuality; fill-rule:evenodd; clip-rule:evenodd"
viewBox="0 0 13517 3827"
 xmlns:xlink="http://www.w3.org/1999/xlink"
 enable-background="new 0 0 258.381 161.154"
 xmlns:dc="http://purl.org/dc/elements/1.1/"
 xmlns:cc="http://creativecommons.org/ns#"
 xmlns:rdf="http://www.w3.org/1999/02/22-rdf-syntax-ns#"
 xmlns:svg="http://www.w3.org/2000/svg"
 xmlns:sodipodi="http://sodipodi.sourceforge.net/DTD/sodipodi-0.dtd"
 xmlns:inkscape="http://www.inkscape.org/namespaces/inkscape"
 inkscape:version="0.91 r13725"
 sodipodi:docname="American_Express_2018.svg">
 <defs>
  <style type="text/css">
   <![CDATA[
    .str0 {stroke:#C5C6C6;stroke-width:56.1986}
    .fil0 {fill:none}
    .fil1 {fill:#FEFEFE}
    .fil7 {fill:black}
    .fil5 {fill:#00579F}
    .fil11 {fill:#016FD0}
    .fil3 {fill:#179BD7}
    .fil4 {fill:#222D65}
    .fil2 {fill:#253B80}
    .fil9 {fill:#EB001B}
    .fil10 {fill:#F79E1B}
    .fil6 {fill:#FAA61A}
    .fil8 {fill:#FF5F00}
    .fil12 {fill:white}
    .fil13 {fill:#D9DADA;fill-rule:nonzero}
    .fil16 {fill:#2B2A29;fill-rule:nonzero}
    .fil14 {fill:#EF7F1A;fill-rule:nonzero}
    .fil15 {fill:#1E272A;fill-rule:nonzero}
    .fil17 {fill:url(#id0)}
   ]]>
  </style>
  <radialGradient id="id0" gradientUnits="objectBoundingBox" cx="50%" cy="50%" r="50%" fx="50%" fy="50%">
   <stop offset="0" style="stop-opacity:1; stop-color:#FEFEFE"/>
   <stop offset="1" style="stop-opacity:1; stop-color:#EF7F1A"/>
  </radialGradient>
 </defs>
 <g id="Layer_x0020_1">
  <metadata id="CorelCorpID_0Corel-Layer"/>
  <path class="fil0 str0" d="M280 846l12957 0c139,0 252,113 252,252l0 2449c0,139 -113,252 -252,252l-12957 0c-138,0 -252,-113 -252,-252l0 -2449c0,-139 114,-252 252,-252z"/>
  <rect class="fil1" x="807" width="4061" height="1614"/>
  <g id="_2073331462352">
   <path class="fil2" d="M2415 484l-185 0c-13,0 -24,9 -26,21l-75 476c-1,9 6,17 15,17l89 0c13,0 23,-9 25,-21l21 -129c2,-12 12,-21 25,-21l59 0c122,0 192,-59 211,-176 8,-52 0,-92 -24,-120 -26,-31 -73,-47 -135,-47zm21 173c-10,67 -61,67 -110,67l-28 0 20 -125c1,-7 8,-13 15,-13l13 0c33,0 65,0 81,19 10,12 13,29 9,52z"/>
   <path class="fil2" d="M2969 655l-89 0c-7,0 -14,6 -15,13l-4 25 -6 -9c-19,-28 -62,-37 -105,-37 -98,0 -182,74 -198,178 -9,52 3,102 33,136 27,32 66,46 112,46 79,0 122,-51 122,-51l-4 24c-1,10 6,18 16,18l80 0c12,0 23,-9 25,-21l48 -304c2,-10 -6,-18 -15,-18zm-124 173c-8,50 -49,84 -100,84 -26,0 -46,-8 -60,-23 -13,-16 -18,-38 -13,-63 8,-50 48,-85 99,-85 25,0 46,8 59,24 14,16 19,38 15,63z"/>
   <path class="fil2" d="M3442 655l-90 0c-8,0 -16,4 -21,11l-123 181 -52 -174c-3,-11 -13,-18 -25,-18l-87 0c-11,0 -19,10 -15,20l98 289 -92 130c-8,10 0,24 12,24l89 0c9,0 17,-4 22,-11l296 -428c7,-10 0,-24 -12,-24z"/>
   <path class="fil3" d="M3737 484l-186 0c-12,0 -23,9 -25,21l-75 476c-1,9 6,17 15,17l95 0c9,0 17,-6 18,-15l21 -135c2,-12 13,-21 26,-21l59 0c122,0 192,-59 210,-176 9,-52 1,-92 -23,-120 -27,-31 -73,-47 -135,-47zm21 173c-10,67 -61,67 -110,67l-28 0 20 -125c1,-7 7,-13 15,-13l13 0c33,0 65,0 81,19 10,12 13,29 9,52z"/>
   <path class="fil3" d="M4291 655l-89 0c-8,0 -14,6 -15,13l-4 25 -6 -9c-20,-28 -62,-37 -105,-37 -98,0 -182,74 -198,178 -9,52 3,102 33,136 27,32 65,46 112,46 79,0 122,-51 122,-51l-4 24c-1,10 6,18 16,18l80 0c12,0 23,-9 25,-21l48 -304c1,-10 -6,-18 -15,-18zm-124 173c-9,50 -49,84 -100,84 -26,0 -46,-8 -60,-23 -13,-16 -18,-38 -14,-63 8,-50 49,-85 100,-85 25,0 46,8 59,24 14,16 19,38 15,63z"/>
   <path class="fil3" d="M4395 497l-76 484c-1,9 6,17 15,17l77 0c13,0 23,-9 25,-21l75 -476c2,-9 -5,-17 -15,-17l-85 0c-8,0 -14,5 -16,13z"/>
   <path class="fil2" d="M1360 1091l14 -90 -32 -1 -151 0 105 -664c1,-2 2,-4 3,-6 2,-1 4,-2 6,-2l254 0c84,0 142,18 173,53 14,16 23,33 28,52 4,19 4,43 0,71l-1 2 0 19 15 8c12,6 21,13 29,22 12,14 20,31 23,52 3,22 2,47 -3,76 -7,34 -17,63 -32,87 -13,22 -29,40 -49,54 -19,13 -41,23 -67,30 -24,6 -52,10 -83,10l-20 0c-14,0 -28,5 -38,14 -11,9 -18,22 -20,36l-2 8 -25 159 -1 5c0,2 -1,3 -2,4 0,0 -1,1 -2,1l-122 0z"/>
   <path class="fil3" d="M1787 508l0 0 0 0c-1,5 -1,10 -2,15 -34,172 -149,232 -295,232l-75 0c-18,0 -33,13 -35,31l0 0 0 0 -39 242 -10 68c-2,12 7,22 18,22l133 0c15,0 29,-11 31,-26l1 -7 25 -158 2 -9c2,-15 16,-27 31,-27l20 0c128,0 229,-52 258,-202 12,-63 6,-116 -27,-153 -9,-11 -22,-20 -36,-28z"/>
   <path class="fil4" d="M1752 494c-5,-1 -10,-2 -16,-4 -5,-1 -11,-2 -16,-3 -21,-3 -43,-5 -66,-5l-199 0c-5,0 -10,2 -14,4 -9,4 -16,13 -18,23l-42 269 -1 8c2,-18 17,-31 35,-31l75 0c146,0 261,-60 295,-232 1,-5 1,-10 2,-15 -8,-4 -17,-8 -27,-11 -3,-1 -5,-2 -8,-3z"/>
   <path class="fil2" d="M1423 509c2,-10 9,-19 18,-23 4,-2 9,-4 14,-4l199 0c23,0 45,2 66,5 5,1 11,2 16,3 6,2 11,3 16,4 3,1 5,2 8,3 10,3 19,7 27,11 10,-63 0,-106 -34,-146 -38,-43 -107,-61 -194,-61l-254 0c-18,0 -33,13 -36,30l-106 671c-2,14 8,26 21,26l157 0 40 -250 42 -269z"/>
  </g>
  <g id="_2073331465712">
   <sodipodi:namedview pagecolor="#ffffff" bordercolor="#666666" borderopacity="1" objecttolerance="10" gridtolerance="10" guidetolerance="10" inkscape:pageopacity="0" inkscape:pageshadow="2" inkscape:window-width="1366" inkscape:window-height="705" id="namedview19" showgrid="false" inkscape:zoom="0.35355339" inkscape:cx="34.690897" inkscape:cy="131.15483" inkscape:window-x="-8" inkscape:window-y="-8" inkscape:window-maximized="1" inkscape:current-layer="Layer_1"/>
   <g id="g4158">
    <polygon id="polygon9" class="fil5" points="1705,2687 1517,2687 1634,1960 1822,1960 "/>
    <path id="path11" class="fil5" d="M2386 1978c-37,-15 -96,-31 -168,-31 -186,0 -317,99 -318,241 -1,104 94,162 165,197 73,35 98,59 98,90 -1,49 -59,72 -113,72 -75,0 -116,-12 -177,-39l-24 -12 -27 163c44,21 126,38 210,39 197,0 326,-97 327,-248 1,-83 -49,-146 -158,-198 -65,-33 -106,-56 -106,-90 1,-31 34,-63 109,-63 61,-1 106,14 140,28l17 8 25 -157 0 0 0 0z" inkscape:connector-curvature="0"/>
    <path id="path13" class="fil5" d="M2636 2430c16,-42 75,-204 75,-204 -1,2 16,-42 25,-69l13 62c0,0 36,174 43,211 -29,0 -119,0 -156,0l0 0 0 0zm232 -470l-145 0c-45,0 -79,13 -99,61l-279 666 197 0c0,0 33,-89 40,-109 22,0 213,0 241,0 6,26 23,109 23,109l174 0 -152 -727 0 0 0 0z" inkscape:connector-curvature="0"/>
    <path id="path15" class="fil5" d="M1360 1960l-184 496 -21 -101c-34,-116 -140,-242 -260,-304l169 636 199 0 295 -727 -198 0 0 0z" inkscape:connector-curvature="0"/>
    <path id="path17" class="fil6" d="M1005 1960l-303 0 -3 15c236,60 392,206 456,380l-65 -334c-11,-46 -44,-59 -85,-61l0 0z" inkscape:connector-curvature="0"/>
   </g>
  </g>
  <g id="_2073331467984">
   <sodipodi:namedview pagecolor="#ffffff" bordercolor="#666666" borderopacity="1" objecttolerance="10" gridtolerance="10" guidetolerance="10" inkscape:pageopacity="0" inkscape:pageshadow="2" inkscape:window-width="1366" inkscape:window-height="705" id="namedview4178" showgrid="false" inkscape:zoom="0.35355339" inkscape:cx="400.80964" inkscape:cy="270.06961" inkscape:window-x="-8" inkscape:window-y="-8" inkscape:window-maximized="1" inkscape:current-layer="svg3409"/>
   <g id="layer1">
    <g id="g13">
     <g id="g15">
      <path id="XMLID_1775_" class="fil7" d="M4722 3141l0 -109c0,-42 -25,-69 -69,-69 -22,0 -45,7 -62,31 -13,-20 -31,-31 -58,-31 -18,0 -36,6 -51,26l0 -22 -38 0 0 174 38 0 0 -96c0,-31 16,-45 42,-45 25,0 38,16 38,45l0 96 38 0 0 -96c0,-31 19,-45 42,-45 26,0 38,16 38,45l0 96 42 0 0 0zm566 -174l-62 0 0 -53 -38 0 0 53 -34 0 0 34 34 0 0 80c0,40 16,64 60,64 17,0 35,-5 47,-13l-10 -32c-11,7 -24,9 -33,9 -18,0 -26,-11 -26,-29l0 -79 62 0 0 -34 0 0zm324 -4c-22,0 -36,11 -45,26l0 -22 -39 0 0 174 39 0 0 -98c0,-29 12,-45 36,-45 7,0 16,2 24,3l11 -36c-8,-2 -19,-2 -26,-2l0 0 0 0zm-489 18c-19,-12 -44,-18 -71,-18 -44,0 -73,22 -73,57 0,29 22,45 60,50l18 2c20,4 31,9 31,18 0,13 -15,22 -40,22 -26,0 -46,-9 -58,-18l-18 29c20,15 47,22 74,22 51,0 80,-24 80,-56 0,-31 -23,-48 -60,-53l-18 -2c-16,-2 -29,-5 -29,-16 0,-13 13,-20 33,-20 21,0 43,9 54,14l17 -31 0 0zm1015 -18c-22,0 -36,11 -46,26l0 -22 -38 0 0 174 38 0 0 -98c0,-29 13,-45 37,-45 7,0 16,2 24,3l10 -36c-7,-2 -18,-2 -25,-2l0 0 0 0zm-488 91c0,53 37,91 93,91 26,0 44,-5 62,-20l-18 -31c-15,11 -29,17 -46,17 -31,0 -52,-22 -52,-57 0,-33 21,-54 52,-56 17,0 31,5 46,16l18 -31c-18,-14 -36,-20 -62,-20 -56,0 -93,38 -93,91l0 0zm353 0l0 -87 -38 0 0 22c-13,-17 -31,-26 -54,-26 -50,0 -88,38 -88,91 0,53 38,91 88,91 25,0 43,-9 54,-25l0 21 38 0 0 -87 0 0zm-140 0c0,-31 20,-56 53,-56 31,0 53,23 53,56 0,31 -22,57 -53,57 -33,-2 -53,-26 -53,-57l0 0zm-457 -91c-51,0 -87,37 -87,91 0,55 36,91 89,91 26,0 51,-7 71,-24l-18 -27c-15,11 -33,18 -51,18 -24,0 -47,-11 -53,-42l130 0c0,-5 0,-9 0,-14 1,-56 -31,-93 -81,-93l0 0 0 0zm0 33c24,0 40,14 44,42l-91 0c4,-24 20,-42 47,-42l0 0zm949 58l0 -156 -39 0 0 91c-12,-17 -31,-26 -54,-26 -49,0 -88,38 -88,91 0,53 39,91 88,91 25,0 43,-9 54,-25l0 21 39 0 0 -87 0 0zm-141 0c0,-31 20,-56 53,-56 31,0 53,23 53,56 0,31 -22,57 -53,57 -33,-2 -53,-26 -53,-57l0 0zm-1277 0l0 -87 -38 0 0 22c-13,-17 -31,-26 -55,-26 -49,0 -87,38 -87,91 0,53 38,91 87,91 26,0 44,-9 55,-25l0 21 38 0 0 -87 0 0zm-142 0c0,-31 20,-56 53,-56 31,0 53,23 53,56 0,31 -22,57 -53,57 -33,-2 -53,-26 -53,-57z" inkscape:connector-curvature="0"/>
     </g>
     <g id="XMLID_328_">
      <rect id="rect19" class="fil8" x="5110" y="1640" width="573" height="1030"/>
      <path id="XMLID_330_" class="fil9" d="M5146 2155c0,-209 98,-395 250,-515 -111,-87 -252,-140 -404,-140 -363,0 -656,293 -656,655 0,362 293,655 656,655 152,0 293,-53 404,-140 -152,-118 -250,-306 -250,-515z" inkscape:connector-curvature="0"/>
      <path id="path22" class="fil10" d="M6456 2155c0,362 -293,655 -655,655 -153,0 -293,-53 -404,-140 153,-120 250,-306 250,-515 0,-209 -99,-395 -250,-515 111,-87 251,-140 404,-140 362,0 655,295 655,655z" inkscape:connector-curvature="0"/>
     </g>
    </g>
   </g>
  </g>
  <g id="_2073331469712">
   <sodipodi:namedview id="base" pagecolor="#ffffff" bordercolor="#666666" borderopacity="1.0" inkscape:pageopacity="0.0" inkscape:pageshadow="2" inkscape:zoom="0.125" inkscape:cx="850.2929" inkscape:cy="357.59411" inkscape:document-units="px" inkscape:current-layer="layer1" showgrid="true" fit-margin-top="0" fit-margin-left="0" fit-margin-right="0" fit-margin-bottom="0" inkscape:window-width="1680" inkscape:window-height="931" inkscape:window-x="0" inkscape:window-y="1" inkscape:window-maximized="1">
    <inkscape:grid type="xygrid" id="grid2996" empspacing="5" visible="true" enabled="true" snapvisiblegridlinesonly="true" originx="-55.5px" originy="947.50002px"/>
   </sodipodi:namedview>
   <g id="layer1_0" inkscape:label="Layer 1" inkscape:groupmode="layer">
    <polygon id="path3078" class="fil11" points="7606,1334 9583,1334 9583,2401 9486,2554 9583,2690 9583,3311 7606,3311 7606,2305 7667,2235 7606,2167 " sodipodi:nodetypes="ccccccccccc" inkscape:connector-curvature="0"/>
    <path id="path3082" class="fil12" d="M7990 2712l0 -311 328 0 36 46 36 -46 1193 0 0 289c0,0 -31,22 -67,22l-661 0 -39 -49 0 49 -131 0 0 -84c0,0 -18,12 -56,12l-44 0 0 72 -198 0 -35 -47 -36 47 -326 0z" sodipodi:nodetypes="cccccccccccccccccccc" inkscape:connector-curvature="0"/>
    <path id="path3080" class="fil12" d="M7606 2167l74 -173 128 0 42 97 0 -97 159 0 26 70 24 -70 715 0 0 36c0,0 38,-36 100,-36l232 1 41 96 0 -97 134 0 36 55 0 -55 135 0 0 311 -135 0 -35 -55 0 55 -196 0 -20 -49 -52 0 -20 49 -132 0c-54,0 -88,-34 -88,-34l0 34 -200 0 -40 -49 0 49 -745 0 -20 -49 -52 0 -20 49 -91 0 0 -138z" sodipodi:nodetypes="cccccccccccccccccccccccccccccccccccccc" inkscape:connector-curvature="0"/>
    <path id="path3046" class="fil11" d="M7706 2033l-100 232 65 0 19 -46 107 0 18 46 67 0 -100 -232 -76 0zm37 54l33 81 -66 0 33 -81z" inkscape:connector-curvature="0"/>
    <polygon id="path3048" class="fil11" points="7889,2265 7889,2033 7981,2033 8035,2183 8088,2033 8179,2033 8179,2265 8121,2265 8121,2094 8060,2265 8009,2265 7947,2094 7947,2265 " sodipodi:nodetypes="cccccccccccccc" inkscape:connector-curvature="0"/>
    <polygon id="path3050" class="fil11" points="8219,2265 8219,2033 8409,2033 8409,2085 8278,2085 8278,2124 8406,2124 8406,2173 8278,2173 8278,2215 8409,2215 8409,2265 " sodipodi:nodetypes="ccccccccccccc" inkscape:connector-curvature="0"/>
    <path id="path3052" class="fil11" d="M8442 2033l0 232 59 0 0 -82 24 0 70 82 71 0 -77 -85c32,-3 64,-30 64,-72 0,-49 -38,-75 -81,-75l-130 0zm59 52l66 0c16,0 27,12 27,24 0,16 -15,25 -26,25l-67 0 0 -49 0 0z" inkscape:connector-curvature="0"/>
    <polygon id="path3054" class="fil11" points="8736,2265 8677,2265 8677,2033 8736,2033 " sodipodi:nodetypes="ccccc" inkscape:connector-curvature="0"/>
    <path id="path3056" class="fil11" d="M8877 2265l-13 0c-62,0 -100,-49 -100,-115 0,-68 38,-117 116,-117l64 0 0 55 -66 0c-32,0 -55,25 -55,62 0,46 26,64 63,64l15 0 -24 51z" sodipodi:nodetypes="ccccccccccc" inkscape:connector-curvature="0"/>
    <path id="path3058" class="fil11" d="M9003 2033l-100 232 65 0 19 -46 107 0 18 46 67 0 -100 -232 -76 0zm37 54l33 81 -66 0 33 -81z" inkscape:connector-curvature="0"/>
    <polygon id="path3060" class="fil11" points="9186,2265 9186,2033 9260,2033 9354,2179 9354,2033 9412,2033 9412,2265 9341,2265 9244,2115 9244,2265 " sodipodi:nodetypes="ccccccccccc" inkscape:connector-curvature="0"/>
    <polygon id="path3062" class="fil11" points="8029,2672 8029,2440 8219,2440 8219,2492 8088,2492 8088,2531 8216,2531 8216,2580 8088,2580 8088,2622 8219,2622 8219,2672 " inkscape:connector-curvature="0" sodipodi:nodetypes="ccccccccccccc"/>
    <polygon id="path3064" class="fil11" points="8959,2672 8959,2440 9148,2440 9148,2492 9018,2492 9018,2531 9145,2531 9145,2580 9018,2580 9018,2622 9148,2622 9148,2672 " sodipodi:nodetypes="ccccccccccccc" inkscape:connector-curvature="0"/>
    <polygon id="path3066" class="fil11" points="8226,2672 8319,2557 8224,2440 8297,2440 8354,2512 8410,2440 8481,2440 8387,2556 8480,2672 8407,2672 8352,2600 8299,2672 " sodipodi:nodetypes="ccccccccccccc" inkscape:connector-curvature="0"/>
    <path id="path3068" class="fil11" d="M8487 2440l0 232 59 0 0 -73 62 0c51,0 91,-28 91,-81 0,-44 -31,-78 -84,-78l-128 0zm59 52l65 0c17,0 29,10 29,27 0,15 -12,27 -29,27l-65 0 0 -54 0 0z" inkscape:connector-curvature="0"/>
    <path id="path3072" class="fil11" d="M8724 2440l0 232 58 0 0 -83 24 0 70 83 71 0 -76 -86c31,-2 63,-29 63,-71 0,-49 -38,-75 -81,-75l-129 0 0 0zm58 52l66 0c16,0 28,12 28,24 0,16 -15,25 -27,25l-67 0 0 -49z" inkscape:connector-curvature="0"/>
    <path id="path3074" class="fil11" d="M9175 2672l0 -50 117 0c17,0 24,-10 24,-20 0,-10 -7,-20 -24,-20l-53 0c-46,0 -71,-27 -71,-69 0,-37 23,-73 91,-73l113 0 -24 52 -98 0c-19,0 -24,10 -24,19 0,10 7,20 21,20l55 0c51,0 73,29 73,67 0,41 -25,74 -76,74l-124 0z" sodipodi:nodetypes="ccccccccccccccccc" inkscape:connector-curvature="0"/>
    <path id="path3076" class="fil11" d="M9389 2672l0 -50 116 0c17,0 25,-10 25,-20 0,-10 -8,-20 -25,-20l-53 0c-45,0 -71,-27 -71,-69 0,-37 24,-73 92,-73l113 0 -25 52 -98 0c-18,0 -24,10 -24,19 0,10 7,20 21,20l55 0c51,0 73,29 73,67 0,41 -24,74 -75,74l-124 0z" inkscape:connector-curvature="0" sodipodi:nodetypes="ccccccccccccccccc"/>
   </g>
  </g>
  <g id="_2073331477296">
   <path class="fil13" d="M13077 1470c0,19 0,1686 0,1705 -19,0 -2668,0 -2688,0 0,-19 0,-1685 0,-1705 20,0 2669,0 2688,0zm20 1725l0 -571 0 -1174 -428 0 -2299 0 0 1745 2727 0z"/>
   <path class="fil14" d="M13077 2419c0,0 -740,522 -2095,756l2095 0 0 -756z"/>
   <path class="fil15" d="M10741 2184c-23,21 -53,30 -101,30l-20 0 0 -250 20 0c48,0 77,9 101,31 26,22 41,57 41,94 0,36 -15,72 -41,95zm-86 -284l-108 0 0 378 107 0c58,0 99,-14 135,-44 43,-36 69,-89 69,-145 0,-111 -84,-189 -203,-189z"/>
   <polygon class="fil15" points="10892,2278 10965,2278 10965,1900 10892,1900 "/>
   <path class="fil15" d="M11145 2045c-44,-16 -57,-27 -57,-48 0,-23 23,-41 55,-41 22,0 40,9 59,30l39 -50c-32,-28 -70,-42 -111,-42 -67,0 -118,46 -118,108 0,52 24,79 93,104 29,10 44,17 51,21 15,10 22,23 22,39 0,31 -24,53 -57,53 -35,0 -64,-17 -81,-50l-47 46c34,50 75,72 131,72 76,0 130,-51 130,-124 0,-60 -25,-87 -109,-118z"/>
   <path class="fil15" d="M11277 2089c0,111 87,197 199,197 32,0 59,-6 93,-22l0 -87c-30,30 -56,42 -89,42 -74,0 -127,-54 -127,-130 0,-73 54,-130 123,-130 35,0 62,12 93,42l0 -86c-33,-17 -59,-23 -91,-23 -111,0 -201,87 -201,197z"/>
   <polygon class="fil15" points="12165,2154 12065,1900 11984,1900 12144,2287 12184,2287 12347,1900 12267,1900 "/>
   <polygon class="fil15" points="12381,2278 12589,2278 12589,2214 12454,2214 12454,2112 12584,2112 12584,2048 12454,2048 12454,1964 12589,1964 12589,1900 12381,1900 "/>
   <path class="fil15" d="M12733 2074l-21 0 0 -114 22 0c46,0 71,19 71,56 0,37 -25,58 -72,58zm148 -62c0,-71 -49,-112 -134,-112l-109 0 0 378 74 0 0 -152 9 0 102 152 91 0 -119 -159c55,-12 86,-50 86,-107z"/>
   <path class="fil16" d="M12919 1933l-2 0 0 -9 2 0c4,0 6,2 6,4 0,3 -2,5 -6,5zm14 -5c0,-6 -5,-10 -13,-10l-10 0 0 33 7 0 0 -13 10 13 10 0 -11 -13c4,-2 7,-5 7,-10z"/>
   <path class="fil16" d="M12922 1958c-13,0 -23,-10 -23,-23 0,-14 10,-24 23,-24 12,0 23,11 23,24 0,13 -11,23 -23,23zm0 -52c-16,0 -29,13 -29,29 0,16 13,29 29,29 16,0 28,-13 28,-29 0,-16 -12,-29 -28,-29z"/>
   <polygon class="fil16" points="11207,2377 11305,2480 11305,2382 11319,2382 11319,2514 11221,2411 11221,2509 11207,2509 "/>
   <path class="fil16" d="M11208 2380c4,5 99,103 99,103 0,0 0,-97 0,-99 1,0 9,0 11,0 0,2 0,121 0,127 -4,-5 -98,-103 -98,-103 0,0 0,97 0,99 -2,0 -10,0 -12,0 0,-2 0,-121 0,-127zm-3 -3l0 133 17 0c0,0 0,-89 0,-95 4,4 99,103 99,103l0 -137 -17 0c0,0 0,90 0,96 -4,-5 -99,-103 -99,-103l0 3z"/>
   <polygon class="fil16" points="11388,2382 11453,2382 11453,2395 11402,2395 11402,2433 11451,2433 11451,2446 11402,2446 11402,2496 11453,2496 11453,2509 11388,2509 "/>
   <path class="fil16" d="M11452 2384c0,1 0,8 0,10 -3,0 -52,0 -52,0l0 40c0,0 48,0 50,0 0,2 0,9 0,11 -2,0 -50,0 -50,0l0 52c0,0 49,0 52,0 0,2 0,8 0,10 -3,0 -61,0 -63,0 0,-2 0,-121 0,-123 2,0 60,0 63,0zm1 -3l-67 0 0 129 68 0 0 -16c0,0 -49,0 -51,0 0,-2 0,-44 0,-47 2,0 50,0 50,0l0 -15c0,0 -48,0 -50,0 0,-3 0,-33 0,-35 2,0 51,0 51,0l0 -16 -1 0z"/>
   <polygon class="fil16" points="11552,2509 11538,2509 11538,2395 11508,2395 11508,2382 11583,2382 11583,2395 11552,2395 "/>
   <path class="fil16" d="M11582 2384c0,1 0,8 0,10 -3,0 -31,0 -31,0 0,0 0,111 0,113 -2,0 -9,0 -11,0 0,-2 0,-113 0,-113 0,0 -29,0 -31,0 0,-2 0,-9 0,-10 3,0 70,0 73,0zm1 -3l-77 0 0 16c0,0 29,0 31,0 0,2 0,113 0,113l17 0c0,0 0,-111 0,-113 2,0 30,0 30,0l0 -16 -1 0z"/>
   <polygon class="fil16" points="11677,2477 11718,2376 11759,2477 11792,2382 11808,2382 11759,2515 11718,2413 11677,2515 11629,2382 11644,2382 "/>
   <path class="fil16" d="M11678 2477c0,0 38,-92 40,-98 2,6 41,102 41,102 0,0 33,-96 34,-97 2,0 10,0 13,0 -2,3 -45,121 -47,127 -2,-6 -41,-101 -41,-101 0,0 -38,95 -41,101 -2,-6 -45,-124 -46,-127 2,0 11,0 12,0 1,1 34,97 34,97l1 -4zm39 -102c0,0 -37,92 -40,98 -2,-6 -32,-92 -32,-92l-18 0 50 138c0,0 39,-96 41,-102 2,6 41,102 41,102l50 -138 -18 0c0,0 -30,86 -32,92 -3,-6 -41,-101 -41,-101l-1 3z"/>
   <path class="fil16" d="M11872 2445c0,29 23,53 52,53 28,0 51,-24 51,-53 0,-28 -22,-52 -51,-52 -29,0 -52,24 -52,52zm117 1c0,36 -29,65 -65,65 -37,0 -66,-29 -66,-65 0,-37 29,-66 66,-66 36,0 65,29 65,66z"/>
   <path class="fil16" d="M11859 2446c0,-36 29,-65 65,-65 35,0 64,29 64,65 0,35 -29,63 -64,63 -36,0 -65,-28 -65,-63zm-3 0c0,36 31,66 68,66 37,0 67,-30 67,-66 0,-37 -30,-67 -67,-67 -37,0 -68,30 -68,67z"/>
   <path class="fil16" d="M11873 2445c0,-28 23,-51 51,-51 27,0 50,23 50,51 0,28 -23,51 -50,51 -28,0 -51,-23 -51,-51zm-3 0c0,30 24,54 54,54 29,0 53,-24 53,-54 0,-29 -24,-53 -53,-53 -30,0 -54,24 -54,53z"/>
   <path class="fil16" d="M12064 2441l5 0c16,0 32,-3 32,-23 0,-21 -15,-23 -32,-23l-5 0 0 46zm0 68l-14 0 0 -127 19 0c24,0 46,7 46,35 0,20 -12,33 -32,35l40 57 -17 0 -38 -56 -4 0 0 56z"/>
   <path class="fil16" d="M12069 2384c30,0 45,10 45,33 0,19 -12,32 -31,34l-2 0c0,0 37,52 40,56 -4,0 -15,0 -15,0l0 0c0,-1 -37,-55 -37,-55l-5 0 -1 0c0,0 0,53 0,55 -2,0 -9,0 -11,0 0,-2 0,-121 0,-123 2,0 17,0 17,0zm-19 -3l-1 0 0 129 17 0c0,0 0,-53 0,-56 1,0 2,0 2,0 0,1 37,55 37,55l18 1 3 0c0,0 -39,-54 -41,-57 19,-3 31,-16 31,-36 0,-24 -15,-36 -47,-36l-19 0z"/>
   <path class="fil16" d="M12069 2397c16,0 30,1 30,21 0,19 -15,21 -30,21 0,0 -2,0 -3,0 0,-2 0,-40 0,-42 1,0 3,0 3,0zm-5 -3l-1 0 0 48 6 0c15,0 33,-3 33,-24 0,-22 -17,-24 -33,-24l-5 0z"/>
   <polygon class="fil16" points="12251,2382 12270,2382 12211,2441 12272,2509 12252,2509 12201,2451 12197,2454 12197,2509 12183,2509 12183,2382 12197,2382 12197,2436 "/>
   <path class="fil16" d="M12267 2384c-5,4 -58,57 -58,57 0,0 56,62 60,66 -4,0 -17,0 -17,0 0,0 -50,-57 -50,-57l-1 -1 -5 4c0,0 0,52 0,54 -2,0 -10,0 -12,0 0,-2 0,-121 0,-123 2,0 10,0 12,0 0,2 0,56 0,56 0,0 55,-56 55,-56 1,0 11,0 16,0zm3 -3l-20 0c0,0 -47,48 -52,52 0,-5 0,-52 0,-52l-16 0 0 129 16 0c0,0 0,-55 0,-56 1,0 2,-1 3,-1 1,1 50,56 50,56l21 1 3 0c0,0 -61,-67 -63,-69 2,-2 61,-60 61,-60l-3 0z"/>
   <path class="fil17" d="M11806 1892c111,0 200,89 200,200 0,110 -89,200 -200,200 -110,0 -200,-90 -200,-200 0,-111 90,-200 200,-200z"/>
  </g>
 </g>
</svg>
