<?xml version="1.0" encoding="UTF-8"?>
<!DOCTYPE svg PUBLIC "-//W3C//DTD SVG 1.1//EN" "http://www.w3.org/Graphics/SVG/1.1/DTD/svg11.dtd">
<!-- Creator: CorelDRAW X7 -->
<svg xmlns="http://www.w3.org/2000/svg" xml:space="preserve" width="82.886mm" height="11.7263mm" version="1.1" style="shape-rendering:geometricPrecision; text-rendering:geometricPrecision; image-rendering:optimizeQuality; fill-rule:evenodd; clip-rule:evenodd"
viewBox="0 0 8013 1134"
 xmlns:xlink="http://www.w3.org/1999/xlink"
 enable-background="new 0 0 124 33">
 <defs>
  <style type="text/css">
   <![CDATA[
    .fil2 {fill:#179BD7}
    .fil3 {fill:#222D65}
    .fil1 {fill:#253B80}
    .fil0 {fill:#FFC43A}
    .fil4 {fill:#2B2A29;fill-rule:nonzero}
   ]]>
  </style>
 </defs>
 <g id="Layer_x0020_1">
  <metadata id="CorelCorpID_0Corel-Layer"/>
  <path class="fil0" d="M567 0l6879 0c312,0 567,255 567,567l0 0c0,312 -255,567 -567,567l-6879 0c-312,0 -567,-255 -567,-567l0 0c0,-312 255,-567 567,-567z"/>
  <g id="_2073327506720">
   <path class="fil1" d="M2926 369l-123 0c-8,0 -15,6 -16,14l-50 314c-1,6 4,11 10,11l59 0c8,0 15,-6 16,-14l14 -85c1,-8 8,-14 16,-14l39 0c81,0 127,-39 139,-116 6,-34 1,-61 -15,-79 -18,-21 -48,-31 -89,-31zm14 114c-7,44 -40,44 -73,44l-18 0 13 -82c0,-5 5,-9 10,-9l8 0c22,0 43,0 54,13 6,8 8,19 6,34z"/>
   <path class="fil1" d="M3291 482l-58 0c-5,0 -9,3 -10,8l-3 17 -4 -6c-13,-19 -41,-25 -69,-25 -65,0 -120,49 -131,118 -6,34 2,67 22,90 18,21 43,30 74,30 52,0 81,-34 81,-34l-3 17c-1,6 4,11 10,11l53 0c8,0 15,-6 17,-14l31 -200c1,-7 -3,-12 -10,-12zm-81 114c-6,33 -32,56 -66,56 -17,0 -31,-6 -40,-16 -8,-10 -12,-25 -9,-41 5,-33 32,-57 66,-57 16,0 30,6 39,16 9,11 12,26 10,42z"/>
   <path class="fil1" d="M3603 482l-58 0c-6,0 -11,3 -15,7l-81 120 -34 -115c-2,-7 -9,-12 -16,-12l-58 0c-7,0 -12,7 -10,13l65 191 -61 86c-5,6 0,16 8,16l59 0c6,0 11,-3 14,-8l196 -282c4,-7 0,-16 -9,-16z"/>
   <path class="fil2" d="M3798 369l-122 0c-8,0 -15,6 -17,14l-49 314c-1,6 4,11 10,11l63 0c5,0 10,-4 11,-10l14 -89c2,-8 9,-14 17,-14l39 0c80,0 127,-39 139,-116 6,-34 0,-61 -16,-79 -17,-21 -48,-31 -89,-31zm14 114c-6,44 -40,44 -72,44l-19 0 13 -82c1,-5 5,-9 10,-9l9 0c22,0 43,0 54,13 6,8 8,19 5,34z"/>
   <path class="fil2" d="M4164 482l-59 0c-5,0 -9,3 -10,8l-2 17 -4 -6c-13,-19 -41,-25 -69,-25 -65,0 -120,49 -131,118 -6,34 2,67 22,90 17,21 43,30 73,30 53,0 81,-34 81,-34l-2 17c-1,6 4,11 10,11l53 0c8,0 15,-6 16,-14l32 -200c1,-7 -4,-12 -10,-12zm-82 114c-5,33 -32,56 -66,56 -17,0 -30,-6 -39,-16 -9,-10 -12,-25 -9,-41 5,-33 32,-57 65,-57 17,0 31,6 39,16 9,11 13,26 10,42z"/>
   <path class="fil2" d="M4233 377l-50 320c-1,6 4,11 10,11l50 0c9,0 16,-6 17,-14l50 -314c1,-6 -4,-11 -10,-11l-57 0c-5,0 -9,3 -10,8z"/>
   <path class="fil1" d="M2229 769l9 -59 -20 0 -100 0 69 -439c0,-1 1,-3 2,-3 1,-1 2,-2 4,-2l168 0c55,0 94,12 114,35 9,10 15,22 18,34 3,13 3,28 0,47l0 2 0 12 9 5c8,4 15,9 19,15 9,9 14,20 16,34 2,14 1,31 -2,51 -5,22 -11,41 -21,57 -8,14 -19,26 -33,35 -12,9 -27,16 -43,20 -17,4 -35,6 -55,6l-14 0c-9,0 -18,4 -25,10 -7,6 -12,14 -13,24l-1 5 -17 105 -1 4c0,1 0,1 -1,2 0,0 -1,0 -1,0l-81 0z"/>
   <path class="fil2" d="M2511 385l0 0 0 0c0,3 -1,7 -1,10 -23,113 -98,153 -195,153l-49 0c-12,0 -22,8 -24,20l0 0 0 0 -25 160 -7 45c-1,8 5,15 12,15l88 0c10,0 19,-8 20,-18l1 -4 17 -105 1 -5c1,-11 10,-18 20,-18l14 0c84,0 150,-35 170,-134 8,-41 4,-76 -18,-101 -6,-7 -14,-13 -24,-18z"/>
   <path class="fil3" d="M2488 376c-3,-1 -7,-2 -10,-3 -4,-1 -8,-1 -11,-2 -14,-2 -28,-3 -44,-3l-131 0c-3,0 -7,1 -9,2 -6,3 -11,9 -12,16l-28 177 -1 5c2,-12 12,-20 24,-20l49 0c97,0 172,-40 195,-153 0,-3 1,-7 1,-10 -5,-3 -11,-5 -18,-8 -1,0 -3,-1 -5,-1z"/>
   <path class="fil1" d="M2271 386c1,-7 6,-13 12,-16 2,-1 6,-2 9,-2l131 0c16,0 30,1 44,3 3,1 7,1 11,2 3,1 7,2 10,3 2,0 4,1 5,1 7,3 13,5 18,8 7,-42 0,-71 -22,-96 -25,-29 -71,-41 -128,-41l-168 0c-12,0 -22,8 -24,20l-70 443c-1,9 6,17 14,17l104 0 26 -165 28 -177z"/>
  </g>
  <path class="fil4" d="M4620 540l31 8c-7,25 -19,43 -35,56 -17,13 -38,20 -63,20 -25,0 -46,-5 -61,-15 -16,-10 -28,-25 -37,-43 -8,-19 -12,-39 -12,-61 0,-24 5,-44 14,-62 9,-17 23,-30 40,-39 17,-10 36,-14 57,-14 23,0 43,6 59,17 16,12 27,28 34,49l-31 7c-5,-17 -13,-29 -24,-36 -10,-8 -23,-12 -39,-12 -18,0 -33,5 -45,13 -12,8 -21,19 -25,33 -5,14 -8,29 -8,44 0,19 3,36 9,50 6,15 15,25 27,32 12,7 26,11 40,11 17,0 32,-5 44,-15 12,-9 20,-24 25,-43z"/>
  <path id="1" class="fil4" d="M4686 620l0 -226 29 0 0 81c13,-15 30,-23 50,-23 13,0 24,3 33,8 9,4 16,11 20,19 4,9 6,21 6,37l0 104 -29 0 0 -104c0,-14 -3,-24 -9,-30 -6,-6 -15,-10 -27,-10 -8,0 -16,2 -24,7 -7,4 -12,10 -16,17 -3,7 -4,17 -4,30l0 90 -29 0z"/>
  <path id="2" class="fil4" d="M4985 567l30 3c-5,17 -13,30 -26,39 -13,10 -29,14 -49,14 -25,0 -45,-7 -59,-22 -15,-15 -22,-35 -22,-62 0,-27 7,-49 22,-64 15,-15 34,-23 57,-23 23,0 42,8 56,23 15,15 22,36 22,63 0,1 0,4 0,7l-127 0c1,18 6,32 16,41 9,10 21,14 35,14 11,0 20,-2 27,-8 8,-5 14,-14 18,-25zm-95 -45l95 0c-1,-14 -5,-24 -11,-31 -9,-11 -21,-16 -35,-16 -14,0 -25,4 -34,13 -9,8 -14,20 -15,34z"/>
  <path id="3" class="fil4" d="M5163 560l28 4c-3,18 -11,33 -24,43 -12,11 -28,16 -47,16 -23,0 -42,-7 -56,-22 -14,-14 -21,-35 -21,-63 0,-17 3,-33 9,-46 6,-13 15,-23 28,-30 12,-6 26,-10 41,-10 18,0 33,5 45,14 12,9 19,22 23,38l-28 4c-3,-11 -8,-19 -15,-25 -6,-5 -15,-8 -24,-8 -15,0 -27,5 -36,15 -9,10 -14,26 -14,48 0,22 5,38 14,48 8,9 20,14 34,14 11,0 21,-3 28,-10 8,-6 13,-16 15,-30z"/>
  <polygon id="4" class="fil4" points="5216,620 5216,394 5245,394 5245,522 5313,456 5351,456 5286,517 5357,620 5322,620 5265,536 5245,555 5245,620 "/>
  <path id="5" class="fil4" d="M5369 538c0,-30 9,-53 27,-67 14,-13 32,-19 53,-19 24,0 43,8 58,23 15,14 22,35 22,60 0,22 -3,38 -10,50 -6,12 -16,22 -28,28 -13,7 -27,10 -42,10 -23,0 -43,-7 -57,-22 -15,-14 -23,-36 -23,-63zm30 0c0,21 5,36 14,47 10,10 22,15 36,15 15,0 27,-5 36,-15 10,-11 15,-27 15,-48 0,-20 -5,-36 -15,-46 -9,-10 -21,-16 -36,-16 -14,0 -26,6 -36,16 -9,10 -14,26 -14,47z"/>
  <path id="6" class="fil4" d="M5675 620l0 -25c-14,19 -32,28 -54,28 -10,0 -20,-2 -28,-5 -9,-4 -16,-9 -20,-14 -4,-6 -7,-13 -9,-21 -1,-5 -1,-14 -1,-26l0 -101 28 0 0 91c0,14 1,24 2,29 2,7 6,13 12,17 6,4 13,6 22,6 8,0 16,-2 24,-6 7,-4 13,-10 16,-18 3,-7 5,-18 5,-32l0 -87 29 0 0 164 -26 0z"/>
  <path id="7" class="fil4" d="M5809 595l4 24c-8,2 -16,3 -22,3 -10,0 -18,-2 -24,-5 -6,-3 -10,-7 -12,-12 -3,-6 -4,-17 -4,-33l0 -95 -21 0 0 -21 21 0 0 -41 29 -16 0 57 29 0 0 21 -29 0 0 96c0,8 0,13 1,16 1,2 3,4 5,5 3,1 6,2 10,2 3,0 8,0 13,-1z"/>
 </g>
</svg>
