<?xml version="1.0" encoding="UTF-8" standalone="no"?>
<svg width="124px" height="25px" viewBox="0 0 124 25" version="1.1" xmlns="http://www.w3.org/2000/svg" xmlns:xlink="http://www.w3.org/1999/xlink">
    <!-- Generator: Sketch 40 (33762) - http://www.bohemiancoding.com/sketch -->
    <title>NEW</title>
    <desc>Created with Sketch.</desc>
    <defs></defs>
    <g id="Colour" stroke="none" stroke-width="1" fill="none" fill-rule="evenodd">
        <g id="NEW">
            <g id="Group" transform="translate(0.000000, -0.400000)">
                <polygon id="Fill-627" fill="#48A8DE" points="0 1.40000001 0 18.4 3 18.4 3 4.40000001 12 4.40000001 12 18.4 25 18.4 25 1.40000001"></polygon>
                <polygon id="Fill-628" fill="#3D8DBA" points="5 11.4 5 25.4 12 18.4 12 4.40000001"></polygon>
                <g id="Group-649" transform="translate(29.723321, 0.000000)">
                    <path d="M6.6537473,11.8798918 C6.95020028,11.7255174 7.1951935,11.5196849 7.38760826,11.2612756 C7.58114172,11.003985 7.72657148,10.7108974 7.82277886,10.3820128 C7.91898625,10.0542469 7.96820863,9.7097012 7.96820863,9.34837565 C7.96820863,8.93671063 7.92905446,8.54630005 7.85186482,8.17938123 C7.77467517,7.81246241 7.64602577,7.48693382 7.4659166,7.20391412 C7.28468874,6.91977576 7.04640766,6.69492612 6.74995468,6.52712788 C6.4535017,6.35932963 6.07985908,6.27543051 5.62902681,6.27543051 C5.24307859,6.27543051 4.91082752,6.3526177 4.63451096,6.50811074 C4.35707572,6.66248512 4.12550679,6.8716736 3.93868548,7.13567617 C3.75186417,7.39967873 3.61650262,7.70283422 3.53260083,8.04402398 C3.44869904,8.38521374 3.4073075,8.74318332 3.4073075,9.11681407 C3.4073075,9.47702097 3.4419869,9.83499055 3.51358309,10.1896042 C3.58406059,10.5442178 3.70599786,10.8619158 3.88051357,11.1460541 C4.0539106,11.4290738 4.28324215,11.6606354 4.56627085,11.8418575 C4.84929954,12.021961 5.20392442,12.1114534 5.62902681,12.1114534 C6.01609372,12.1114534 6.35729432,12.0342662 6.6537473,11.8798918 L6.6537473,11.8798918 Z M10.4125473,15.2034156 C10.3029157,15.7191156 10.0679907,16.1990185 9.70777234,16.6431245 C9.34643531,17.0883492 8.82400685,17.4653359 8.14160565,17.7740847 C7.45920445,18.0828335 6.54411563,18.2383265 5.39745788,18.2383265 C4.90747144,18.2383265 4.40853549,18.1768005 3.89953131,18.0548671 C3.39052714,17.931815 2.92627059,17.7416437 2.50788034,17.4843531 C2.0894901,17.2270624 1.74157736,16.8948219 1.4652608,16.4887502 C1.18782556,16.0826784 1.0300902,15.5971822 0.990936037,15.0300241 L3.71606607,15.0300241 C3.84471548,15.545724 4.09642084,15.902575 4.47006346,16.1028142 C4.84370609,16.3019348 5.27552062,16.4014951 5.76438836,16.4014951 C6.53740349,16.4014951 7.1012235,16.1699335 7.45584838,15.7068104 C7.81047327,15.2425686 7.98051422,14.6563934 7.96820863,13.9482848 L7.96820863,12.6338652 L7.92905446,12.6338652 C7.63260148,13.1618704 7.21085517,13.5511623 6.66381552,13.8028596 C6.11565717,14.054557 5.53953157,14.1798464 4.93320133,14.1798464 C4.18591608,14.1798464 3.54266905,14.0478451 3.00122285,13.7838425 C2.45977665,13.5198399 2.01565653,13.1585144 1.66774378,12.7009845 C1.31983104,12.2445733 1.0658883,11.7098562 0.904796869,11.0968333 C0.743705438,10.4860477 0.663159723,9.83834651 0.663159723,9.15484834 C0.663159723,8.51162175 0.756011034,7.8896496 0.942832346,7.29005055 C1.12965366,6.69157015 1.40373283,6.16356502 1.76395117,5.70603515 C2.12528819,5.24850527 2.57276439,4.88494242 3.10749845,4.61422792 C3.6422325,4.34351342 4.25751227,4.20815617 4.95333775,4.20815617 C5.61000907,4.20815617 6.18613468,4.33008956 6.68283325,4.575075 C7.17841314,4.82006043 7.59344731,5.23172545 7.92905446,5.81230737 L7.96820863,5.81230737 L7.96820863,4.47887067 L10.5769949,4.47887067 L10.5769949,13.8319447 C10.5769949,14.2313045 10.522179,14.6888344 10.4125473,15.2034156 L10.4125473,15.2034156 Z" id="Fill-629" fill="#343434"></path>
                    <path d="M18.2835418,9.58027282 C18.167198,9.68318907 18.0228869,9.76373223 17.8483712,9.82190229 C17.6749741,9.88007234 17.4881528,9.92817451 17.2879072,9.96732743 C17.0887803,10.0053617 16.8795852,10.0378027 16.6603219,10.0635318 C16.4410585,10.0892608 16.2217952,10.1217018 16.0036506,10.1597361 C15.7966928,10.198889 15.5942098,10.2503471 15.3939642,10.3141105 C15.1948373,10.3789924 15.0203216,10.4662475 14.8726545,10.5758757 C14.7238686,10.6855039 14.6052874,10.8242171 14.5157922,10.9908967 C14.4251783,11.1586949 14.379312,11.3712394 14.379312,11.62853 C14.379312,11.8735155 14.4251783,12.079348 14.5157922,12.2471462 C14.6052874,12.4149445 14.7272247,12.5469457 14.8827227,12.6431501 C15.037102,12.740473 15.2172111,12.8075923 15.4230502,12.8456266 C15.6288892,12.8847795 15.8414404,12.9037967 16.0607038,12.9037967 C16.60215,12.9037967 17.0205402,12.8143043 17.3169932,12.6342008 C17.6134462,12.4529787 17.8327095,12.2370783 17.9747832,11.9864996 C18.1157382,11.7348022 18.2029961,11.4808676 18.2354381,11.2235769 C18.2667614,10.9651676 18.2835418,10.7593351 18.2835418,10.6038421 L18.2835418,9.58027282 Z M11.9450415,7.55103275 C11.9830769,6.9066875 12.1441684,6.37197044 12.4283157,5.94688156 C12.7113444,5.52179268 13.0715628,5.18060292 13.5100894,4.92331228 C13.9474974,4.66490299 14.4408399,4.48256223 14.9889983,4.37181539 C15.5360379,4.26330586 16.0864336,4.20737312 16.6413041,4.20737312 C17.1435962,4.20737312 17.6526003,4.24317007 18.167198,4.31476399 C18.6829143,4.38523925 19.1527643,4.52395247 19.5789854,4.72978498 C20.0040877,4.93561749 20.3508818,5.22199315 20.6216049,5.59003063 C20.892328,5.95694945 21.0276895,6.4424457 21.0276895,7.04875668 L21.0276895,12.2471462 C21.0276895,12.6979642 21.0534194,13.129765 21.1048792,13.54143 C21.156339,13.9542137 21.2469529,14.2629624 21.3756023,14.4699136 L18.593419,14.4699136 C18.5408406,14.3144205 18.499449,14.1578089 18.467007,13.9956039 C18.434565,13.8356362 18.4121912,13.671194 18.3998856,13.5033957 C17.9613589,13.9542137 17.4456426,14.2696744 16.8538553,14.4497778 C16.2609494,14.6298812 15.6557378,14.7204923 15.037102,14.7204923 C14.5605398,14.7204923 14.115301,14.6634409 13.7036229,14.5471008 C13.2908261,14.4307607 12.9306078,14.2506572 12.6207305,14.0056718 C12.3119719,13.761805 12.0703348,13.4519376 11.8969378,13.0783068 C11.722422,12.7046761 11.6351642,12.2605701 11.6351642,11.7448701 C11.6351642,11.1777121 11.7358463,10.711233 11.9349732,10.3431955 C12.1341001,9.97627667 12.3925176,9.68318907 12.7079884,9.4639327 C13.0234591,9.24579499 13.3847961,9.08135271 13.7908808,8.97172453 C14.1958467,8.86209634 14.6052874,8.77595991 15.0180842,8.71107793 C15.4297623,8.64619594 15.835847,8.59473781 16.2352195,8.55558489 C16.634592,8.51755062 16.9892169,8.45938056 17.2979755,8.38219337 C17.606734,8.30500618 17.8517272,8.19202203 18.0318364,8.04435958 C18.2130643,7.89557847 18.2958474,7.68079672 18.2835418,7.39665837 C18.2835418,7.1002148 18.2354381,6.86529727 18.1392307,6.69078709 C18.0419046,6.51739558 17.9132552,6.38203833 17.7521638,6.28471535 C17.5910724,6.18851102 17.404251,6.12474769 17.1916999,6.0923067 C16.9791487,6.05986571 16.7498171,6.04420454 16.5059426,6.04420454 C15.9644964,6.04420454 15.539394,6.159426 15.2295167,6.39210622 C14.9207582,6.6236678 14.740649,7.00960375 14.6891892,7.55103275 L11.9450415,7.55103275 Z" id="Fill-631" fill="#343434"></path>
                    <path d="M27.9578653,4.47831134 L27.9578653,6.31402411 L25.9475785,6.31402411 L25.9475785,11.2618349 C25.9475785,11.7249581 26.0258868,12.0348255 26.1802661,12.1891999 C26.3346454,12.3435743 26.6434039,12.4207615 27.1076605,12.4207615 C27.2620398,12.4207615 27.4097069,12.4151682 27.5517806,12.4017443 C27.6938543,12.3894391 27.8292159,12.3693033 27.9578653,12.3435743 L27.9578653,14.4690187 C27.7262963,14.5081716 27.4678788,14.5339006 27.1848501,14.5473245 C26.9018214,14.5596297 26.6243862,14.5663416 26.3536631,14.5663416 C25.9285607,14.5663416 25.5258321,14.5372566 25.1454774,14.4790866 C24.7662413,14.4209165 24.4306342,14.309051 24.1408933,14.1412528 C23.8511525,13.9734545 23.6218209,13.735181 23.455136,13.4253136 C23.2873325,13.1165648 23.2034307,12.7104931 23.2034307,12.208217 L23.2034307,6.31402411 L21.5421753,6.31402411 L21.5421753,4.47831134 L23.2034307,4.47831134 L23.2034307,3.81830493 L25.9475785,1.07871896 L25.9475785,4.47831134 L27.9578653,4.47831134 Z" id="Fill-633" fill="#343434"></path>
                    <path d="M34.5303956,6.81685951 C34.2015006,6.45665261 33.7025647,6.27543051 33.0324691,6.27543051 C32.5950611,6.27543051 32.230368,6.35038039 31.9406272,6.49804285 C31.6508863,6.64682396 31.4193174,6.83028337 31.2448017,7.04842108 C31.0714046,7.26767745 30.9483487,7.50035768 30.8778712,7.74422446 C30.806275,7.98920989 30.7648834,8.20846626 30.7525779,8.40199356 L35.2161529,8.40199356 C35.0875035,7.70507153 34.8592906,7.1770664 34.5303956,6.81685951 M31.4282669,12.0734191 C31.8410637,12.4727789 32.4339697,12.6718995 33.2069848,12.6718995 C33.7607366,12.6718995 34.2372987,12.5343049 34.6366712,12.2568785 C35.0360437,11.9794521 35.281037,11.6863645 35.3705322,11.3776157 L37.7869037,11.3776157 C37.3998367,12.5756952 36.8080495,13.4325849 36.0081858,13.9482848 C35.2094408,14.4628661 34.2428922,14.7201567 33.1096587,14.7201567 C32.324338,14.7201567 31.6150882,14.5948673 30.9841468,14.3442886 C30.3532053,14.0925913 29.8184713,13.7346217 29.3799446,13.2714985 C28.9414179,12.8072567 28.6035734,12.2535225 28.3652923,11.6091773 C28.1270113,10.964832 28.0073114,10.2567235 28.0073114,9.4837329 C28.0073114,8.73647139 28.1303673,8.04066802 28.3753606,7.39632277 C28.6192351,6.75197752 28.9671478,6.19488736 29.4190988,5.72505228 C29.8699311,5.2552172 30.4069025,4.88494242 31.0322505,4.61310926 C31.6575985,4.34351342 32.3500679,4.20815617 33.1096587,4.20815617 C33.9598635,4.20815617 34.7004366,4.37259845 35.3324967,4.70036435 C35.9634382,5.0292489 36.4825105,5.47111761 36.8885952,6.02485181 C37.2935612,6.578586 37.5866581,7.21062605 37.7678859,7.91873463 C37.9479951,8.62684321 38.0117604,9.36739278 37.9603007,10.1403833 L30.7525779,10.1403833 C30.7906133,11.029714 31.0165888,11.6740593 31.4282669,12.0734191" id="Fill-635" fill="#343434"></path>
                    <polygon id="Fill-637" fill="#343434" points="47.1708151 14.469578 45.3932159 7.76324159 45.3540617 7.76324159 43.6536522 14.469578 40.813297 14.469578 37.6440469 4.47887067 40.5425739 4.47887067 42.378345 11.2612756 42.4174992 11.2612756 44.0787546 4.47887067 46.7457127 4.47887067 48.4461223 11.2422585 48.4852764 11.2422585 50.3210475 4.47887067 53.1423849 4.47887067 49.9932712 14.469578"></polygon>
                    <path d="M59.5529289,9.58027282 C59.4365851,9.68318907 59.292274,9.76373223 59.1177583,9.82190229 C58.9443613,9.88007234 58.75754,9.92817451 58.5572944,9.96732743 C58.3570488,10.0053617 58.1489724,10.0378027 57.929709,10.0635318 C57.7104457,10.0892608 57.4911824,10.1217018 57.2730377,10.1597361 C57.06608,10.198889 56.863597,10.2503471 56.6633514,10.3141105 C56.4642245,10.3789924 56.2897088,10.4662475 56.1420416,10.5758757 C55.9932558,10.6855039 55.8746746,10.8242171 55.7840607,10.9908967 C55.6934467,11.1586949 55.6486991,11.3712394 55.6486991,11.62853 C55.6486991,11.8735155 55.6934467,12.079348 55.7840607,12.2471462 C55.8746746,12.4149445 55.9966119,12.5469457 56.1521098,12.6431501 C56.3064891,12.740473 56.4865983,12.8075923 56.6924373,12.8456266 C56.8982764,12.8847795 57.1108276,12.9037967 57.3300909,12.9037967 C57.8715371,12.9037967 58.2899274,12.8143043 58.5863803,12.6342008 C58.8828333,12.4529787 59.1020967,12.2370783 59.2430517,11.9864996 C59.3851254,11.7348022 59.4723832,11.4808676 59.5048252,11.2235769 C59.5361486,10.9651676 59.5529289,10.7593351 59.5529289,10.6038421 L59.5529289,9.58027282 Z M53.2144286,7.55103275 C53.2524641,6.9066875 53.4135555,6.37197044 53.6977029,5.94688156 C53.9807316,5.52179268 54.3409499,5.18060292 54.7794766,4.92331228 C55.2168846,4.66490299 55.7102271,4.48256223 56.2572667,4.37181539 C56.8054251,4.26330586 57.3558208,4.20737312 57.9095726,4.20737312 C58.4129833,4.20737312 58.9208688,4.24317007 59.4365851,4.31476399 C59.9523014,4.38523925 60.4221514,4.52395247 60.8483725,4.72978498 C61.2734749,4.93561749 61.620269,5.22199315 61.8909921,5.59003063 C62.1617152,5.95694945 62.2970767,6.4424457 62.2970767,7.04875668 L62.2970767,12.2471462 C62.2970767,12.6979642 62.3228066,13.129765 62.3742663,13.54143 C62.4257261,13.9542137 62.51634,14.2629624 62.6449894,14.4699136 L59.8616875,14.4699136 C59.8102277,14.3144205 59.7688362,14.1578089 59.7363942,13.9956039 C59.7039521,13.8356362 59.6815783,13.671194 59.6692727,13.5033957 C59.2307461,13.9542137 58.7150298,14.2696744 58.1232425,14.4497778 C57.5303365,14.6298812 56.925125,14.7204923 56.3064891,14.7204923 C55.8288083,14.7204923 55.3846882,14.6634409 54.9730101,14.5471008 C54.5602133,14.4307607 54.1999949,14.2506572 53.8901177,14.0056718 C53.5813591,13.761805 53.3397219,13.4519376 53.1663249,13.0783068 C52.9918092,12.7046761 52.9045513,12.2605701 52.9045513,11.7448701 C52.9045513,11.1777121 53.0041148,10.711233 53.2043604,10.3431955 C53.4034873,9.97627667 53.6619048,9.68318907 53.9773755,9.4639327 C54.2928462,9.24579499 54.6541833,9.08135271 55.0591492,8.97172453 C55.4652339,8.86209634 55.8746746,8.77595991 56.2874714,8.71107793 C56.6991495,8.64619594 57.1052341,8.59473781 57.5046066,8.55558489 C57.9039791,8.51755062 58.2574853,8.45938056 58.5673626,8.38219337 C58.8761212,8.30500618 59.1211144,8.19202203 59.3012236,8.04435958 C59.4813327,7.89557847 59.5652345,7.68079672 59.5529289,7.39665837 C59.5529289,7.1002148 59.5048252,6.86529727 59.4086179,6.69078709 C59.3112918,6.51739558 59.1826424,6.38203833 59.0215509,6.28471535 C58.8604595,6.18851102 58.6736382,6.12474769 58.461087,6.0923067 C58.2485358,6.05986571 58.0192043,6.04420454 57.7753297,6.04420454 C57.2338835,6.04420454 56.8087812,6.159426 56.4989039,6.39210622 C56.1901453,6.6236678 56.0100361,7.00960375 55.9585764,7.55103275 L53.2144286,7.55103275 Z" id="Fill-639" fill="#343434"></path>
                    <path d="M67.2383326,17.4455357 C66.7103107,17.7934374 65.975331,17.9679476 65.035631,17.9679476 C64.7514836,17.9679476 64.471811,17.9578797 64.1943758,17.9377439 C63.9169405,17.9187268 63.6372679,17.8963537 63.3542392,17.8706246 L63.3542392,15.609823 C63.611538,15.635552 63.875549,15.6612811 64.1462721,15.6870102 C64.4169952,15.7127392 64.6877183,15.7194512 64.9584414,15.7060273 C65.3186597,15.667993 65.5860267,15.5259239 65.7605425,15.2809384 C65.9339395,15.035953 66.0211973,14.7652385 66.0211973,14.4699136 C66.0211973,14.2506572 65.9820432,14.0448247 65.9048535,13.8512974 L62.4067084,4.47808761 L65.3253719,4.47808761 L67.5862453,11.3197813 L67.6253995,11.3197813 L69.8090833,4.47808761 L72.6494385,4.47808761 L68.4756043,15.7060273 C68.1791513,16.5181708 67.7663545,17.0976341 67.2383326,17.4455357" id="Fill-641" fill="#343434"></path>
                    <path d="M79.0924245,9.28830388 C79.0152349,9.43037306 78.866449,9.53328931 78.6483044,9.59705264 C78.4290411,9.66193463 78.2355076,9.70779948 78.0688227,9.73240989 C77.5531064,9.82302094 77.0217284,9.9035641 76.4735701,9.97403936 C75.9265304,10.0456333 75.4264758,10.1519055 74.9756435,10.292856 C74.5248112,10.4349252 74.1545247,10.6374017 73.8647839,10.9014043 C73.575043,11.1665255 73.4296133,11.5423936 73.4296133,12.0323645 C73.4296133,12.3422319 73.4911412,12.6151837 73.6141972,12.8534572 C73.7361344,13.0928493 73.9005819,13.2975632 74.106421,13.4720734 C74.31226,13.6454649 74.5505411,13.7785848 74.8212642,13.8680772 C75.0919873,13.9586883 75.3694226,14.0034345 75.6524513,14.0034345 C76.1167078,14.0034345 76.5608279,13.9329592 76.9859303,13.79089 C77.4110327,13.6499395 77.7813193,13.4429883 78.09679,13.1722738 C78.4122607,12.9015594 78.6639661,12.5737935 78.8507874,12.1867388 C79.0376087,11.8008029 79.1315787,11.3622901 79.1315787,10.8723193 L79.1315787,9.28830388 L79.0924245,9.28830388 Z M73.0045109,6.31268172 C73.2114686,5.88759284 73.4911412,5.5385725 73.8457661,5.26897666 C74.200391,4.99826216 74.6154252,4.79914158 75.0919873,4.66937761 C75.5685495,4.54073229 76.0965714,4.4758503 76.6771717,4.4758503 C77.1145797,4.4758503 77.5531064,4.51835919 77.9916331,4.60225831 C78.4290411,4.68615743 78.8217014,4.84276912 79.1696142,5.07544935 C79.5175269,5.30701093 79.8005556,5.63253952 80.0198189,6.05091647 C80.2390823,6.47041207 80.3487139,7.01407837 80.3487139,7.68415269 L80.3487139,12.9798652 C80.3487139,13.4687174 80.586995,13.7137028 81.0635572,13.7137028 C81.2056309,13.7137028 81.3342803,13.6879738 81.4506241,13.6365157 L81.4506241,14.6600849 C81.3085504,14.6869326 81.183257,14.7059498 81.0736254,14.718255 C80.9639937,14.7316788 80.8252761,14.7383908 80.6574725,14.7383908 C80.3487139,14.7383908 80.1003646,14.6958819 79.9135433,14.6119828 C79.726722,14.5280836 79.582411,14.4095062 79.4794914,14.2551318 C79.3754532,14.0996388 79.3083318,13.9161794 79.2758898,13.7036349 C79.2434477,13.4910905 79.2277861,13.256173 79.2277861,12.9988823 L79.1886319,12.9988823 C78.9704873,13.321055 78.7478678,13.6074306 78.5218924,13.8580093 C78.2970356,14.1097067 78.0453302,14.3188952 77.7690137,14.4866934 C77.4915784,14.6544917 77.1761077,14.783137 76.8214828,14.873748 C76.4679766,14.9632404 76.0451116,15.0079866 75.5562439,15.0079866 C75.0919873,15.0079866 74.6568167,14.9531725 74.2518508,14.844663 C73.8457661,14.7350348 73.4911412,14.5605246 73.1890948,14.3222511 C72.8859297,14.0839776 72.6476486,13.7808221 72.4731329,13.4139033 C72.2997359,13.0469845 72.212478,12.6118277 72.212478,12.1095517 C72.212478,11.4137483 72.3668573,10.870082 72.6767346,10.4763154 C72.9854931,10.0836675 73.3949338,9.78386802 73.903938,9.57803551 C74.4129422,9.372203 74.9857117,9.22789651 75.6233653,9.14399739 C76.2610189,9.06009827 76.9087407,8.97843646 77.565412,8.90124927 C77.8238295,8.8755202 78.0486863,8.84419786 78.2422197,8.80504494 C78.4357532,8.76589202 78.5968446,8.69877272 78.725494,8.6025684 C78.8541434,8.50524542 78.9537069,8.37324413 79.0253031,8.20656455 C79.0957806,8.0387663 79.1315787,7.81950993 79.1315787,7.54879544 C79.1315787,7.13713042 79.0633386,6.79817797 78.927977,6.5341754 C78.7926155,6.27017284 78.6057942,6.06098436 78.3675131,5.90660998 C78.129232,5.7522356 77.8517968,5.64484472 77.536326,5.58779332 C77.2208553,5.52962326 76.8830108,5.50053823 76.5227925,5.50053823 C75.7497773,5.50053823 75.1177172,5.68399764 74.6288495,6.05091647 C74.138863,6.41895394 73.8804455,7.0084851 73.8547156,7.81950993 L72.6375804,7.81950993 C72.6767346,7.24004667 72.7986718,6.7377706 73.0045109,6.31268172 L73.0045109,6.31268172 Z" id="Fill-643" fill="#48A8DE"></path>
                    <path d="M89.8203307,8.21584938 C89.6972748,7.70686138 89.50486,7.25268747 89.240849,6.85332766 C88.9768381,6.45396784 88.6378749,6.12843925 88.2261968,5.87786055 C87.8134,5.62616318 87.3178201,5.50087383 86.7383384,5.50087383 C86.0671241,5.50087383 85.5077789,5.61609529 85.0569466,5.84877552 C84.6049956,6.08033709 84.2447773,6.39020451 83.9740542,6.77614047 C83.7033311,7.16207642 83.5131537,7.61401302 83.4035221,8.1285943 C83.2950091,8.64429423 83.2401932,9.18572322 83.2401932,9.75176262 C83.2401932,10.2674626 83.3006025,10.7798065 83.4236585,11.2887945 C83.5455958,11.7977825 83.7458413,12.2519564 84.0232766,12.6513162 C84.2995931,13.0506761 84.6609302,13.375086 85.1050503,13.6267834 C85.5491704,13.8784807 86.092854,14.0037701 86.7383384,14.0037701 C87.3178201,14.0037701 87.8134,13.8784807 88.2261968,13.6267834 C88.6378749,13.375086 88.9768381,13.0506761 89.240849,12.6513162 C89.50486,12.2519564 89.6972748,11.7977825 89.8203307,11.2887945 C89.942268,10.7798065 90.003796,10.2674626 90.003796,9.75176262 C90.003796,9.23718135 89.942268,8.72483738 89.8203307,8.21584938 L89.8203307,8.21584938 Z M83.1428672,4.76591753 L83.1428672,6.65980035 L83.1820213,6.65980035 C83.46505,5.96399698 83.9259505,5.4270426 84.5636041,5.04669992 C85.2012577,4.66635724 85.9261691,4.4761859 86.7383384,4.4761859 C87.4979293,4.4761859 88.1579566,4.61825508 88.7184206,4.90127478 C89.2788845,5.18541313 89.7464971,5.56799313 90.1201398,6.05125206 C90.4937824,6.534511 90.7700989,7.09495713 90.9513268,7.73259045 C91.131436,8.37022376 91.2209312,9.04365404 91.2209312,9.75176262 C91.2209312,10.4609899 91.131436,11.1344201 90.9513268,11.7720535 C90.7700989,12.4096868 90.4937824,12.9701329 90.1201398,13.4533918 C89.7464971,13.9355321 89.2788845,14.3158748 88.7184206,14.5933012 C88.1579566,14.869609 87.4979293,15.0083222 86.7383384,15.0083222 C86.3770014,15.0083222 86.0156644,14.963576 85.655446,14.872965 C85.2952277,14.7834726 84.9596205,14.6481153 84.650862,14.4680119 C84.3409847,14.2867898 84.0680242,14.0619401 83.8297431,13.7912256 C83.5903434,13.5205111 83.4068781,13.2050504 83.2782287,12.8437249 L83.2401932,12.8437249 L83.2401932,18.4090332 L82.023058,18.4090332 L82.023058,4.76591753 L83.1428672,4.76591753 Z" id="Fill-645" fill="#48A8DE"></path>
                    <path d="M92.2919655,14.7382789 L93.5091007,14.7382789 L93.5091007,4.76658872 L92.2919655,4.76658872 L92.2919655,14.7382789 Z M92.2919655,2.89172303 L93.5091007,2.89172303 L93.5091007,0.939670154 L92.2919655,0.939670154 L92.2919655,2.89172303 Z" id="Fill-647" fill="#48A8DE"></path>
                </g>
            </g>
        </g>
    </g>
</svg>